<svg xmlns="http://www.w3.org/2000/svg" width="1390" height="316" fill="none" viewBox="0 0 1390 316"><rect width="1390" height="316" fill="#0D56C2"/><path fill="#fff" d="M1207.8 98H1203L1197.14 91.248H1197.05V98H1193.21V75.6H1197.05V88.784H1197.14L1202.87 82.672H1207.58L1200.76 89.904L1207.8 98ZM1221.43 96.144C1219.94 97.6373 1218.04 98.384 1215.73 98.384C1213.43 98.384 1211.52 97.6373 1210.01 96.144C1208.51 94.6507 1207.77 92.72 1207.77 90.352C1207.77 87.984 1208.51 86.0533 1210.01 84.56C1211.52 83.0453 1213.43 82.288 1215.73 82.288C1218.04 82.288 1219.94 83.0453 1221.43 84.56C1222.94 86.0533 1223.7 87.984 1223.7 90.352C1223.7 92.72 1222.94 94.6507 1221.43 96.144ZM1212.79 93.712C1213.56 94.5653 1214.54 94.992 1215.73 94.992C1216.93 94.992 1217.9 94.5653 1218.65 93.712C1219.41 92.8587 1219.8 91.7387 1219.8 90.352C1219.8 88.944 1219.41 87.824 1218.65 86.992C1217.9 86.1387 1216.93 85.712 1215.73 85.712C1214.54 85.712 1213.56 86.1387 1212.79 86.992C1212.04 87.824 1211.67 88.944 1211.67 90.352C1211.67 91.7387 1212.04 92.8587 1212.79 93.712ZM1236.19 82.672H1240.29L1231.62 105.168H1227.58L1230.3 98.096L1224.35 82.672H1228.51L1232.29 93.328H1232.38L1236.19 82.672ZM1253.05 82.672H1256.54V98H1253.05L1252.86 96.048H1252.76C1252.34 96.752 1251.69 97.3173 1250.81 97.744C1249.96 98.1707 1249.01 98.384 1247.96 98.384C1245.96 98.384 1244.28 97.6373 1242.94 96.144C1241.6 94.6507 1240.92 92.72 1240.92 90.352C1240.92 87.984 1241.6 86.0533 1242.94 84.56C1244.28 83.0453 1245.96 82.288 1247.96 82.288C1249.01 82.288 1249.96 82.5013 1250.81 82.928C1251.69 83.3547 1252.34 83.92 1252.76 84.624H1252.86L1253.05 82.672ZM1252.7 91.376V89.296C1252.7 88.2933 1252.33 87.4507 1251.58 86.768C1250.85 86.064 1249.94 85.712 1248.83 85.712C1247.65 85.712 1246.69 86.128 1245.95 86.96C1245.2 87.792 1244.83 88.9227 1244.83 90.352C1244.83 91.76 1245.2 92.88 1245.95 93.712C1246.69 94.544 1247.65 94.96 1248.83 94.96C1249.94 94.96 1250.85 94.6187 1251.58 93.936C1252.33 93.232 1252.7 92.3787 1252.7 91.376ZM1267.67 95.024C1268.22 95.024 1268.68 94.9813 1269.04 94.896V98.128C1268.47 98.2987 1267.71 98.384 1266.77 98.384C1264.83 98.384 1263.4 97.9147 1262.48 96.976C1261.56 96.0373 1261.11 94.5333 1261.11 92.464V86.032H1258.55V82.672H1261.11V78.96H1264.95V82.672H1268.95V86.032H1264.95V92.24C1264.95 93.3067 1265.14 94.0427 1265.52 94.448C1265.93 94.832 1266.64 95.024 1267.67 95.024ZM1282.46 82.672H1285.95V98H1282.46L1282.27 96.048H1282.17C1281.74 96.752 1281.09 97.3173 1280.22 97.744C1279.37 98.1707 1278.42 98.384 1277.37 98.384C1275.37 98.384 1273.69 97.6373 1272.35 96.144C1271 94.6507 1270.33 92.72 1270.33 90.352C1270.33 87.984 1271 86.0533 1272.35 84.56C1273.69 83.0453 1275.37 82.288 1277.37 82.288C1278.42 82.288 1279.37 82.5013 1280.22 82.928C1281.09 83.3547 1281.74 83.92 1282.17 84.624H1282.27L1282.46 82.672ZM1282.11 91.376V89.296C1282.11 88.2933 1281.73 87.4507 1280.99 86.768C1280.26 86.064 1279.34 85.712 1278.23 85.712C1277.06 85.712 1276.1 86.128 1275.35 86.96C1274.61 87.792 1274.23 88.9227 1274.23 90.352C1274.23 91.76 1274.61 92.88 1275.35 93.712C1276.1 94.544 1277.06 94.96 1278.23 94.96C1279.34 94.96 1280.26 94.6187 1280.99 93.936C1281.73 93.232 1282.11 92.3787 1282.11 91.376Z"/><path fill="#fff" fill-opacity=".7" d="M1203.88 177V178.92H1199.7V191H1197.6V178.92H1193.42V177H1203.88ZM1209.71 191V185.46L1204.65 177H1207.01L1210.75 183.46H1210.79L1214.53 177H1216.89L1211.81 185.46V191H1209.71ZM1222.79 177C1224.58 177 1225.96 177.44 1226.93 178.32C1227.91 179.187 1228.39 180.427 1228.39 182.04C1228.39 183.64 1227.9 184.88 1226.91 185.76C1225.94 186.64 1224.57 187.08 1222.79 187.08H1220.53V191H1218.45V177H1222.79ZM1222.77 185.14C1223.95 185.14 1224.81 184.887 1225.37 184.38C1225.95 183.873 1226.23 183.093 1226.23 182.04C1226.23 180.987 1225.95 180.207 1225.37 179.7C1224.81 179.18 1223.95 178.92 1222.77 178.92H1220.53V185.14H1222.77ZM1239.27 178.92H1232.77V183.62H1238.69V185.52H1232.77V189.08H1239.27V191H1230.69V177H1239.27V178.92ZM1250.55 178.92H1244.05V183.88H1250.15V185.78H1244.05V191H1241.97V177H1250.55V178.92ZM1260.68 191L1259.66 188.08H1253.52L1252.48 191H1250.34L1255.44 177H1257.74L1262.84 191H1260.68ZM1254.14 186.28H1259.02L1256.62 179.46H1256.56L1254.14 186.28ZM1270.35 191.24C1268.38 191.24 1266.74 190.567 1265.43 189.22C1264.13 187.86 1263.47 186.12 1263.47 184C1263.47 181.88 1264.13 180.147 1265.43 178.8C1266.74 177.44 1268.38 176.76 1270.35 176.76C1272.01 176.76 1273.43 177.227 1274.61 178.16C1275.8 179.093 1276.51 180.307 1276.73 181.8L1274.59 182.14C1274.39 181.06 1273.91 180.213 1273.15 179.6C1272.41 178.987 1271.49 178.68 1270.41 178.68C1269.03 178.68 1267.88 179.167 1266.97 180.14C1266.08 181.1 1265.63 182.387 1265.63 184C1265.63 185.613 1266.08 186.907 1266.97 187.88C1267.88 188.84 1269.03 189.32 1270.41 189.32C1271.51 189.32 1272.43 189.013 1273.17 188.4C1273.93 187.773 1274.41 186.927 1274.61 185.86L1276.69 186.2C1276.47 187.693 1275.76 188.907 1274.57 189.84C1273.4 190.773 1271.99 191.24 1270.35 191.24ZM1287.57 178.92H1281.07V183.62H1286.99V185.52H1281.07V189.08H1287.57V191H1278.99V177H1287.57V178.92Z"/><path fill="#fff" d="M1150.23 228.088C1152.75 228.877 1154.01 230.541 1154.01 233.08C1154.01 234.893 1153.37 236.333 1152.09 237.4C1150.83 238.467 1149.04 239 1146.71 239H1137.69V216.6H1145.46C1147.94 216.6 1149.84 217.176 1151.16 218.328C1152.5 219.459 1153.18 221.027 1153.18 223.032C1153.18 225.443 1152.19 227.096 1150.23 227.992V228.088ZM1149.24 223.384C1149.24 221.144 1147.98 220.024 1145.46 220.024H1141.69V226.68H1145.46C1147.98 226.68 1149.24 225.581 1149.24 223.384ZM1146.33 235.576C1148.67 235.576 1149.85 234.648 1149.85 232.792C1149.85 230.936 1148.67 230.008 1146.33 230.008H1141.69V235.576H1146.33ZM1174.03 239H1169.26L1164.91 233.112H1164.59H1161.55V239H1157.49V216.6H1164.59C1167.55 216.6 1169.83 217.315 1171.41 218.744C1173.01 220.173 1173.81 222.211 1173.81 224.856C1173.81 228.653 1172.23 231.16 1169.07 232.376L1174.03 239ZM1161.55 220.344V229.4H1164.56C1166.29 229.4 1167.57 229.037 1168.4 228.312C1169.23 227.565 1169.65 226.413 1169.65 224.856C1169.65 223.32 1169.23 222.189 1168.4 221.464C1167.57 220.717 1166.29 220.344 1164.56 220.344H1161.55ZM1202.41 236.12C1200.3 238.296 1197.62 239.384 1194.38 239.384C1191.13 239.384 1188.46 238.296 1186.34 236.12C1184.23 233.944 1183.18 231.171 1183.18 227.8C1183.18 224.429 1184.23 221.656 1186.34 219.48C1188.46 217.304 1191.13 216.216 1194.38 216.216C1197.62 216.216 1200.3 217.304 1202.41 219.48C1204.52 221.656 1205.58 224.429 1205.58 227.8C1205.58 231.171 1204.52 233.944 1202.41 236.12ZM1194.38 235.64C1196.45 235.64 1198.13 234.925 1199.43 233.496C1200.75 232.067 1201.42 230.168 1201.42 227.8C1201.42 225.432 1200.75 223.533 1199.43 222.104C1198.13 220.675 1196.45 219.96 1194.38 219.96C1192.29 219.96 1190.59 220.675 1189.29 222.104C1187.99 223.533 1187.34 225.432 1187.34 227.8C1187.34 230.168 1187.99 232.067 1189.29 233.496C1190.59 234.925 1192.29 235.64 1194.38 235.64ZM1226.51 223.288C1228.11 223.288 1229.37 223.821 1230.31 224.888C1231.25 225.955 1231.72 227.459 1231.72 229.4V239H1227.88V230.52C1227.88 228.045 1227 226.808 1225.23 226.808C1224.27 226.808 1223.5 227.149 1222.92 227.832C1222.35 228.493 1222.06 229.453 1222.06 230.712V239H1218.22V230.52C1218.22 228.045 1217.34 226.808 1215.59 226.808C1214.63 226.808 1213.87 227.149 1213.29 227.832C1212.71 228.493 1212.43 229.453 1212.43 230.712V239H1208.59V223.672H1212.07L1212.23 225.624H1212.36C1212.83 224.899 1213.48 224.333 1214.31 223.928C1215.17 223.501 1216.06 223.288 1217 223.288C1218.99 223.288 1220.41 224.163 1221.29 225.912H1221.39C1221.92 225.101 1222.63 224.461 1223.53 223.992C1224.45 223.523 1225.44 223.288 1226.51 223.288ZM1249.82 230.84C1249.82 231.245 1249.78 231.725 1249.72 232.28H1238.26C1238.41 233.539 1238.86 234.499 1239.61 235.16C1240.35 235.821 1241.29 236.152 1242.42 236.152C1244.13 236.152 1245.33 235.459 1246.01 234.072L1249.5 234.936C1249.01 236.301 1248.12 237.389 1246.84 238.2C1245.58 238.989 1244.1 239.384 1242.39 239.384C1240.05 239.384 1238.14 238.648 1236.66 237.176C1235.19 235.704 1234.46 233.795 1234.46 231.448C1234.46 229.037 1235.2 227.075 1236.7 225.56C1238.19 224.045 1240.1 223.288 1242.42 223.288C1244.6 223.288 1246.37 223.981 1247.74 225.368C1249.12 226.733 1249.82 228.557 1249.82 230.84ZM1242.42 226.456C1241.42 226.456 1240.56 226.733 1239.83 227.288C1239.13 227.821 1238.65 228.611 1238.39 229.656H1246.01C1245.67 227.523 1244.47 226.456 1242.42 226.456ZM1263.98 223.672H1267.46V238.84C1267.46 241.251 1266.75 243.139 1265.32 244.504C1263.89 245.869 1261.97 246.552 1259.56 246.552C1257.6 246.552 1255.93 246.093 1254.57 245.176C1253.22 244.28 1252.36 243 1251.98 241.336L1255.56 240.376C1256.22 242.275 1257.57 243.224 1259.59 243.224C1260.87 243.224 1261.89 242.84 1262.63 242.072C1263.38 241.304 1263.75 240.248 1263.75 238.904V236.632H1263.66C1263.25 237.315 1262.61 237.869 1261.74 238.296C1260.86 238.701 1259.9 238.904 1258.86 238.904C1256.87 238.904 1255.21 238.179 1253.86 236.728C1252.52 235.277 1251.85 233.411 1251.85 231.128C1251.85 228.845 1252.52 226.968 1253.86 225.496C1255.21 224.024 1256.87 223.288 1258.86 223.288C1259.9 223.288 1260.86 223.501 1261.74 223.928C1262.61 224.355 1263.26 224.92 1263.69 225.624H1263.78L1263.98 223.672ZM1263.62 232.12V230.136C1263.62 229.219 1263.25 228.419 1262.5 227.736C1261.76 227.053 1260.84 226.712 1259.75 226.712C1258.58 226.712 1257.62 227.117 1256.87 227.928C1256.13 228.739 1255.75 229.805 1255.75 231.128C1255.75 232.451 1256.13 233.517 1256.87 234.328C1257.62 235.117 1258.58 235.512 1259.75 235.512C1260.84 235.512 1261.76 235.181 1262.5 234.52C1263.25 233.837 1263.62 233.037 1263.62 232.12ZM1282.43 223.672H1285.92V239H1282.43L1282.24 237.048H1282.14C1281.71 237.752 1281.06 238.317 1280.19 238.744C1279.34 239.171 1278.39 239.384 1277.34 239.384C1275.34 239.384 1273.66 238.637 1272.32 237.144C1270.97 235.651 1270.3 233.72 1270.3 231.352C1270.3 228.984 1270.97 227.053 1272.32 225.56C1273.66 224.045 1275.34 223.288 1277.34 223.288C1278.39 223.288 1279.34 223.501 1280.19 223.928C1281.06 224.355 1281.71 224.92 1282.14 225.624H1282.24L1282.43 223.672ZM1282.08 232.376V230.296C1282.08 229.293 1281.7 228.451 1280.96 227.768C1280.23 227.064 1279.31 226.712 1278.2 226.712C1277.03 226.712 1276.07 227.128 1275.32 227.96C1274.58 228.792 1274.2 229.923 1274.2 231.352C1274.2 232.76 1274.58 233.88 1275.32 234.712C1276.07 235.544 1277.03 235.96 1278.2 235.96C1279.31 235.96 1280.23 235.619 1280.96 234.936C1281.7 234.232 1282.08 233.379 1282.08 232.376Z"/><path fill="#fff" fill-opacity=".7" d="M652.88 110.24C650.907 110.24 649.267 109.567 647.96 108.22C646.653 106.86 646 105.12 646 103C646 100.88 646.653 99.1467 647.96 97.8C649.267 96.44 650.907 95.76 652.88 95.76C654.533 95.76 655.953 96.2267 657.14 97.16C658.327 98.0933 659.033 99.3067 659.26 100.8L657.12 101.14C656.92 100.06 656.44 99.2133 655.68 98.6C654.933 97.9867 654.02 97.68 652.94 97.68C651.553 97.68 650.407 98.1667 649.5 99.14C648.607 100.1 648.16 101.387 648.16 103C648.16 104.613 648.607 105.907 649.5 106.88C650.407 107.84 651.553 108.32 652.94 108.32C654.033 108.32 654.953 108.013 655.7 107.4C656.46 106.773 656.94 105.927 657.14 104.86L659.22 105.2C658.993 106.693 658.287 107.907 657.1 108.84C655.927 109.773 654.52 110.24 652.88 110.24ZM667.618 110.24C665.605 110.24 663.945 109.56 662.638 108.2C661.331 106.84 660.678 105.107 660.678 103C660.678 100.893 661.331 99.16 662.638 97.8C663.945 96.44 665.605 95.76 667.618 95.76C669.618 95.76 671.271 96.44 672.578 97.8C673.898 99.16 674.558 100.893 674.558 103C674.558 105.107 673.898 106.84 672.578 108.2C671.271 109.56 669.618 110.24 667.618 110.24ZM664.178 106.86C665.071 107.833 666.218 108.32 667.618 108.32C669.018 108.32 670.165 107.833 671.058 106.86C671.951 105.887 672.398 104.6 672.398 103C672.398 101.4 671.951 100.113 671.058 99.14C670.165 98.1667 669.018 97.68 667.618 97.68C666.218 97.68 665.071 98.1667 664.178 99.14C663.285 100.113 662.838 101.4 662.838 103C662.838 104.6 663.285 105.887 664.178 106.86ZM679.077 108.08H685.297V110H676.997V96H679.077V108.08ZM692.931 110.24C690.918 110.24 689.258 109.56 687.951 108.2C686.645 106.84 685.991 105.107 685.991 103C685.991 100.893 686.645 99.16 687.951 97.8C689.258 96.44 690.918 95.76 692.931 95.76C694.931 95.76 696.585 96.44 697.891 97.8C699.211 99.16 699.871 100.893 699.871 103C699.871 105.107 699.211 106.84 697.891 108.2C696.585 109.56 694.931 110.24 692.931 110.24ZM689.491 106.86C690.385 107.833 691.531 108.32 692.931 108.32C694.331 108.32 695.478 107.833 696.371 106.86C697.265 105.887 697.711 104.6 697.711 103C697.711 101.4 697.265 100.113 696.371 99.14C695.478 98.1667 694.331 97.68 692.931 97.68C691.531 97.68 690.385 98.1667 689.491 99.14C688.598 100.113 688.151 101.4 688.151 103C688.151 104.6 688.598 105.887 689.491 106.86ZM711.41 108.7C710.45 109.727 709.144 110.24 707.49 110.24C705.837 110.24 704.524 109.727 703.55 108.7C702.59 107.673 702.11 106.28 702.11 104.52V96H704.21V104.54C704.21 105.753 704.504 106.687 705.09 107.34C705.677 107.98 706.477 108.3 707.49 108.3C708.504 108.3 709.304 107.98 709.89 107.34C710.49 106.687 710.79 105.753 710.79 104.54V96H712.87V104.52C712.87 106.28 712.384 107.673 711.41 108.7ZM726.053 110H723.533L720.533 106.08H720.293H718.033V110H715.953V96H720.293C722.08 96 723.46 96.44 724.433 97.32C725.407 98.1867 725.893 99.4267 725.893 101.04C725.893 102.213 725.62 103.2 725.073 104C724.54 104.8 723.767 105.373 722.753 105.72L726.053 110ZM718.033 97.92V104.14H720.273C721.447 104.14 722.313 103.887 722.873 103.38C723.447 102.873 723.733 102.093 723.733 101.04C723.733 99.9867 723.447 99.2067 722.873 98.7C722.313 98.18 721.447 97.92 720.273 97.92H718.033ZM732.821 110.24C731.434 110.24 730.261 109.873 729.301 109.14C728.341 108.407 727.761 107.427 727.561 106.2L729.561 105.7C730.054 107.473 731.154 108.36 732.861 108.36C733.714 108.36 734.401 108.147 734.921 107.72C735.441 107.293 735.701 106.74 735.701 106.06C735.701 105.527 735.494 105.093 735.081 104.76C734.667 104.413 733.941 104.127 732.901 103.9L731.581 103.62C729.047 103.073 727.781 101.833 727.781 99.9C727.781 98.6867 728.234 97.6933 729.141 96.92C730.047 96.1467 731.207 95.76 732.621 95.76C733.914 95.76 735.014 96.1 735.921 96.78C736.827 97.4467 737.381 98.3667 737.581 99.54L735.581 100.04C735.234 98.44 734.234 97.64 732.581 97.64C731.767 97.64 731.114 97.84 730.621 98.24C730.141 98.64 729.901 99.16 729.901 99.8C729.901 100.333 730.101 100.76 730.501 101.08C730.914 101.387 731.647 101.653 732.701 101.88L734.021 102.18C735.341 102.46 736.301 102.907 736.901 103.52C737.514 104.133 737.821 104.92 737.821 105.88C737.821 107.173 737.354 108.227 736.421 109.04C735.487 109.84 734.287 110.24 732.821 110.24Z"/><rect width="72" height="72" x="475" y="131" fill="#27AE60" rx="25"/><rect width="72" height="72" x="568" y="131" fill="#F2994A" rx="25"/><rect width="72" height="72" x="664" y="131" fill="#8A4AF2" rx="25"/><rect width="72" height="72" x="762" y="132" fill="#333" rx="24"/><rect width="72" height="72" x="850" y="132" fill="#fff" rx="24"/><path fill="#fff" d="M110.616 63.752H101.264V71.144H110.056V73.496H101.264V81H98.688V61.4H110.616V63.752ZM126.944 79.18C125.6 80.6173 123.789 81.336 121.512 81.336C119.234 81.336 117.414 80.6173 116.051 79.18C114.707 77.7427 114.035 75.792 114.035 73.328V61.4H116.611V73.44C116.611 75.2133 117.05 76.5853 117.927 77.556C118.805 78.508 119.999 78.984 121.512 78.984C123.024 78.984 124.218 78.508 125.096 77.556C125.973 76.5853 126.411 75.2133 126.411 73.44V61.4H128.987V73.328C128.987 75.792 128.306 77.7427 126.944 79.18ZM146.489 61.4H149.065V81H146.349L136.185 65.572H136.101V81H133.525V61.4H136.241L146.405 76.828H146.489V61.4Z"/><path fill="#fff" d="M103.448 137L96.448 117.4H99.08L104.904 134.004H104.988L110.812 117.4H113.444L106.444 137H103.448ZM116.011 137V117.4H118.587V137H116.011ZM133.936 127.508C136.139 128.18 137.24 129.627 137.24 131.848C137.24 133.416 136.68 134.667 135.56 135.6C134.459 136.533 132.891 137 130.856 137H123.408V117.4H129.876C132.004 117.4 133.637 117.904 134.776 118.912C135.933 119.901 136.512 121.283 136.512 123.056C136.512 125.147 135.653 126.603 133.936 127.424V127.508ZM130.044 119.64H125.984V126.584H130.044C132.639 126.584 133.936 125.436 133.936 123.14C133.936 120.807 132.639 119.64 130.044 119.64ZM130.744 134.76C133.32 134.76 134.608 133.761 134.608 131.764C134.608 129.767 133.32 128.768 130.744 128.768H125.984V134.76H130.744ZM154.921 137H151.757L147.305 131.288H146.969H143.525V137H140.949V117.4H146.969C149.415 117.4 151.309 118.007 152.653 119.22C153.997 120.433 154.669 122.141 154.669 124.344C154.669 126.024 154.277 127.424 153.493 128.544C152.709 129.645 151.58 130.42 150.105 130.868L154.921 137ZM143.525 119.752V128.936H146.913C148.649 128.936 149.937 128.563 150.777 127.816C151.617 127.069 152.037 125.912 152.037 124.344C152.037 122.776 151.617 121.619 150.777 120.872C149.937 120.125 148.649 119.752 146.913 119.752H143.525ZM170.949 137L169.381 132.66H160.505L158.937 137H156.333L163.557 117.4H166.329L173.553 137H170.949ZM161.289 130.42H168.597L164.985 120.368H164.901L161.289 130.42ZM189.106 117.4H191.682V137H188.966L178.802 121.572H178.718V137H176.142V117.4H178.858L189.022 132.828H189.106V117.4ZM208.988 117.4V119.752H202.996V137H200.42V119.752H194.428V117.4H208.988Z"/><path fill="#fff" d="M103.448 193V185.3L96.224 173.4H99.136L104.708 182.892H104.764L110.336 173.4H113.248L106.024 185.3V193H103.448ZM129.988 190.48C128.159 192.384 125.854 193.336 123.072 193.336C120.291 193.336 117.986 192.384 116.156 190.48C114.327 188.576 113.412 186.149 113.412 183.2C113.412 180.251 114.327 177.824 116.156 175.92C117.986 174.016 120.291 173.064 123.072 173.064C125.854 173.064 128.159 174.016 129.988 175.92C131.818 177.824 132.732 180.251 132.732 183.2C132.732 186.149 131.818 188.576 129.988 190.48ZM118.004 188.856C119.33 190.275 121.019 190.984 123.072 190.984C125.126 190.984 126.806 190.275 128.112 188.856C129.438 187.437 130.1 185.552 130.1 183.2C130.1 180.848 129.438 178.963 128.112 177.544C126.806 176.125 125.126 175.416 123.072 175.416C121.019 175.416 119.33 176.125 118.004 177.544C116.698 178.963 116.044 180.848 116.044 183.2C116.044 185.552 116.698 187.437 118.004 188.856ZM148.969 191.18C147.625 192.617 145.815 193.336 143.537 193.336C141.26 193.336 139.44 192.617 138.077 191.18C136.733 189.743 136.061 187.792 136.061 185.328V173.4H138.637V185.44C138.637 187.213 139.076 188.585 139.953 189.556C140.831 190.508 142.025 190.984 143.537 190.984C145.049 190.984 146.244 190.508 147.121 189.556C147.999 188.585 148.437 187.213 148.437 185.44V173.4H151.013V185.328C151.013 187.792 150.332 189.743 148.969 191.18ZM168.039 173.4V175.752H162.047V193H159.471V175.752H153.479V173.4H168.039ZM182.724 173.4H185.3V193H182.724V185.216H173.372V193H170.796V173.4H173.372V182.864H182.724V173.4ZM202.043 175.752H192.691V183.144H201.483V185.496H192.691V193H190.115V173.4H202.043V175.752ZM218.37 191.18C217.026 192.617 215.215 193.336 212.938 193.336C210.661 193.336 208.841 192.617 207.478 191.18C206.134 189.743 205.462 187.792 205.462 185.328V173.4H208.038V185.44C208.038 187.213 208.477 188.585 209.354 189.556C210.231 190.508 211.426 190.984 212.938 190.984C214.45 190.984 215.645 190.508 216.522 189.556C217.399 188.585 217.838 187.213 217.838 185.44V173.4H220.414V185.328C220.414 187.792 219.733 189.743 218.37 191.18ZM227.528 190.648H236.488V193H224.952V173.4H227.528V190.648Z"/><path fill="#fff" d="M102.664 249L96.588 229.4H99.192L103.98 245.052H104.064L108.768 229.4H111.26L115.964 245.052H116.048L120.836 229.4H123.44L117.364 249H114.788L110.056 233.152H109.972L105.24 249H102.664ZM138.083 231.752H128.731V238.864H137.299V241.216H128.731V246.648H138.083V249H126.155V229.4H138.083V231.752ZM144.632 246.648H153.592V249H142.056V229.4H144.632V246.648ZM164.251 249.336C161.526 249.336 159.248 248.393 157.419 246.508C155.59 244.604 154.675 242.168 154.675 239.2C154.675 236.232 155.59 233.805 157.419 231.92C159.248 230.016 161.526 229.064 164.251 229.064C166.528 229.064 168.488 229.717 170.131 231.024C171.792 232.312 172.782 233.983 173.099 236.036L170.495 236.456C170.196 234.888 169.487 233.656 168.367 232.76C167.266 231.864 165.922 231.416 164.335 231.416C162.3 231.416 160.62 232.125 159.295 233.544C157.97 234.963 157.307 236.848 157.307 239.2C157.307 241.552 157.97 243.437 159.295 244.856C160.62 246.275 162.3 246.984 164.335 246.984C165.922 246.984 167.266 246.536 168.367 245.64C169.487 244.744 170.196 243.512 170.495 241.944L173.043 242.364C172.726 244.417 171.746 246.097 170.103 247.404C168.46 248.692 166.51 249.336 164.251 249.336ZM191.828 246.48C189.998 248.384 187.693 249.336 184.912 249.336C182.13 249.336 179.825 248.384 177.996 246.48C176.166 244.576 175.252 242.149 175.252 239.2C175.252 236.251 176.166 233.824 177.996 231.92C179.825 230.016 182.13 229.064 184.912 229.064C187.693 229.064 189.998 230.016 191.828 231.92C193.657 233.824 194.572 236.251 194.572 239.2C194.572 242.149 193.657 244.576 191.828 246.48ZM179.844 244.856C181.169 246.275 182.858 246.984 184.912 246.984C186.965 246.984 188.645 246.275 189.952 244.856C191.277 243.437 191.94 241.552 191.94 239.2C191.94 236.848 191.277 234.963 189.952 233.544C188.645 232.125 186.965 231.416 184.912 231.416C182.858 231.416 181.169 232.125 179.844 233.544C178.537 234.963 177.884 236.848 177.884 239.2C177.884 241.552 178.537 243.437 179.844 244.856ZM215.681 229.4H218.481V249H215.961V234.748H215.877L209.325 249H207.337L200.785 234.748H200.701V249H198.181V229.4H200.981L208.289 245.556H208.373L215.681 229.4ZM223.297 249V229.4H225.873V249H223.297ZM243.658 229.4H246.234V249H243.518L233.354 233.572H233.27V249H230.694V229.4H233.41L243.574 244.828H243.658V229.4ZM259.844 241.16V238.864H268.272V249H266.228L265.92 246.088H265.836C265.201 247.115 264.305 247.917 263.148 248.496C261.99 249.056 260.702 249.336 259.284 249.336C256.577 249.336 254.328 248.403 252.536 246.536C250.744 244.651 249.848 242.205 249.848 239.2C249.848 236.232 250.762 233.805 252.592 231.92C254.44 230.016 256.764 229.064 259.564 229.064C261.729 229.064 263.605 229.633 265.192 230.772C266.778 231.911 267.805 233.395 268.272 235.224L265.696 235.868C265.322 234.468 264.604 233.376 263.54 232.592C262.476 231.789 261.16 231.388 259.592 231.388C257.501 231.388 255.793 232.097 254.468 233.516C253.142 234.935 252.48 236.829 252.48 239.2C252.48 241.571 253.133 243.465 254.44 244.884C255.765 246.303 257.454 247.012 259.508 247.012C261.244 247.012 262.69 246.489 263.848 245.444C265.024 244.399 265.714 242.971 265.92 241.16H259.844Z"/><path fill="#E9E6FF" d="M748.288 272V268.628L745.132 263.6H745.96L748.648 267.932H748.66L751.348 263.6H752.176L749.02 268.628V272H748.288ZM754.937 272.144C754.121 272.144 753.445 271.872 752.909 271.328C752.373 270.776 752.105 270.072 752.105 269.216C752.105 268.352 752.373 267.648 752.909 267.104C753.445 266.552 754.121 266.276 754.937 266.276C755.761 266.276 756.441 266.552 756.977 267.104C757.513 267.656 757.781 268.36 757.781 269.216C757.781 270.072 757.513 270.776 756.977 271.328C756.441 271.872 755.761 272.144 754.937 272.144ZM753.413 270.896C753.813 271.32 754.321 271.532 754.937 271.532C755.553 271.532 756.061 271.32 756.461 270.896C756.861 270.464 757.061 269.904 757.061 269.216C757.061 268.52 756.861 267.96 756.461 267.536C756.061 267.104 755.553 266.888 754.937 266.888C754.321 266.888 753.813 267.104 753.413 267.536C753.013 267.96 752.813 268.52 752.813 269.216C752.813 269.904 753.013 270.464 753.413 270.896ZM763.338 266.42H764.034V272H763.41L763.362 271.028H763.338C763.162 271.38 762.898 271.656 762.546 271.856C762.194 272.048 761.802 272.144 761.37 272.144C760.762 272.144 760.278 271.952 759.918 271.568C759.558 271.176 759.378 270.628 759.378 269.924V266.42H760.074V269.696C760.074 270.912 760.562 271.52 761.538 271.52C762.074 271.52 762.506 271.348 762.834 271.004C763.17 270.66 763.338 270.172 763.338 269.54V266.42ZM771.388 272.144C770.596 272.144 769.936 271.872 769.408 271.328C768.88 270.776 768.616 270.072 768.616 269.216C768.616 268.352 768.88 267.648 769.408 267.104C769.936 266.552 770.6 266.276 771.4 266.276C772.048 266.276 772.608 266.46 773.08 266.828C773.56 267.188 773.852 267.664 773.956 268.256L773.26 268.364C773.164 267.908 772.948 267.548 772.612 267.284C772.276 267.02 771.872 266.888 771.4 266.888C770.808 266.888 770.312 267.1 769.912 267.524C769.52 267.948 769.324 268.512 769.324 269.216C769.324 269.92 769.52 270.484 769.912 270.908C770.312 271.324 770.808 271.532 771.4 271.532C771.88 271.532 772.292 271.396 772.636 271.124C772.988 270.852 773.204 270.496 773.284 270.056L773.956 270.164C773.868 270.748 773.584 271.224 773.104 271.592C772.624 271.96 772.052 272.144 771.388 272.144ZM780.003 266.42H780.627V272H780.003L779.955 271.064H779.931C779.747 271.4 779.471 271.664 779.103 271.856C778.735 272.048 778.323 272.144 777.867 272.144C777.091 272.144 776.447 271.872 775.935 271.328C775.423 270.776 775.167 270.072 775.167 269.216C775.167 268.352 775.423 267.648 775.935 267.104C776.447 266.552 777.091 266.276 777.867 266.276C778.323 266.276 778.735 266.372 779.103 266.564C779.471 266.756 779.747 267.02 779.931 267.356H779.955L780.003 266.42ZM779.931 269.732V268.688C779.931 268.176 779.743 267.748 779.367 267.404C778.991 267.06 778.523 266.888 777.963 266.888C777.347 266.888 776.843 267.1 776.451 267.524C776.067 267.948 775.875 268.512 775.875 269.216C775.875 269.912 776.067 270.472 776.451 270.896C776.843 271.32 777.347 271.532 777.963 271.532C778.523 271.532 778.991 271.36 779.367 271.016C779.743 270.672 779.931 270.244 779.931 269.732ZM785.353 266.276C785.985 266.276 786.481 266.472 786.841 266.864C787.201 267.248 787.381 267.8 787.381 268.52V272H786.685V268.748C786.685 267.516 786.185 266.9 785.185 266.9C784.633 266.9 784.189 267.076 783.853 267.428C783.525 267.772 783.361 268.256 783.361 268.88V272H782.665V266.42H783.289L783.337 267.392H783.361C783.537 267.04 783.801 266.768 784.153 266.576C784.505 266.376 784.905 266.276 785.353 266.276ZM789.079 263.408C789.271 263.408 789.427 263.484 789.547 263.636C789.667 263.788 789.727 264 789.727 264.272C789.727 264.872 789.455 265.384 788.911 265.808L788.647 265.532C789.039 265.188 789.227 264.828 789.211 264.452C789.147 264.468 789.095 264.476 789.055 264.476C788.903 264.476 788.775 264.428 788.671 264.332C788.567 264.228 788.515 264.096 788.515 263.936C788.515 263.792 788.567 263.668 788.671 263.564C788.783 263.46 788.919 263.408 789.079 263.408ZM793.884 271.544C794.06 271.544 794.248 271.524 794.448 271.484V272.072C794.224 272.12 793.996 272.144 793.764 272.144C793.156 272.144 792.708 271.992 792.42 271.688C792.132 271.376 791.988 270.868 791.988 270.164V267.02H790.872V266.42H791.988V264.98H792.684V266.42H794.388V267.02H792.684V270.164C792.684 270.676 792.776 271.036 792.96 271.244C793.144 271.444 793.452 271.544 793.884 271.544ZM800.589 272.144C800.005 272.144 799.513 272.008 799.113 271.736C798.721 271.456 798.473 271.072 798.369 270.584L799.005 270.428C799.221 271.188 799.749 271.568 800.589 271.568C801.029 271.568 801.373 271.468 801.621 271.268C801.877 271.06 802.005 270.796 802.005 270.476C802.005 270.22 801.905 270.016 801.705 269.864C801.513 269.712 801.169 269.588 800.673 269.492L800.049 269.372C798.985 269.164 798.453 268.68 798.453 267.92C798.453 267.44 798.641 267.048 799.017 266.744C799.401 266.432 799.901 266.276 800.517 266.276C801.061 266.276 801.513 266.404 801.873 266.66C802.241 266.916 802.473 267.268 802.569 267.716L801.933 267.86C801.733 267.188 801.253 266.852 800.493 266.852C800.077 266.852 799.745 266.948 799.497 267.14C799.249 267.324 799.125 267.572 799.125 267.884C799.125 268.124 799.213 268.316 799.389 268.46C799.573 268.596 799.909 268.712 800.397 268.808L801.021 268.928C801.605 269.04 802.029 269.216 802.293 269.456C802.557 269.696 802.689 270.02 802.689 270.428C802.689 270.932 802.497 271.344 802.113 271.664C801.737 271.984 801.229 272.144 800.589 272.144ZM809.231 269.012C809.231 269.164 809.223 269.28 809.207 269.36H804.551C804.583 270.04 804.791 270.572 805.175 270.956C805.559 271.34 806.051 271.532 806.651 271.532C807.507 271.532 808.119 271.164 808.487 270.428L809.111 270.62C808.919 271.092 808.603 271.464 808.163 271.736C807.723 272.008 807.215 272.144 806.639 272.144C805.823 272.144 805.155 271.88 804.635 271.352C804.115 270.816 803.855 270.112 803.855 269.24C803.855 268.368 804.119 267.656 804.647 267.104C805.183 266.552 805.855 266.276 806.663 266.276C807.415 266.276 808.031 266.528 808.511 267.032C808.991 267.528 809.231 268.188 809.231 269.012ZM806.663 266.864C806.111 266.864 805.643 267.036 805.259 267.38C804.883 267.724 804.655 268.196 804.575 268.796H808.535C808.495 268.172 808.307 267.696 807.971 267.368C807.635 267.032 807.199 266.864 806.663 266.864ZM815.875 269.012C815.875 269.164 815.867 269.28 815.851 269.36H811.195C811.227 270.04 811.435 270.572 811.819 270.956C812.203 271.34 812.695 271.532 813.295 271.532C814.151 271.532 814.763 271.164 815.131 270.428L815.755 270.62C815.563 271.092 815.247 271.464 814.807 271.736C814.367 272.008 813.859 272.144 813.283 272.144C812.467 272.144 811.799 271.88 811.279 271.352C810.759 270.816 810.499 270.112 810.499 269.24C810.499 268.368 810.763 267.656 811.291 267.104C811.827 266.552 812.499 266.276 813.307 266.276C814.059 266.276 814.675 266.528 815.155 267.032C815.635 267.528 815.875 268.188 815.875 269.012ZM813.307 266.864C812.755 266.864 812.287 267.036 811.903 267.38C811.527 267.724 811.299 268.196 811.219 268.796H815.179C815.139 268.172 814.951 267.696 814.615 267.368C814.279 267.032 813.843 266.864 813.307 266.864ZM821.19 265.088C821.086 265.192 820.958 265.244 820.806 265.244C820.654 265.244 820.522 265.192 820.41 265.088C820.306 264.976 820.254 264.844 820.254 264.692C820.254 264.54 820.306 264.408 820.41 264.296C820.522 264.184 820.654 264.128 820.806 264.128C820.958 264.128 821.086 264.184 821.19 264.296C821.302 264.408 821.358 264.54 821.358 264.692C821.358 264.844 821.302 264.976 821.19 265.088ZM820.458 272V266.42H821.154V272H820.458ZM825.384 271.544C825.56 271.544 825.748 271.524 825.948 271.484V272.072C825.724 272.12 825.496 272.144 825.264 272.144C824.656 272.144 824.208 271.992 823.92 271.688C823.632 271.376 823.488 270.868 823.488 270.164V267.02H822.372V266.42H823.488V264.98H824.184V266.42H825.888V267.02H824.184V270.164C824.184 270.676 824.276 271.036 824.46 271.244C824.644 271.444 824.952 271.544 825.384 271.544ZM748.78 280.276C749.556 280.276 750.2 280.552 750.712 281.104C751.224 281.648 751.48 282.352 751.48 283.216C751.48 284.072 751.224 284.776 750.712 285.328C750.2 285.872 749.556 286.144 748.78 286.144C748.324 286.144 747.912 286.048 747.544 285.856C747.176 285.664 746.9 285.4 746.716 285.064H746.692L746.644 286H746.02V277.6H746.716V281.356H746.74C746.924 281.02 747.2 280.756 747.568 280.564C747.936 280.372 748.34 280.276 748.78 280.276ZM748.684 285.532C749.292 285.532 749.792 285.32 750.184 284.896C750.576 284.472 750.772 283.912 750.772 283.216C750.772 282.512 750.576 281.948 750.184 281.524C749.792 281.1 749.292 280.888 748.684 280.888C748.116 280.888 747.644 281.06 747.268 281.404C746.9 281.748 746.716 282.176 746.716 282.688V283.732C746.716 284.244 746.9 284.672 747.268 285.016C747.644 285.36 748.116 285.532 748.684 285.532ZM757.057 280.42H757.753V286H757.129L757.081 285.028H757.057C756.881 285.38 756.617 285.656 756.265 285.856C755.913 286.048 755.521 286.144 755.089 286.144C754.481 286.144 753.997 285.952 753.637 285.568C753.277 285.176 753.097 284.628 753.097 283.924V280.42H753.793V283.696C753.793 284.912 754.281 285.52 755.257 285.52C755.793 285.52 756.225 285.348 756.553 285.004C756.889 284.66 757.057 284.172 757.057 283.54V280.42ZM761.986 285.544C762.162 285.544 762.35 285.524 762.55 285.484V286.072C762.326 286.12 762.098 286.144 761.866 286.144C761.258 286.144 760.81 285.992 760.522 285.688C760.234 285.376 760.09 284.868 760.09 284.164V281.02H758.974V280.42H760.09V278.98H760.786V280.42H762.49V281.02H760.786V284.164C760.786 284.676 760.878 285.036 761.062 285.244C761.246 285.444 761.554 285.544 761.986 285.544ZM769.675 280.276C770.451 280.276 771.095 280.552 771.607 281.104C772.119 281.648 772.375 282.352 772.375 283.216C772.375 284.072 772.119 284.776 771.607 285.328C771.095 285.872 770.451 286.144 769.675 286.144C769.219 286.144 768.807 286.048 768.439 285.856C768.071 285.664 767.795 285.4 767.611 285.064H767.587L767.539 286H766.915V277.6H767.611V281.356H767.635C767.819 281.02 768.095 280.756 768.463 280.564C768.831 280.372 769.235 280.276 769.675 280.276ZM769.579 285.532C770.187 285.532 770.687 285.32 771.079 284.896C771.471 284.472 771.667 283.912 771.667 283.216C771.667 282.512 771.471 281.948 771.079 281.524C770.687 281.1 770.187 280.888 769.579 280.888C769.011 280.888 768.539 281.06 768.163 281.404C767.795 281.748 767.611 282.176 767.611 282.688V283.732C767.611 284.244 767.795 284.672 768.163 285.016C768.539 285.36 769.011 285.532 769.579 285.532ZM774.04 286V277.6H774.736V286H774.04ZM780.682 280.42H781.378V286H780.754L780.706 285.028H780.682C780.506 285.38 780.242 285.656 779.89 285.856C779.538 286.048 779.146 286.144 778.714 286.144C778.106 286.144 777.622 285.952 777.262 285.568C776.902 285.176 776.722 284.628 776.722 283.924V280.42H777.418V283.696C777.418 284.912 777.906 285.52 778.882 285.52C779.418 285.52 779.85 285.348 780.178 285.004C780.514 284.66 780.682 284.172 780.682 283.54V280.42ZM788.407 283.012C788.407 283.164 788.399 283.28 788.383 283.36H783.727C783.759 284.04 783.967 284.572 784.351 284.956C784.735 285.34 785.227 285.532 785.827 285.532C786.683 285.532 787.295 285.164 787.663 284.428L788.287 284.62C788.095 285.092 787.779 285.464 787.339 285.736C786.899 286.008 786.391 286.144 785.815 286.144C784.999 286.144 784.331 285.88 783.811 285.352C783.291 284.816 783.031 284.112 783.031 283.24C783.031 282.368 783.295 281.656 783.823 281.104C784.359 280.552 785.031 280.276 785.839 280.276C786.591 280.276 787.207 280.528 787.687 281.032C788.167 281.528 788.407 282.188 788.407 283.012ZM785.839 280.864C785.287 280.864 784.819 281.036 784.435 281.38C784.059 281.724 783.831 282.196 783.751 282.796H787.711C787.671 282.172 787.483 281.696 787.147 281.368C786.811 281.032 786.375 280.864 785.839 280.864ZM789.888 277.408C790.08 277.408 790.236 277.484 790.356 277.636C790.476 277.788 790.536 278 790.536 278.272C790.536 278.872 790.264 279.384 789.72 279.808L789.456 279.532C789.848 279.188 790.036 278.828 790.02 278.452C789.956 278.468 789.904 278.476 789.864 278.476C789.712 278.476 789.584 278.428 789.48 278.332C789.376 278.228 789.324 278.096 789.324 277.936C789.324 277.792 789.376 277.668 789.48 277.564C789.592 277.46 789.728 277.408 789.888 277.408ZM793.98 286.144C793.396 286.144 792.904 286.008 792.504 285.736C792.112 285.456 791.864 285.072 791.76 284.584L792.396 284.428C792.612 285.188 793.14 285.568 793.98 285.568C794.42 285.568 794.764 285.468 795.012 285.268C795.268 285.06 795.396 284.796 795.396 284.476C795.396 284.22 795.296 284.016 795.096 283.864C794.904 283.712 794.56 283.588 794.064 283.492L793.44 283.372C792.376 283.164 791.844 282.68 791.844 281.92C791.844 281.44 792.032 281.048 792.408 280.744C792.792 280.432 793.292 280.276 793.908 280.276C794.452 280.276 794.904 280.404 795.264 280.66C795.632 280.916 795.864 281.268 795.96 281.716L795.324 281.86C795.124 281.188 794.644 280.852 793.884 280.852C793.468 280.852 793.136 280.948 792.888 281.14C792.64 281.324 792.516 281.572 792.516 281.884C792.516 282.124 792.604 282.316 792.78 282.46C792.964 282.596 793.3 282.712 793.788 282.808L794.412 282.928C794.996 283.04 795.42 283.216 795.684 283.456C795.948 283.696 796.08 284.02 796.08 284.428C796.08 284.932 795.888 285.344 795.504 285.664C795.128 285.984 794.62 286.144 793.98 286.144ZM803.247 280.276C803.879 280.276 804.375 280.472 804.735 280.864C805.095 281.248 805.275 281.8 805.275 282.52V286H804.579V282.748C804.579 281.516 804.079 280.9 803.079 280.9C802.527 280.9 802.083 281.076 801.747 281.428C801.419 281.772 801.255 282.256 801.255 282.88V286H800.559V277.6H801.255V281.392H801.279C801.463 281.04 801.723 280.768 802.059 280.576C802.403 280.376 802.799 280.276 803.247 280.276ZM812.254 283.012C812.254 283.164 812.246 283.28 812.23 283.36H807.574C807.606 284.04 807.814 284.572 808.198 284.956C808.582 285.34 809.074 285.532 809.674 285.532C810.53 285.532 811.142 285.164 811.51 284.428L812.134 284.62C811.942 285.092 811.626 285.464 811.186 285.736C810.746 286.008 810.238 286.144 809.662 286.144C808.846 286.144 808.178 285.88 807.658 285.352C807.138 284.816 806.878 284.112 806.878 283.24C806.878 282.368 807.142 281.656 807.67 281.104C808.206 280.552 808.878 280.276 809.686 280.276C810.438 280.276 811.054 280.528 811.534 281.032C812.014 281.528 812.254 282.188 812.254 283.012ZM809.686 280.864C809.134 280.864 808.666 281.036 808.282 281.38C807.906 281.724 807.678 282.196 807.598 282.796H811.558C811.518 282.172 811.33 281.696 810.994 281.368C810.658 281.032 810.222 280.864 809.686 280.864ZM816.259 280.324C816.467 280.324 816.659 280.356 816.835 280.42V281.02C816.635 280.98 816.455 280.96 816.295 280.96C815.775 280.96 815.363 281.132 815.059 281.476C814.755 281.82 814.603 282.328 814.603 283V286H813.907V280.42H814.531L814.591 281.464H814.603C814.731 281.112 814.943 280.836 815.239 280.636C815.543 280.428 815.883 280.324 816.259 280.324ZM822.93 283.012C822.93 283.164 822.922 283.28 822.906 283.36H818.25C818.282 284.04 818.49 284.572 818.874 284.956C819.258 285.34 819.75 285.532 820.35 285.532C821.206 285.532 821.818 285.164 822.186 284.428L822.81 284.62C822.618 285.092 822.302 285.464 821.862 285.736C821.422 286.008 820.914 286.144 820.338 286.144C819.522 286.144 818.854 285.88 818.334 285.352C817.814 284.816 817.554 284.112 817.554 283.24C817.554 282.368 817.818 281.656 818.346 281.104C818.882 280.552 819.554 280.276 820.362 280.276C821.114 280.276 821.73 280.528 822.21 281.032C822.69 281.528 822.93 282.188 822.93 283.012ZM820.362 280.864C819.81 280.864 819.342 281.036 818.958 281.38C818.582 281.724 818.354 282.196 818.274 282.796H822.234C822.194 282.172 822.006 281.696 821.67 281.368C821.334 281.032 820.898 280.864 820.362 280.864Z"/><path fill="#E9E6FF" d="M719.646 276.646C719.451 276.842 719.451 277.158 719.646 277.354L722.828 280.536C723.024 280.731 723.34 280.731 723.536 280.536C723.731 280.34 723.731 280.024 723.536 279.828L720.707 277L723.536 274.172C723.731 273.976 723.731 273.66 723.536 273.464C723.34 273.269 723.024 273.269 722.828 273.464L719.646 276.646ZM720 277.5H738V276.5H720V277.5Z"/></svg>