<svg xmlns="http://www.w3.org/2000/svg" width="491" height="263" fill="none" viewBox="0 0 491 263"><rect width="400" height="97" x="45.172" fill="#2342E5" rx="16"/><path fill="#fff" d="M75.1319 40.5L77.6119 31.8L78.4119 28.54L79.2319 31.8L81.6919 40.5H83.7119L87.4719 27.1H85.5119L83.4319 35.4L82.7519 38.88L81.9319 35.44L79.5519 27.1H77.3519L74.9319 35.44L74.0919 38.88L73.4319 35.4L71.3919 27.1H69.3919L73.1119 40.5H75.1319ZM90.9475 40.5V35.02C90.9475 33.4 91.6275 32.1 93.4875 32.1C95.1275 32.1 95.6275 32.98 95.6275 34.24V40.5H97.3475V33.82C97.3475 31.76 96.1675 30.62 94.2675 30.62C92.3675 30.62 91.3275 31.9 90.9475 33.4V27.1H89.2075V40.5H90.9475ZM102.169 40.7C104.169 40.7 105.209 39.26 105.529 37.98V38.66C105.529 40.02 106.249 40.5 107.249 40.5H108.369V38.92H107.749C107.389 38.92 107.209 38.78 107.209 38.32V34.34C107.209 32.04 105.929 30.62 103.549 30.62C101.389 30.62 99.9492 31.84 99.3692 32.84L100.549 34.06C101.049 33 101.969 32.2 103.349 32.2C104.869 32.2 105.409 33.04 105.469 34.18L101.969 35.74C100.589 36.36 99.6092 37.18 99.6092 38.48C99.6092 39.76 100.529 40.7 102.169 40.7ZM101.369 38.2C101.369 37.6 101.789 37.2 102.709 36.76L105.529 35.44V36.78C105.529 38.18 104.369 39.26 102.729 39.26C101.829 39.26 101.369 38.86 101.369 38.2ZM113.551 40.72C114.891 40.72 115.811 40.1 116.231 39.44L115.651 37.72C115.391 38.32 114.791 39.04 113.931 39.04C113.171 39.04 112.591 38.74 112.591 37.5V32.18H115.771V30.82H112.591V28.3L110.851 29.58V30.82H109.291V32.18H110.851V38.02C110.851 39.68 111.971 40.72 113.551 40.72ZM126.025 40.74C127.885 40.74 128.805 39.5 129.145 38.02V40.5H130.885V27.1H129.145V33.34C128.805 31.86 127.885 30.62 126.025 30.62C123.585 30.62 122.065 32.62 122.065 35.68C122.065 38.74 123.585 40.74 126.025 40.74ZM123.825 35.68C123.825 33.22 125.085 32.1 126.605 32.1C128.465 32.1 129.145 33.4 129.145 35V36.38C129.145 37.98 128.465 39.28 126.605 39.28C125.085 39.28 123.825 38.16 123.825 35.68ZM135.463 29.26V27.1H133.723V29.26H135.463ZM135.463 40.5V30.82H133.723V40.5H135.463ZM141.699 40.74C143.559 40.74 144.479 39.5 144.819 38.02V40.5H146.559V27.1H144.819V33.34C144.479 31.86 143.559 30.62 141.699 30.62C139.259 30.62 137.739 32.62 137.739 35.68C137.739 38.74 139.259 40.74 141.699 40.74ZM139.499 35.68C139.499 33.22 140.759 32.1 142.279 32.1C144.139 32.1 144.819 33.4 144.819 35V36.38C144.819 37.98 144.139 39.28 142.279 39.28C140.759 39.28 139.499 38.16 139.499 35.68ZM155.431 43.66C156.791 43.66 157.871 43.08 158.491 41.3L162.211 30.82H160.351L158.291 37.04L157.611 39.12L156.931 37.04L154.851 30.82H152.991L156.251 39.98L157.331 39.96L157.131 40.58C156.751 41.76 156.231 42.14 155.451 42.14C154.531 42.14 154.031 41.56 153.571 40.78L152.631 42.1C153.051 42.9 154.051 43.66 155.431 43.66ZM167.407 40.7C170.087 40.7 171.987 38.72 171.987 35.66C171.987 32.6 170.087 30.62 167.407 30.62C164.727 30.62 162.847 32.6 162.847 35.66C162.847 38.72 164.727 40.7 167.407 40.7ZM167.407 39.24C165.767 39.24 164.627 38.1 164.627 35.66C164.627 33.2 165.767 32.08 167.407 32.08C169.067 32.08 170.227 33.2 170.227 35.66C170.227 38.1 169.067 39.24 167.407 39.24ZM177.392 40.7C179.332 40.7 180.372 39.38 180.732 37.86V40.5H182.452V30.82H180.732V36.32C180.732 37.92 180.052 39.24 178.172 39.24C176.532 39.24 176.032 38.34 176.032 37.1V30.82H174.312V37.52C174.312 39.56 175.492 40.7 177.392 40.7ZM191.629 40.5V35.02C191.629 33.4 192.309 32.1 194.169 32.1C195.809 32.1 196.309 32.98 196.309 34.24V40.5H198.029V33.82C198.029 31.76 196.849 30.62 194.949 30.62C193.049 30.62 192.009 31.9 191.629 33.4V30.82H189.889V40.5H191.629ZM204.652 40.7C207.332 40.7 209.232 38.72 209.232 35.66C209.232 32.6 207.332 30.62 204.652 30.62C201.972 30.62 200.092 32.6 200.092 35.66C200.092 38.72 201.972 40.7 204.652 40.7ZM204.652 39.24C203.012 39.24 201.872 38.1 201.872 35.66C201.872 33.2 203.012 32.08 204.652 32.08C206.312 32.08 207.472 33.2 207.472 35.66C207.472 38.1 206.312 39.24 204.652 39.24ZM214.701 40.72C216.041 40.72 216.961 40.1 217.381 39.44L216.801 37.72C216.541 38.32 215.941 39.04 215.081 39.04C214.321 39.04 213.741 38.74 213.741 37.5V32.18H216.921V30.82H213.741V28.3L212.001 29.58V30.82H210.441V32.18H212.001V38.02C212.001 39.68 213.121 40.72 214.701 40.72ZM225.495 40.5V27.1H223.755V40.5H225.495ZM230.051 29.26V27.1H228.311V29.26H230.051ZM230.051 40.5V30.82H228.311V40.5H230.051ZM234.606 40.5V37.12L236.146 35.66L239.286 40.5H241.386L237.346 34.58L241.326 30.82H239.146L235.966 33.86L234.546 35.26L234.606 33.9V27.1H232.866V40.5H234.606ZM246.717 40.7C248.817 40.7 250.157 39.72 250.877 38.56L249.817 37.36C249.437 38.2 248.657 39.26 246.717 39.26C244.997 39.26 243.857 38.1 243.757 36.06H250.937C250.977 35.88 251.017 35.58 251.017 35.28C251.017 32.44 249.357 30.62 246.617 30.62C243.957 30.62 242.077 32.6 242.077 35.66C242.077 38.74 243.977 40.7 246.717 40.7ZM246.617 32.08C248.237 32.08 249.277 33.02 249.457 34.8H243.797C244.017 33 245.057 32.08 246.617 32.08ZM260.056 40.7C262.056 40.7 263.096 39.26 263.416 37.98V38.66C263.416 40.02 264.136 40.5 265.136 40.5H266.256V38.92H265.636C265.276 38.92 265.096 38.78 265.096 38.32V34.34C265.096 32.04 263.816 30.62 261.436 30.62C259.276 30.62 257.836 31.84 257.256 32.84L258.436 34.06C258.936 33 259.856 32.2 261.236 32.2C262.756 32.2 263.296 33.04 263.356 34.18L259.856 35.74C258.476 36.36 257.496 37.18 257.496 38.48C257.496 39.76 258.416 40.7 260.056 40.7ZM259.256 38.2C259.256 37.6 259.676 37.2 260.596 36.76L263.416 35.44V36.78C263.416 38.18 262.256 39.26 260.616 39.26C259.716 39.26 259.256 38.86 259.256 38.2ZM270.211 40.5V38.02C270.551 39.5 271.471 40.74 273.331 40.74C275.791 40.74 277.311 38.74 277.311 35.68C277.311 32.62 275.791 30.62 273.331 30.62C271.471 30.62 270.551 31.86 270.211 33.34V27.1H268.471V40.5H270.211ZM270.211 36.38V35C270.211 33.4 270.891 32.1 272.731 32.1C274.291 32.1 275.551 33.22 275.551 35.68C275.551 38.16 274.291 39.28 272.731 39.28C270.891 39.28 270.211 37.98 270.211 36.38ZM283.645 40.7C286.325 40.7 288.225 38.72 288.225 35.66C288.225 32.6 286.325 30.62 283.645 30.62C280.965 30.62 279.085 32.6 279.085 35.66C279.085 38.72 280.965 40.7 283.645 40.7ZM283.645 39.24C282.005 39.24 280.865 38.1 280.865 35.66C280.865 33.2 282.005 32.08 283.645 32.08C285.305 32.08 286.465 33.2 286.465 35.66C286.465 38.1 285.305 39.24 283.645 39.24ZM293.629 40.7C295.569 40.7 296.609 39.38 296.969 37.86V40.5H298.689V30.82H296.969V36.32C296.969 37.92 296.289 39.24 294.409 39.24C292.769 39.24 292.269 38.34 292.269 37.1V30.82H290.549V37.52C290.549 39.56 291.729 40.7 293.629 40.7ZM304.498 40.72C305.838 40.72 306.758 40.1 307.178 39.44L306.598 37.72C306.338 38.32 305.738 39.04 304.878 39.04C304.118 39.04 303.538 38.74 303.538 37.5V32.18H306.718V30.82H303.538V28.3L301.798 29.58V30.82H300.238V32.18H301.798V38.02C301.798 39.68 302.918 40.72 304.498 40.72ZM316.793 40.72C318.133 40.72 319.053 40.1 319.473 39.44L318.893 37.72C318.633 38.32 318.033 39.04 317.173 39.04C316.413 39.04 315.833 38.74 315.833 37.5V32.18H319.013V30.82H315.833V28.3L314.093 29.58V30.82H312.533V32.18H314.093V38.02C314.093 39.68 315.213 40.72 316.793 40.72ZM323.13 40.5V35.02C323.13 33.4 323.81 32.1 325.67 32.1C327.31 32.1 327.81 32.98 327.81 34.24V40.5H329.53V33.82C329.53 31.76 328.35 30.62 326.45 30.62C324.55 30.62 323.51 31.9 323.13 33.4V27.1H321.39V40.5H323.13ZM336.393 40.7C338.493 40.7 339.833 39.72 340.553 38.56L339.493 37.36C339.113 38.2 338.333 39.26 336.393 39.26C334.673 39.26 333.533 38.1 333.433 36.06H340.613C340.653 35.88 340.693 35.58 340.693 35.28C340.693 32.44 339.033 30.62 336.293 30.62C333.633 30.62 331.753 32.6 331.753 35.66C331.753 38.74 333.653 40.7 336.393 40.7ZM336.293 32.08C337.913 32.08 338.953 33.02 339.133 34.8H333.473C333.693 33 334.733 32.08 336.293 32.08ZM72.2319 68.5V55.1H70.4919V68.5H72.2319ZM77.0473 68.7C79.0473 68.7 80.0873 67.26 80.4073 65.98V66.66C80.4073 68.02 81.1273 68.5 82.1273 68.5H83.2473V66.92H82.6273C82.2673 66.92 82.0873 66.78 82.0873 66.32V62.34C82.0873 60.04 80.8073 58.62 78.4273 58.62C76.2673 58.62 74.8273 59.84 74.2473 60.84L75.4273 62.06C75.9273 61 76.8473 60.2 78.2273 60.2C79.7473 60.2 80.2873 61.04 80.3473 62.18L76.8473 63.74C75.4673 64.36 74.4873 65.18 74.4873 66.48C74.4873 67.76 75.4073 68.7 77.0473 68.7ZM76.2473 66.2C76.2473 65.6 76.6673 65.2 77.5873 64.76L80.4073 63.44V64.78C80.4073 66.18 79.2473 67.26 77.6073 67.26C76.7073 67.26 76.2473 66.86 76.2473 66.2ZM87.2022 68.5V63.02C87.2022 61.4 87.8822 60.1 89.7422 60.1C91.3822 60.1 91.8822 60.98 91.8822 62.24V68.5H93.6022V61.82C93.6022 59.76 92.4222 58.62 90.5222 58.62C88.6222 58.62 87.5822 59.9 87.2022 61.4V58.82H85.4622V68.5H87.2022ZM100.048 65.54C102.328 65.54 103.868 64.1 103.868 62.08C103.868 60.88 103.308 59.86 102.388 59.26L104.168 57.26L102.368 56.62L101.768 58.94C101.268 58.74 100.688 58.62 100.048 58.62C97.7677 58.62 96.2277 60.06 96.2277 62.08C96.2277 63.3 96.7877 64.32 97.7477 64.92C96.8077 65.68 96.2277 66.52 96.2277 67.28C96.2277 67.92 96.5477 68.38 97.1677 68.58C96.4277 68.88 95.6077 69.42 95.6077 70.32C95.6077 71.6 97.1677 72.42 99.6477 72.42C102.908 72.42 104.708 71.12 104.708 69.28C104.708 67.82 103.608 67.12 101.848 67.12H98.9277C97.9277 67.12 97.6477 66.86 97.6477 66.34C97.6477 65.92 97.9277 65.46 98.1677 65.14C98.7077 65.4 99.3477 65.54 100.048 65.54ZM100.048 64.2C98.8477 64.2 97.9077 63.4 97.9077 62.08C97.9077 60.76 98.8477 59.96 100.048 59.96C101.268 59.96 102.188 60.76 102.188 62.08C102.188 63.4 101.268 64.2 100.048 64.2ZM99.6477 71.04C97.9077 71.04 97.0077 70.56 97.0077 69.78C97.0077 69.32 97.3477 68.9 97.6677 68.62H101.628C102.608 68.62 103.088 68.9 103.088 69.52C103.088 70.48 101.848 71.04 99.6477 71.04ZM109.527 68.7C111.467 68.7 112.507 67.38 112.867 65.86V68.5H114.587V58.82H112.867V64.32C112.867 65.92 112.187 67.24 110.307 67.24C108.667 67.24 108.167 66.34 108.167 65.1V58.82H106.447V65.52C106.447 67.56 107.627 68.7 109.527 68.7ZM119.468 68.7C121.468 68.7 122.508 67.26 122.828 65.98V66.66C122.828 68.02 123.548 68.5 124.548 68.5H125.668V66.92H125.048C124.688 66.92 124.508 66.78 124.508 66.32V62.34C124.508 60.04 123.228 58.62 120.848 58.62C118.688 58.62 117.248 59.84 116.668 60.84L117.848 62.06C118.348 61 119.268 60.2 120.648 60.2C122.168 60.2 122.708 61.04 122.768 62.18L119.268 63.74C117.888 64.36 116.908 65.18 116.908 66.48C116.908 67.76 117.828 68.7 119.468 68.7ZM118.668 66.2C118.668 65.6 119.088 65.2 120.008 64.76L122.828 63.44V64.78C122.828 66.18 121.668 67.26 120.028 67.26C119.128 67.26 118.668 66.86 118.668 66.2ZM131.546 65.54C133.826 65.54 135.366 64.1 135.366 62.08C135.366 60.88 134.806 59.86 133.886 59.26L135.666 57.26L133.866 56.62L133.266 58.94C132.766 58.74 132.186 58.62 131.546 58.62C129.266 58.62 127.726 60.06 127.726 62.08C127.726 63.3 128.286 64.32 129.246 64.92C128.306 65.68 127.726 66.52 127.726 67.28C127.726 67.92 128.046 68.38 128.666 68.58C127.926 68.88 127.106 69.42 127.106 70.32C127.106 71.6 128.666 72.42 131.146 72.42C134.406 72.42 136.206 71.12 136.206 69.28C136.206 67.82 135.106 67.12 133.346 67.12H130.426C129.426 67.12 129.146 66.86 129.146 66.34C129.146 65.92 129.426 65.46 129.666 65.14C130.206 65.4 130.846 65.54 131.546 65.54ZM131.546 64.2C130.346 64.2 129.406 63.4 129.406 62.08C129.406 60.76 130.346 59.96 131.546 59.96C132.766 59.96 133.686 60.76 133.686 62.08C133.686 63.4 132.766 64.2 131.546 64.2ZM131.146 71.04C129.406 71.04 128.506 70.56 128.506 69.78C128.506 69.32 128.846 68.9 129.166 68.62H133.126C134.106 68.62 134.586 68.9 134.586 69.52C134.586 70.48 133.346 71.04 131.146 71.04ZM142.028 68.7C144.128 68.7 145.468 67.72 146.188 66.56L145.128 65.36C144.748 66.2 143.968 67.26 142.028 67.26C140.308 67.26 139.168 66.1 139.068 64.06H146.248C146.288 63.88 146.328 63.58 146.328 63.28C146.328 60.44 144.668 58.62 141.928 58.62C139.268 58.62 137.388 60.6 137.388 63.66C137.388 66.74 139.288 68.7 142.028 68.7ZM141.928 60.08C143.548 60.08 144.588 61.02 144.768 62.8H139.108C139.328 61 140.368 60.08 141.928 60.08ZM155.106 68.5V55.1H153.366V68.5H155.106ZM162.042 68.7C164.142 68.7 165.482 67.72 166.202 66.56L165.142 65.36C164.762 66.2 163.982 67.26 162.042 67.26C160.322 67.26 159.182 66.1 159.082 64.06H166.262C166.302 63.88 166.342 63.58 166.342 63.28C166.342 60.44 164.682 58.62 161.942 58.62C159.282 58.62 157.402 60.6 157.402 63.66C157.402 66.74 159.302 68.7 162.042 68.7ZM161.942 60.08C163.562 60.08 164.602 61.02 164.782 62.8H159.122C159.342 61 160.382 60.08 161.942 60.08ZM170.805 68.7C172.805 68.7 173.845 67.26 174.165 65.98V66.66C174.165 68.02 174.885 68.5 175.885 68.5H177.005V66.92H176.385C176.025 66.92 175.845 66.78 175.845 66.32V62.34C175.845 60.04 174.565 58.62 172.185 58.62C170.025 58.62 168.585 59.84 168.005 60.84L169.185 62.06C169.685 61 170.605 60.2 171.985 60.2C173.505 60.2 174.045 61.04 174.105 62.18L170.605 63.74C169.225 64.36 168.245 65.18 168.245 66.48C168.245 67.76 169.165 68.7 170.805 68.7ZM170.005 66.2C170.005 65.6 170.425 65.2 171.345 64.76L174.165 63.44V64.78C174.165 66.18 173.005 67.26 171.365 67.26C170.465 67.26 170.005 66.86 170.005 66.2ZM180.96 68.5V63.02C180.96 61.36 182.08 59.9 183.32 59.9C184.02 59.9 184.32 60.38 184.32 60.94C184.32 61.48 184.06 62.08 183.74 62.36H185.64C185.8 62.12 186.02 61.52 186.02 60.7C186.02 59.34 185.02 58.6 183.98 58.6C182.34 58.6 181.34 59.9 180.96 61.4V58.82H179.22V68.5H180.96ZM189.48 68.5V63.02C189.48 61.4 190.16 60.1 192.02 60.1C193.66 60.1 194.16 60.98 194.16 62.24V68.5H195.88V61.82C195.88 59.76 194.7 58.62 192.8 58.62C190.9 58.62 189.86 59.9 189.48 61.4V58.82H187.74V68.5H189.48ZM200.403 57.26V55.1H198.663V57.26H200.403ZM200.403 68.5V58.82H198.663V68.5H200.403ZM204.958 68.5V63.02C204.958 61.4 205.638 60.1 207.498 60.1C209.138 60.1 209.638 60.98 209.638 62.24V68.5H211.358V61.82C211.358 59.76 210.178 58.62 208.278 58.62C206.378 58.62 205.338 59.9 204.958 61.4V58.82H203.218V68.5H204.958ZM217.804 65.54C220.084 65.54 221.624 64.1 221.624 62.08C221.624 60.88 221.064 59.86 220.144 59.26L221.924 57.26L220.124 56.62L219.524 58.94C219.024 58.74 218.444 58.62 217.804 58.62C215.524 58.62 213.984 60.06 213.984 62.08C213.984 63.3 214.544 64.32 215.504 64.92C214.564 65.68 213.984 66.52 213.984 67.28C213.984 67.92 214.304 68.38 214.924 68.58C214.184 68.88 213.364 69.42 213.364 70.32C213.364 71.6 214.924 72.42 217.404 72.42C220.664 72.42 222.464 71.12 222.464 69.28C222.464 67.82 221.364 67.12 219.604 67.12H216.684C215.684 67.12 215.404 66.86 215.404 66.34C215.404 65.92 215.684 65.46 215.924 65.14C216.464 65.4 217.104 65.54 217.804 65.54ZM217.804 64.2C216.604 64.2 215.664 63.4 215.664 62.08C215.664 60.76 216.604 59.96 217.804 59.96C219.024 59.96 219.944 60.76 219.944 62.08C219.944 63.4 219.024 64.2 217.804 64.2ZM217.404 71.04C215.664 71.04 214.764 70.56 214.764 69.78C214.764 69.32 215.104 68.9 215.424 68.62H219.384C220.364 68.62 220.844 68.9 220.844 69.52C220.844 70.48 219.604 71.04 217.404 71.04ZM230.936 68.7C232.936 68.7 233.976 67.26 234.296 65.98V66.66C234.296 68.02 235.016 68.5 236.016 68.5H237.136V66.92H236.516C236.156 66.92 235.976 66.78 235.976 66.32V62.34C235.976 60.04 234.696 58.62 232.316 58.62C230.156 58.62 228.716 59.84 228.136 60.84L229.316 62.06C229.816 61 230.736 60.2 232.116 60.2C233.636 60.2 234.176 61.04 234.236 62.18L230.736 63.74C229.356 64.36 228.376 65.18 228.376 66.48C228.376 67.76 229.296 68.7 230.936 68.7ZM230.136 66.2C230.136 65.6 230.556 65.2 231.476 64.76L234.296 63.44V64.78C234.296 66.18 233.136 67.26 231.496 67.26C230.596 67.26 230.136 66.86 230.136 66.2ZM241.09 72.22V66C241.43 67.46 242.35 68.7 244.21 68.7C246.65 68.7 248.17 66.7 248.17 63.64C248.17 60.58 246.65 58.6 244.21 58.6C242.35 58.6 241.43 59.84 241.09 61.3V58.82H239.35V72.22H241.09ZM241.09 64.34V62.96C241.09 61.36 241.77 60.06 243.61 60.06C245.15 60.06 246.41 61.18 246.41 63.64C246.41 66.12 245.15 67.24 243.61 67.24C241.77 67.24 241.09 65.94 241.09 64.34ZM252.208 72.22V66C252.548 67.46 253.468 68.7 255.328 68.7C257.768 68.7 259.288 66.7 259.288 63.64C259.288 60.58 257.768 58.6 255.328 58.6C253.468 58.6 252.548 59.84 252.208 61.3V58.82H250.468V72.22H252.208ZM252.208 64.34V62.96C252.208 61.36 252.888 60.06 254.728 60.06C256.268 60.06 257.528 61.18 257.528 63.64C257.528 66.12 256.268 67.24 254.728 67.24C252.888 67.24 252.208 65.94 252.208 64.34ZM267.621 71.66C268.981 71.66 270.061 71.08 270.681 69.3L274.401 58.82H272.541L270.481 65.04L269.801 67.12L269.121 65.04L267.041 58.82H265.181L268.441 67.98L269.521 67.96L269.321 68.58C268.941 69.76 268.421 70.14 267.641 70.14C266.721 70.14 266.221 69.56 265.761 68.78L264.821 70.1C265.241 70.9 266.241 71.66 267.621 71.66ZM279.597 68.7C282.277 68.7 284.177 66.72 284.177 63.66C284.177 60.6 282.277 58.62 279.597 58.62C276.917 58.62 275.037 60.6 275.037 63.66C275.037 66.72 276.917 68.7 279.597 68.7ZM279.597 67.24C277.957 67.24 276.817 66.1 276.817 63.66C276.817 61.2 277.957 60.08 279.597 60.08C281.257 60.08 282.417 61.2 282.417 63.66C282.417 66.1 281.257 67.24 279.597 67.24ZM289.581 68.7C291.521 68.7 292.561 67.38 292.921 65.86V68.5H294.641V58.82H292.921V64.32C292.921 65.92 292.241 67.24 290.361 67.24C288.721 67.24 288.221 66.34 288.221 65.1V58.82H286.501V65.52C286.501 67.56 287.681 68.7 289.581 68.7ZM305.099 68.7C307.039 68.7 308.079 67.38 308.439 65.86V68.5H310.159V58.82H308.439V64.32C308.439 65.92 307.759 67.24 305.879 67.24C304.239 67.24 303.739 66.34 303.739 65.1V58.82H302.019V65.52C302.019 67.56 303.199 68.7 305.099 68.7ZM316.468 68.7C318.348 68.7 319.988 67.84 319.988 65.92C319.988 64.58 319.268 63.68 317.088 63.16L315.848 62.84C314.528 62.52 313.888 62.22 313.888 61.36C313.888 60.54 314.608 60.1 315.608 60.1C316.988 60.1 317.908 60.82 318.388 61.96L319.708 60.98C319.168 59.7 317.748 58.62 315.708 58.62C313.608 58.62 312.248 59.7 312.248 61.46C312.248 63.24 313.748 63.9 315.128 64.22L316.408 64.52C317.548 64.78 318.428 65.06 318.428 65.94C318.428 66.8 317.668 67.24 316.528 67.24C314.608 67.24 313.548 66.14 313.208 65.04L311.948 66.02C312.608 67.82 314.448 68.7 316.468 68.7ZM326.13 68.7C328.23 68.7 329.57 67.72 330.29 66.56L329.23 65.36C328.85 66.2 328.07 67.26 326.13 67.26C324.41 67.26 323.27 66.1 323.17 64.06H330.35C330.39 63.88 330.43 63.58 330.43 63.28C330.43 60.44 328.77 58.62 326.03 58.62C323.37 58.62 321.49 60.6 321.49 63.66C321.49 66.74 323.39 68.7 326.13 68.7ZM326.03 60.08C327.65 60.08 328.69 61.02 328.87 62.8H323.21C323.43 61 324.47 60.08 326.03 60.08ZM336.45 68.74C338.31 68.74 339.23 67.5 339.57 66.02V68.5H341.31V55.1H339.57V61.34C339.23 59.86 338.31 58.62 336.45 58.62C334.01 58.62 332.49 60.62 332.49 63.68C332.49 66.74 334.01 68.74 336.45 68.74ZM334.25 63.68C334.25 61.22 335.51 60.1 337.03 60.1C338.89 60.1 339.57 61.4 339.57 63V64.38C339.57 65.98 338.89 67.28 337.03 67.28C335.51 67.28 334.25 66.16 334.25 63.68ZM348.208 64.44V63.96C348.208 61.34 352.048 61.36 352.048 58.22C352.048 55.9 350.408 54.9 348.048 54.9C344.968 54.9 343.108 56.84 343.628 59.46L345.228 60.48C344.668 57.84 345.888 56.54 347.928 56.54C349.468 56.54 350.168 57.26 350.168 58.3C350.168 60.64 346.568 60.56 346.568 63.76V64.44H348.208ZM348.428 68.5V65.9H346.328V68.5H348.428Z"/><rect width="153" height="117" y="109" fill="#27AE60" rx="16"/><path fill="#fff" d="M15.934 148V140.152L15.844 138.55L16.924 140.152L22.45 148H23.854V135.94H22.288V143.644L22.378 145.48L21.136 143.608L15.754 135.94H14.368V148H15.934ZM30.0065 148.18C32.4185 148.18 34.1285 146.398 34.1285 143.644C34.1285 140.89 32.4185 139.108 30.0065 139.108C27.5945 139.108 25.9025 140.89 25.9025 143.644C25.9025 146.398 27.5945 148.18 30.0065 148.18ZM30.0065 146.866C28.5305 146.866 27.5045 145.84 27.5045 143.644C27.5045 141.43 28.5305 140.422 30.0065 140.422C31.5005 140.422 32.5445 141.43 32.5445 143.644C32.5445 145.84 31.5005 146.866 30.0065 146.866ZM39.0499 148.198C40.2559 148.198 41.0839 147.64 41.4619 147.046L40.9399 145.498C40.7059 146.038 40.1659 146.686 39.3919 146.686C38.7079 146.686 38.1859 146.416 38.1859 145.3V140.512H41.0479V139.288H38.1859V137.02L36.6199 138.172V139.288H35.2159V140.512H36.6199V145.768C36.6199 147.262 37.6279 148.198 39.0499 148.198ZM50.907 148.18C52.797 148.18 54.003 147.298 54.651 146.254L53.697 145.174C53.355 145.93 52.653 146.884 50.907 146.884C49.359 146.884 48.333 145.84 48.243 144.004H54.705C54.741 143.842 54.777 143.572 54.777 143.302C54.777 140.746 53.283 139.108 50.817 139.108C48.423 139.108 46.731 140.89 46.731 143.644C46.731 146.416 48.441 148.18 50.907 148.18ZM50.817 140.422C52.275 140.422 53.211 141.268 53.373 142.87H48.279C48.477 141.25 49.413 140.422 50.817 140.422ZM58.5075 148V143.068C58.5075 141.61 59.1195 140.44 60.7935 140.44C62.2695 140.44 62.7195 141.232 62.7195 142.366V148H64.2675V141.988C64.2675 140.134 63.2055 139.108 61.4955 139.108C59.7855 139.108 58.8495 140.26 58.5075 141.61V139.288H56.9415V148H58.5075ZM70.2288 148.18C72.6408 148.18 74.3508 146.398 74.3508 143.644C74.3508 140.89 72.6408 139.108 70.2288 139.108C67.8168 139.108 66.1248 140.89 66.1248 143.644C66.1248 146.398 67.8168 148.18 70.2288 148.18ZM70.2288 146.866C68.7528 146.866 67.7268 145.84 67.7268 143.644C67.7268 141.43 68.7528 140.422 70.2288 140.422C71.7228 140.422 72.7668 141.43 72.7668 143.644C72.7668 145.84 71.7228 146.866 70.2288 146.866ZM79.2148 148.18C80.9608 148.18 81.8968 146.992 82.2208 145.624V148H83.7688V139.288H82.2208V144.238C82.2208 145.678 81.6088 146.866 79.9168 146.866C78.4408 146.866 77.9908 146.056 77.9908 144.94V139.288H76.4428V145.318C76.4428 147.154 77.5048 148.18 79.2148 148.18ZM89.6238 145.336C91.6758 145.336 93.0618 144.04 93.0618 142.222C93.0618 141.142 92.5578 140.224 91.7298 139.684L93.3318 137.884L91.7118 137.308L91.1718 139.396C90.7218 139.216 90.1998 139.108 89.6238 139.108C87.5718 139.108 86.1858 140.404 86.1858 142.222C86.1858 143.32 86.6898 144.238 87.5538 144.778C86.7078 145.462 86.1858 146.218 86.1858 146.902C86.1858 147.478 86.4738 147.892 87.0318 148.072C86.3658 148.342 85.6278 148.828 85.6278 149.638C85.6278 150.79 87.0318 151.528 89.2638 151.528C92.1978 151.528 93.8178 150.358 93.8178 148.702C93.8178 147.388 92.8278 146.758 91.2438 146.758H88.6158C87.7158 146.758 87.4638 146.524 87.4638 146.056C87.4638 145.678 87.7158 145.264 87.9318 144.976C88.4178 145.21 88.9938 145.336 89.6238 145.336ZM89.6238 144.13C88.5438 144.13 87.6978 143.41 87.6978 142.222C87.6978 141.034 88.5438 140.314 89.6238 140.314C90.7218 140.314 91.5498 141.034 91.5498 142.222C91.5498 143.41 90.7218 144.13 89.6238 144.13ZM89.2638 150.286C87.6978 150.286 86.8878 149.854 86.8878 149.152C86.8878 148.738 87.1938 148.36 87.4818 148.108H91.0458C91.9278 148.108 92.3598 148.36 92.3598 148.918C92.3598 149.782 91.2438 150.286 89.2638 150.286ZM97.0732 148V143.068C97.0732 141.61 97.6852 140.44 99.3592 140.44C100.835 140.44 101.285 141.232 101.285 142.366V148H102.833V141.988C102.833 140.134 101.771 139.108 100.061 139.108C98.3512 139.108 97.4152 140.26 97.0732 141.61V135.94H95.5072V148H97.0732ZM15.754 162.884V160.94H14.188V162.884H15.754ZM15.754 173V164.288H14.188V173H15.754ZM19.8539 173V168.068C19.8539 166.61 20.4659 165.44 22.1399 165.44C23.6159 165.44 24.0659 166.232 24.0659 167.366V173H25.6139V166.988C25.6139 165.134 24.5519 164.108 22.8419 164.108C21.1319 164.108 20.1959 165.26 19.8539 166.61V164.288H18.2879V173H19.8539ZM30.7882 173.198C31.9942 173.198 32.8222 172.64 33.2002 172.046L32.6782 170.498C32.4442 171.038 31.9042 171.686 31.1302 171.686C30.4462 171.686 29.9242 171.416 29.9242 170.3V165.512H32.7862V164.288H29.9242V162.02L28.3582 163.172V164.288H26.9542V165.512H28.3582V170.768C28.3582 172.262 29.3662 173.198 30.7882 173.198ZM38.018 173.18C39.908 173.18 41.114 172.298 41.762 171.254L40.808 170.174C40.466 170.93 39.764 171.884 38.018 171.884C36.47 171.884 35.444 170.84 35.354 169.004H41.816C41.852 168.842 41.888 168.572 41.888 168.302C41.888 165.746 40.394 164.108 37.928 164.108C35.534 164.108 33.842 165.89 33.842 168.644C33.842 171.416 35.552 173.18 38.018 173.18ZM37.928 165.422C39.386 165.422 40.322 166.268 40.484 167.87H35.39C35.588 166.25 36.524 165.422 37.928 165.422ZM45.6185 173V168.068C45.6185 166.574 46.6265 165.26 47.7425 165.26C48.3725 165.26 48.6425 165.692 48.6425 166.196C48.6425 166.682 48.4085 167.222 48.1205 167.474H49.8305C49.9745 167.258 50.1725 166.718 50.1725 165.98C50.1725 164.756 49.2725 164.09 48.3365 164.09C46.8605 164.09 45.9605 165.26 45.6185 166.61V164.288H44.0525V173H45.6185ZM53.5384 173.18C55.3384 173.18 56.2744 171.884 56.5624 170.732V171.344C56.5624 172.568 57.2104 173 58.1104 173H59.1184V171.578H58.5604C58.2364 171.578 58.0744 171.452 58.0744 171.038V167.456C58.0744 165.386 56.9224 164.108 54.7804 164.108C52.8364 164.108 51.5404 165.206 51.0184 166.106L52.0804 167.204C52.5304 166.25 53.3584 165.53 54.6004 165.53C55.9684 165.53 56.4544 166.286 56.5084 167.312L53.3584 168.716C52.1164 169.274 51.2344 170.012 51.2344 171.182C51.2344 172.334 52.0624 173.18 53.5384 173.18ZM52.8184 170.93C52.8184 170.39 53.1964 170.03 54.0244 169.634L56.5624 168.446V169.652C56.5624 170.912 55.5184 171.884 54.0424 171.884C53.2324 171.884 52.8184 171.524 52.8184 170.93ZM64.6946 173.18C66.9626 173.18 68.2946 171.866 68.7086 170.12L67.1786 169.49C66.9986 170.876 66.2786 171.884 64.7126 171.884C63.1286 171.884 62.1746 170.696 62.1746 168.644C62.1746 166.592 63.1286 165.422 64.7126 165.422C66.2786 165.422 66.9986 166.412 67.1786 167.798L68.7086 167.168C68.2946 165.422 66.9626 164.108 64.6946 164.108C62.1926 164.108 60.5906 165.89 60.5906 168.644C60.5906 171.416 62.1926 173.18 64.6946 173.18ZM73.5417 173.198C74.7477 173.198 75.5757 172.64 75.9537 172.046L75.4317 170.498C75.1977 171.038 74.6577 171.686 73.8837 171.686C73.1997 171.686 72.6777 171.416 72.6777 170.3V165.512H75.5397V164.288H72.6777V162.02L71.1117 163.172V164.288H69.7077V165.512H71.1117V170.768C71.1117 172.262 72.1197 173.198 73.5417 173.198ZM79.2448 162.884V160.94H77.6788V162.884H79.2448ZM79.2448 173V164.288H77.6788V173H79.2448ZM85.2707 173.18C87.6827 173.18 89.3927 171.398 89.3927 168.644C89.3927 165.89 87.6827 164.108 85.2707 164.108C82.8587 164.108 81.1667 165.89 81.1667 168.644C81.1667 171.398 82.8587 173.18 85.2707 173.18ZM85.2707 171.866C83.7947 171.866 82.7687 170.84 82.7687 168.644C82.7687 166.43 83.7947 165.422 85.2707 165.422C86.7647 165.422 87.8087 166.43 87.8087 168.644C87.8087 170.84 86.7647 171.866 85.2707 171.866ZM93.1048 173V168.068C93.1048 166.61 93.7168 165.44 95.3908 165.44C96.8668 165.44 97.3168 166.232 97.3168 167.366V173H98.8648V166.988C98.8648 165.134 97.8028 164.108 96.0928 164.108C94.3828 164.108 93.4468 165.26 93.1048 166.61V164.288H91.5388V173H93.1048ZM108.816 173L110.31 167.906L110.904 165.584L111.462 167.906L112.956 173H115.008L117.258 164.288H115.512L114.396 169.652L113.982 171.866L113.424 169.652L111.858 164.288H109.932L108.348 169.652L107.808 171.866L107.394 169.652L106.26 164.288H104.514L106.782 173H108.816ZM120.399 162.884V160.94H118.833V162.884H120.399ZM120.399 173V164.288H118.833V173H120.399ZM125.849 173.198C127.055 173.198 127.883 172.64 128.261 172.046L127.739 170.498C127.505 171.038 126.965 171.686 126.191 171.686C125.507 171.686 124.985 171.416 124.985 170.3V165.512H127.847V164.288H124.985V162.02L123.419 163.172V164.288H122.015V165.512H123.419V170.768C123.419 172.262 124.427 173.198 125.849 173.198ZM131.552 173V168.068C131.552 166.61 132.164 165.44 133.838 165.44C135.314 165.44 135.764 166.232 135.764 167.366V173H137.312V166.988C137.312 165.134 136.25 164.108 134.54 164.108C132.83 164.108 131.894 165.26 131.552 166.61V160.94H129.986V173H131.552ZM17.68 198.18C20.092 198.18 21.802 196.398 21.802 193.644C21.802 190.89 20.092 189.108 17.68 189.108C15.268 189.108 13.576 190.89 13.576 193.644C13.576 196.398 15.268 198.18 17.68 198.18ZM17.68 196.866C16.204 196.866 15.178 195.84 15.178 193.644C15.178 191.43 16.204 190.422 17.68 190.422C19.174 190.422 20.218 191.43 20.218 193.644C20.218 195.84 19.174 196.866 17.68 196.866ZM26.7235 198.198C27.9295 198.198 28.7575 197.64 29.1355 197.046L28.6135 195.498C28.3795 196.038 27.8395 196.686 27.0655 196.686C26.3815 196.686 25.8595 196.416 25.8595 195.3V190.512H28.7215V189.288H25.8595V187.02L24.2935 188.172V189.288H22.8895V190.512H24.2935V195.768C24.2935 197.262 25.3015 198.198 26.7235 198.198ZM32.4265 198V193.068C32.4265 191.61 33.0385 190.44 34.7125 190.44C36.1885 190.44 36.6385 191.232 36.6385 192.366V198H38.1865V191.988C38.1865 190.134 37.1245 189.108 35.4145 189.108C33.7045 189.108 32.7685 190.26 32.4265 191.61V185.94H30.8605V198H32.4265ZM44.3637 198.18C46.2537 198.18 47.4597 197.298 48.1077 196.254L47.1537 195.174C46.8117 195.93 46.1097 196.884 44.3637 196.884C42.8157 196.884 41.7897 195.84 41.6997 194.004H48.1617C48.1977 193.842 48.2337 193.572 48.2337 193.302C48.2337 190.746 46.7397 189.108 44.2737 189.108C41.8797 189.108 40.1877 190.89 40.1877 193.644C40.1877 196.416 41.8977 198.18 44.3637 198.18ZM44.2737 190.422C45.7317 190.422 46.6677 191.268 46.8297 192.87H41.7357C41.9337 191.25 42.8697 190.422 44.2737 190.422ZM51.9642 198V193.068C51.9642 191.574 52.9722 190.26 54.0882 190.26C54.7182 190.26 54.9882 190.692 54.9882 191.196C54.9882 191.682 54.7542 192.222 54.4662 192.474H56.1762C56.3202 192.258 56.5182 191.718 56.5182 190.98C56.5182 189.756 55.6182 189.09 54.6822 189.09C53.2062 189.09 52.3062 190.26 51.9642 191.61V189.288H50.3982V198H51.9642ZM65.0251 198.18C66.7711 198.18 67.7071 196.992 68.0311 195.624V198H69.5791V189.288H68.0311V194.238C68.0311 195.678 67.4191 196.866 65.7271 196.866C64.2511 196.866 63.8011 196.056 63.8011 194.94V189.288H62.2531V195.318C62.2531 197.154 63.3151 198.18 65.0251 198.18ZM75.2578 198.18C76.9498 198.18 78.4258 197.406 78.4258 195.678C78.4258 194.472 77.7778 193.662 75.8158 193.194L74.6998 192.906C73.5118 192.618 72.9358 192.348 72.9358 191.574C72.9358 190.836 73.5838 190.44 74.4838 190.44C75.7258 190.44 76.5538 191.088 76.9858 192.114L78.1738 191.232C77.6878 190.08 76.4098 189.108 74.5738 189.108C72.6838 189.108 71.4598 190.08 71.4598 191.664C71.4598 193.266 72.8098 193.86 74.0518 194.148L75.2038 194.418C76.2298 194.652 77.0218 194.904 77.0218 195.696C77.0218 196.47 76.3378 196.866 75.3118 196.866C73.5838 196.866 72.6298 195.876 72.3238 194.886L71.1898 195.768C71.7838 197.388 73.4398 198.18 75.2578 198.18ZM83.9532 198.18C85.8432 198.18 87.0492 197.298 87.6972 196.254L86.7432 195.174C86.4012 195.93 85.6992 196.884 83.9532 196.884C82.4052 196.884 81.3792 195.84 81.2892 194.004H87.7512C87.7872 193.842 87.8232 193.572 87.8232 193.302C87.8232 190.746 86.3292 189.108 83.8632 189.108C81.4692 189.108 79.7772 190.89 79.7772 193.644C79.7772 196.416 81.4872 198.18 83.9532 198.18ZM83.8632 190.422C85.3212 190.422 86.2572 191.268 86.4192 192.87H81.3252C81.5232 191.25 82.4592 190.422 83.8632 190.422ZM91.5537 198V193.068C91.5537 191.574 92.5617 190.26 93.6777 190.26C94.3077 190.26 94.5777 190.692 94.5777 191.196C94.5777 191.682 94.3437 192.222 94.0557 192.474H95.7657C95.9097 192.258 96.1077 191.718 96.1077 190.98C96.1077 189.756 95.2077 189.09 94.2717 189.09C92.7957 189.09 91.8957 190.26 91.5537 191.61V189.288H89.9877V198H91.5537ZM100.917 198.18C102.609 198.18 104.085 197.406 104.085 195.678C104.085 194.472 103.437 193.662 101.475 193.194L100.359 192.906C99.1709 192.618 98.5949 192.348 98.5949 191.574C98.5949 190.836 99.2429 190.44 100.143 190.44C101.385 190.44 102.213 191.088 102.645 192.114L103.833 191.232C103.347 190.08 102.069 189.108 100.233 189.108C98.3429 189.108 97.1189 190.08 97.1189 191.664C97.1189 193.266 98.4689 193.86 99.7109 194.148L100.863 194.418C101.889 194.652 102.681 194.904 102.681 195.696C102.681 196.47 101.997 196.866 100.971 196.866C99.2429 196.866 98.2889 195.876 97.9829 194.886L96.8489 195.768C97.4429 197.388 99.0989 198.18 100.917 198.18Z"/><rect width="153" height="117" x="169" y="109" fill="#27AE60" rx="16"/><path fill="#fff" d="M195.317 147.629C198.089 147.629 199.637 145.505 199.727 142.823L200.213 147.485H201.185V141.437H195.857V142.823H199.547C199.097 144.857 198.179 146.153 195.857 146.153C193.247 146.153 192.041 144.191 192.041 141.437C192.041 138.683 193.283 136.721 196.019 136.721C198.143 136.721 199.331 138.017 199.745 139.727L201.149 138.809C200.339 136.523 198.521 135.245 196.001 135.245C192.365 135.245 190.385 137.909 190.385 141.437C190.385 145.091 192.095 147.629 195.317 147.629ZM207.229 147.665C209.641 147.665 211.351 145.883 211.351 143.129C211.351 140.375 209.641 138.593 207.229 138.593C204.817 138.593 203.125 140.375 203.125 143.129C203.125 145.883 204.817 147.665 207.229 147.665ZM207.229 146.351C205.753 146.351 204.727 145.325 204.727 143.129C204.727 140.915 205.753 139.907 207.229 139.907C208.723 139.907 209.767 140.915 209.767 143.129C209.767 145.325 208.723 146.351 207.229 146.351ZM216.273 147.683C217.479 147.683 218.307 147.125 218.685 146.531L218.163 144.983C217.929 145.523 217.389 146.171 216.615 146.171C215.931 146.171 215.409 145.901 215.409 144.785V139.997H218.271V138.773H215.409V136.505L213.843 137.657V138.773H212.439V139.997H213.843V145.253C213.843 146.747 214.851 147.683 216.273 147.683ZM225.988 147.485V145.253C226.294 146.585 227.122 147.701 228.796 147.701C231.01 147.701 232.378 145.901 232.378 143.147C232.378 140.393 231.01 138.593 228.796 138.593C227.122 138.593 226.294 139.709 225.988 141.041V135.425H224.422V147.485H225.988ZM225.988 143.777V142.535C225.988 141.095 226.6 139.925 228.256 139.925C229.66 139.925 230.794 140.933 230.794 143.147C230.794 145.379 229.66 146.387 228.256 146.387C226.6 146.387 225.988 145.217 225.988 143.777ZM238.078 147.665C240.49 147.665 242.2 145.883 242.2 143.129C242.2 140.375 240.49 138.593 238.078 138.593C235.666 138.593 233.974 140.375 233.974 143.129C233.974 145.883 235.666 147.665 238.078 147.665ZM238.078 146.351C236.602 146.351 235.576 145.325 235.576 143.129C235.576 140.915 236.602 139.907 238.078 139.907C239.572 139.907 240.616 140.915 240.616 143.129C240.616 145.325 239.572 146.351 238.078 146.351ZM245.912 147.485V142.553C245.912 141.059 246.92 139.745 248.036 139.745C248.666 139.745 248.936 140.177 248.936 140.681C248.936 141.167 248.702 141.707 248.414 141.959H250.124C250.268 141.743 250.466 141.203 250.466 140.465C250.466 139.241 249.566 138.575 248.63 138.575C247.154 138.575 246.254 139.745 245.912 141.095V138.773H244.346V147.485H245.912ZM255.6 147.665C257.49 147.665 258.696 146.783 259.344 145.739L258.39 144.659C258.048 145.415 257.346 146.369 255.6 146.369C254.052 146.369 253.026 145.325 252.936 143.489H259.398C259.434 143.327 259.47 143.057 259.47 142.787C259.47 140.231 257.976 138.593 255.51 138.593C253.116 138.593 251.424 140.375 251.424 143.129C251.424 145.901 253.134 147.665 255.6 147.665ZM255.51 139.907C256.968 139.907 257.904 140.753 258.066 142.355H252.972C253.17 140.735 254.106 139.907 255.51 139.907ZM264.888 147.701C266.562 147.701 267.39 146.585 267.696 145.253V147.485H269.262V135.425H267.696V141.041C267.39 139.709 266.562 138.593 264.888 138.593C262.692 138.593 261.324 140.393 261.324 143.147C261.324 145.901 262.692 147.701 264.888 147.701ZM262.908 143.147C262.908 140.933 264.042 139.925 265.41 139.925C267.084 139.925 267.696 141.095 267.696 142.535V143.777C267.696 145.217 267.084 146.387 265.41 146.387C264.042 146.387 262.908 145.379 262.908 143.147ZM192.473 172.665C194.273 172.665 195.209 171.369 195.497 170.217V170.829C195.497 172.053 196.145 172.485 197.045 172.485H198.053V171.063H197.495C197.171 171.063 197.009 170.937 197.009 170.523V166.941C197.009 164.871 195.857 163.593 193.715 163.593C191.771 163.593 190.475 164.691 189.953 165.591L191.015 166.689C191.465 165.735 192.293 165.015 193.535 165.015C194.903 165.015 195.389 165.771 195.443 166.797L192.293 168.201C191.051 168.759 190.169 169.497 190.169 170.667C190.169 171.819 190.997 172.665 192.473 172.665ZM191.753 170.415C191.753 169.875 192.131 169.515 192.959 169.119L195.497 167.931V169.137C195.497 170.397 194.453 171.369 192.977 171.369C192.167 171.369 191.753 171.009 191.753 170.415ZM202.05 172.485V164.997H205.416V170.253C205.416 171.747 206.406 172.683 207.828 172.683C209.034 172.683 209.862 172.125 210.24 171.531L209.718 169.983C209.484 170.523 208.944 171.171 208.17 171.171C207.486 171.171 206.964 170.901 206.964 169.785V164.997H209.826V163.773H206.964V161.505L205.416 162.657V163.773H202.05V162.945C202.05 161.901 202.41 161.541 203.112 161.541C203.742 161.541 204.282 161.901 204.534 162.333L205.38 161.217C205.11 160.803 204.354 160.245 203.13 160.245C201.564 160.245 200.484 161.217 200.484 162.963V163.773H199.062V164.997H200.484V172.485H202.05ZM215.079 172.665C216.969 172.665 218.175 171.783 218.823 170.739L217.869 169.659C217.527 170.415 216.825 171.369 215.079 171.369C213.531 171.369 212.505 170.325 212.415 168.489H218.877C218.913 168.327 218.949 168.057 218.949 167.787C218.949 165.231 217.455 163.593 214.989 163.593C212.595 163.593 210.903 165.375 210.903 168.129C210.903 170.901 212.613 172.665 215.079 172.665ZM214.989 164.907C216.447 164.907 217.383 165.753 217.545 167.355H212.451C212.649 165.735 213.585 164.907 214.989 164.907ZM222.679 172.485V167.553C222.679 166.059 223.687 164.745 224.803 164.745C225.433 164.745 225.703 165.177 225.703 165.681C225.703 166.167 225.469 166.707 225.181 166.959H226.891C227.035 166.743 227.233 166.203 227.233 165.465C227.233 164.241 226.333 163.575 225.397 163.575C223.921 163.575 223.021 164.745 222.679 166.095V163.773H221.113V172.485H222.679ZM234.822 172.665C236.622 172.665 237.558 171.369 237.846 170.217V170.829C237.846 172.053 238.494 172.485 239.394 172.485H240.402V171.063H239.844C239.52 171.063 239.358 170.937 239.358 170.523V166.941C239.358 164.871 238.206 163.593 236.064 163.593C234.12 163.593 232.824 164.691 232.302 165.591L233.364 166.689C233.814 165.735 234.642 165.015 235.884 165.015C237.252 165.015 237.738 165.771 237.792 166.797L234.642 168.201C233.4 168.759 232.518 169.497 232.518 170.667C232.518 171.819 233.346 172.665 234.822 172.665ZM234.102 170.415C234.102 169.875 234.48 169.515 235.308 169.119L237.846 167.931V169.137C237.846 170.397 236.802 171.369 235.326 171.369C234.516 171.369 234.102 171.009 234.102 170.415ZM249.842 172.485L251.336 167.391L251.93 165.069L252.488 167.391L253.982 172.485H256.034L258.284 163.773H256.538L255.422 169.137L255.008 171.351L254.45 169.137L252.884 163.773H250.958L249.374 169.137L248.834 171.351L248.42 169.137L247.286 163.773H245.54L247.808 172.485H249.842ZM261.425 172.485V167.553C261.425 166.095 262.037 164.925 263.711 164.925C265.187 164.925 265.637 165.717 265.637 166.851V172.485H267.185V166.473C267.185 164.619 266.123 163.593 264.413 163.593C262.703 163.593 261.767 164.745 261.425 166.095V160.425H259.859V172.485H261.425ZM271.255 162.369V160.425H269.689V162.369H271.255ZM271.255 172.485V163.773H269.689V172.485H271.255ZM275.355 172.485V160.425H273.789V172.485H275.355ZM281.597 172.665C283.487 172.665 284.693 171.783 285.341 170.739L284.387 169.659C284.045 170.415 283.343 171.369 281.597 171.369C280.049 171.369 279.023 170.325 278.933 168.489H285.395C285.431 168.327 285.467 168.057 285.467 167.787C285.467 165.231 283.973 163.593 281.507 163.593C279.113 163.593 277.421 165.375 277.421 168.129C277.421 170.901 279.131 172.665 281.597 172.665ZM281.507 164.907C282.965 164.907 283.901 165.753 284.063 167.355H278.969C279.167 165.735 280.103 164.907 281.507 164.907Z"/><rect width="152" height="117" x="338" y="109" fill="#27AE60" rx="16"/><path fill="#fff" d="M361.419 147.485V143.399H364.677C367.053 143.399 368.925 142.085 368.925 139.511C368.925 136.739 367.053 135.425 364.677 135.425H359.853V147.485H361.419ZM364.425 136.811C365.883 136.811 367.305 137.351 367.305 139.511C367.305 141.473 365.883 142.013 364.425 142.013H361.419V136.811H364.425ZM372.428 147.665C374.228 147.665 375.164 146.369 375.452 145.217V145.829C375.452 147.053 376.1 147.485 377 147.485H378.008V146.063H377.45C377.126 146.063 376.964 145.937 376.964 145.523V141.941C376.964 139.871 375.812 138.593 373.67 138.593C371.726 138.593 370.43 139.691 369.908 140.591L370.97 141.689C371.42 140.735 372.248 140.015 373.49 140.015C374.858 140.015 375.344 140.771 375.398 141.797L372.248 143.201C371.006 143.759 370.124 144.497 370.124 145.667C370.124 146.819 370.952 147.665 372.428 147.665ZM371.708 145.415C371.708 144.875 372.086 144.515 372.914 144.119L375.452 142.931V144.137C375.452 145.397 374.408 146.369 372.932 146.369C372.122 146.369 371.708 146.009 371.708 145.415ZM383.584 147.665C385.852 147.665 387.184 146.351 387.598 144.605L386.068 143.975C385.888 145.361 385.168 146.369 383.602 146.369C382.018 146.369 381.064 145.181 381.064 143.129C381.064 141.077 382.018 139.907 383.602 139.907C385.168 139.907 385.888 140.897 386.068 142.283L387.598 141.653C387.184 139.907 385.852 138.593 383.584 138.593C381.082 138.593 379.48 140.375 379.48 143.129C379.48 145.901 381.082 147.665 383.584 147.665ZM391.152 137.369V135.425H389.586V137.369H391.152ZM391.152 147.485V138.773H389.586V147.485H391.152ZM395.252 147.485V142.553C395.252 141.095 395.864 139.925 397.538 139.925C399.014 139.925 399.464 140.717 399.464 141.851V147.485H401.012V141.473C401.012 139.619 399.95 138.593 398.24 138.593C396.53 138.593 395.594 139.745 395.252 141.095V138.773H393.686V147.485H395.252ZM406.813 144.821C408.865 144.821 410.251 143.525 410.251 141.707C410.251 140.627 409.747 139.709 408.919 139.169L410.521 137.369L408.901 136.793L408.361 138.881C407.911 138.701 407.389 138.593 406.813 138.593C404.761 138.593 403.375 139.889 403.375 141.707C403.375 142.805 403.879 143.723 404.743 144.263C403.897 144.947 403.375 145.703 403.375 146.387C403.375 146.963 403.663 147.377 404.221 147.557C403.555 147.827 402.817 148.313 402.817 149.123C402.817 150.275 404.221 151.013 406.453 151.013C409.387 151.013 411.007 149.843 411.007 148.187C411.007 146.873 410.017 146.243 408.433 146.243H405.805C404.905 146.243 404.653 146.009 404.653 145.541C404.653 145.163 404.905 144.749 405.121 144.461C405.607 144.695 406.183 144.821 406.813 144.821ZM406.813 143.615C405.733 143.615 404.887 142.895 404.887 141.707C404.887 140.519 405.733 139.799 406.813 139.799C407.911 139.799 408.739 140.519 408.739 141.707C408.739 142.895 407.911 143.615 406.813 143.615ZM406.453 149.771C404.887 149.771 404.077 149.339 404.077 148.637C404.077 148.223 404.383 147.845 404.671 147.593H408.235C409.117 147.593 409.549 147.845 409.549 148.403C409.549 149.267 408.433 149.771 406.453 149.771ZM420.143 147.485L421.637 142.391L422.231 140.069L422.789 142.391L424.283 147.485H426.335L428.585 138.773H426.839L425.723 144.137L425.309 146.351L424.751 144.137L423.185 138.773H421.259L419.675 144.137L419.135 146.351L418.721 144.137L417.587 138.773H415.841L418.109 147.485H420.143ZM431.819 147.665C433.619 147.665 434.555 146.369 434.843 145.217V145.829C434.843 147.053 435.491 147.485 436.391 147.485H437.399V146.063H436.841C436.517 146.063 436.355 145.937 436.355 145.523V141.941C436.355 139.871 435.203 138.593 433.061 138.593C431.117 138.593 429.821 139.691 429.299 140.591L430.361 141.689C430.811 140.735 431.639 140.015 432.881 140.015C434.249 140.015 434.735 140.771 434.789 141.797L431.639 143.201C430.397 143.759 429.515 144.497 429.515 145.667C429.515 146.819 430.343 147.665 431.819 147.665ZM431.099 145.415C431.099 144.875 431.477 144.515 432.305 144.119L434.843 142.931V144.137C434.843 145.397 433.799 146.369 432.323 146.369C431.513 146.369 431.099 146.009 431.099 145.415ZM442.513 147.665C444.205 147.665 445.681 146.891 445.681 145.163C445.681 143.957 445.033 143.147 443.071 142.679L441.955 142.391C440.767 142.103 440.191 141.833 440.191 141.059C440.191 140.321 440.839 139.925 441.739 139.925C442.981 139.925 443.809 140.573 444.241 141.599L445.429 140.717C444.943 139.565 443.665 138.593 441.829 138.593C439.939 138.593 438.715 139.565 438.715 141.149C438.715 142.751 440.065 143.345 441.307 143.633L442.459 143.903C443.485 144.137 444.277 144.389 444.277 145.181C444.277 145.955 443.593 146.351 442.567 146.351C440.839 146.351 439.885 145.361 439.579 144.371L438.445 145.253C439.039 146.873 440.695 147.665 442.513 147.665ZM361.239 172.485V167.553C361.239 166.059 362.247 164.745 363.363 164.745C363.993 164.745 364.263 165.177 364.263 165.681C364.263 166.167 364.029 166.707 363.741 166.959H365.451C365.595 166.743 365.793 166.203 365.793 165.465C365.793 164.241 364.893 163.575 363.957 163.575C362.481 163.575 361.581 164.745 361.239 166.095V163.773H359.673V172.485H361.239ZM370.926 172.665C372.816 172.665 374.022 171.783 374.67 170.739L373.716 169.659C373.374 170.415 372.672 171.369 370.926 171.369C369.378 171.369 368.352 170.325 368.262 168.489H374.724C374.76 168.327 374.796 168.057 374.796 167.787C374.796 165.231 373.302 163.593 370.836 163.593C368.442 163.593 366.75 165.375 366.75 168.129C366.75 170.901 368.46 172.665 370.926 172.665ZM370.836 164.907C372.294 164.907 373.23 165.753 373.392 167.355H368.298C368.496 165.735 369.432 164.907 370.836 164.907ZM378.813 172.665C380.613 172.665 381.549 171.369 381.837 170.217V170.829C381.837 172.053 382.485 172.485 383.385 172.485H384.393V171.063H383.835C383.511 171.063 383.349 170.937 383.349 170.523V166.941C383.349 164.871 382.197 163.593 380.055 163.593C378.111 163.593 376.815 164.691 376.293 165.591L377.355 166.689C377.805 165.735 378.633 165.015 379.875 165.015C381.243 165.015 381.729 165.771 381.783 166.797L378.633 168.201C377.391 168.759 376.509 169.497 376.509 170.667C376.509 171.819 377.337 172.665 378.813 172.665ZM378.093 170.415C378.093 169.875 378.471 169.515 379.299 169.119L381.837 167.931V169.137C381.837 170.397 380.793 171.369 379.317 171.369C378.507 171.369 378.093 171.009 378.093 170.415ZM387.952 172.485V160.425H386.386V172.485H387.952ZM392.052 172.485V160.425H390.486V172.485H392.052ZM395.882 175.329C397.106 175.329 398.078 174.807 398.636 173.205L401.984 163.773H400.31L398.456 169.371L397.844 171.243L397.232 169.371L395.36 163.773H393.686L396.62 172.017L397.592 171.999L397.412 172.557C397.07 173.619 396.602 173.961 395.9 173.961C395.072 173.961 394.622 173.439 394.208 172.737L393.362 173.925C393.74 174.645 394.64 175.329 395.882 175.329ZM410.969 172.665C412.661 172.665 414.137 171.891 414.137 170.163C414.137 168.957 413.489 168.147 411.527 167.679L410.411 167.391C409.223 167.103 408.647 166.833 408.647 166.059C408.647 165.321 409.295 164.925 410.195 164.925C411.437 164.925 412.265 165.573 412.697 166.599L413.885 165.717C413.399 164.565 412.121 163.593 410.285 163.593C408.395 163.593 407.171 164.565 407.171 166.149C407.171 167.751 408.521 168.345 409.763 168.633L410.915 168.903C411.941 169.137 412.733 169.389 412.733 170.181C412.733 170.955 412.049 171.351 411.023 171.351C409.295 171.351 408.341 170.361 408.035 169.371L406.901 170.253C407.495 171.873 409.151 172.665 410.969 172.665ZM417.698 172.485V160.425H416.132V172.485H417.698ZM423.724 172.665C426.136 172.665 427.846 170.883 427.846 168.129C427.846 165.375 426.136 163.593 423.724 163.593C421.312 163.593 419.62 165.375 419.62 168.129C419.62 170.883 421.312 172.665 423.724 172.665ZM423.724 171.351C422.248 171.351 421.222 170.325 421.222 168.129C421.222 165.915 422.248 164.907 423.724 164.907C425.218 164.907 426.262 165.915 426.262 168.129C426.262 170.325 425.218 171.351 423.724 171.351ZM432.9 172.485L434.394 167.391L434.988 165.069L435.546 167.391L437.04 172.485H439.092L441.342 163.773H439.596L438.48 169.137L438.066 171.351L437.508 169.137L435.942 163.773H434.016L432.432 169.137L431.892 171.351L431.478 169.137L430.344 163.773H428.598L430.866 172.485H432.9ZM443.641 172.485V170.145H441.751V172.485H443.641Z"/></svg>