<svg xmlns="http://www.w3.org/2000/svg" width="491" height="263" fill="none" viewBox="0 0 491 263"><rect width="400" height="97" x="45.172" fill="#2342E5" rx="16"/><path fill="#fff" d="M75.1319 40.5L77.6119 31.8L78.4119 28.54L79.2319 31.8L81.6919 40.5H83.7119L87.4719 27.1H85.5119L83.4319 35.4L82.7519 38.88L81.9319 35.44L79.5519 27.1H77.3519L74.9319 35.44L74.0919 38.88L73.4319 35.4L71.3919 27.1H69.3919L73.1119 40.5H75.1319ZM90.9475 40.5V35.02C90.9475 33.4 91.6275 32.1 93.4875 32.1C95.1275 32.1 95.6275 32.98 95.6275 34.24V40.5H97.3475V33.82C97.3475 31.76 96.1675 30.62 94.2675 30.62C92.3675 30.62 91.3275 31.9 90.9475 33.4V27.1H89.2075V40.5H90.9475ZM102.169 40.7C104.169 40.7 105.209 39.26 105.529 37.98V38.66C105.529 40.02 106.249 40.5 107.249 40.5H108.369V38.92H107.749C107.389 38.92 107.209 38.78 107.209 38.32V34.34C107.209 32.04 105.929 30.62 103.549 30.62C101.389 30.62 99.9492 31.84 99.3692 32.84L100.549 34.06C101.049 33 101.969 32.2 103.349 32.2C104.869 32.2 105.409 33.04 105.469 34.18L101.969 35.74C100.589 36.36 99.6092 37.18 99.6092 38.48C99.6092 39.76 100.529 40.7 102.169 40.7ZM101.369 38.2C101.369 37.6 101.789 37.2 102.709 36.76L105.529 35.44V36.78C105.529 38.18 104.369 39.26 102.729 39.26C101.829 39.26 101.369 38.86 101.369 38.2ZM113.551 40.72C114.891 40.72 115.811 40.1 116.231 39.44L115.651 37.72C115.391 38.32 114.791 39.04 113.931 39.04C113.171 39.04 112.591 38.74 112.591 37.5V32.18H115.771V30.82H112.591V28.3L110.851 29.58V30.82H109.291V32.18H110.851V38.02C110.851 39.68 111.971 40.72 113.551 40.72ZM126.025 40.74C127.885 40.74 128.805 39.5 129.145 38.02V40.5H130.885V27.1H129.145V33.34C128.805 31.86 127.885 30.62 126.025 30.62C123.585 30.62 122.065 32.62 122.065 35.68C122.065 38.74 123.585 40.74 126.025 40.74ZM123.825 35.68C123.825 33.22 125.085 32.1 126.605 32.1C128.465 32.1 129.145 33.4 129.145 35V36.38C129.145 37.98 128.465 39.28 126.605 39.28C125.085 39.28 123.825 38.16 123.825 35.68ZM135.463 29.26V27.1H133.723V29.26H135.463ZM135.463 40.5V30.82H133.723V40.5H135.463ZM141.699 40.74C143.559 40.74 144.479 39.5 144.819 38.02V40.5H146.559V27.1H144.819V33.34C144.479 31.86 143.559 30.62 141.699 30.62C139.259 30.62 137.739 32.62 137.739 35.68C137.739 38.74 139.259 40.74 141.699 40.74ZM139.499 35.68C139.499 33.22 140.759 32.1 142.279 32.1C144.139 32.1 144.819 33.4 144.819 35V36.38C144.819 37.98 144.139 39.28 142.279 39.28C140.759 39.28 139.499 38.16 139.499 35.68ZM155.431 43.66C156.791 43.66 157.871 43.08 158.491 41.3L162.211 30.82H160.351L158.291 37.04L157.611 39.12L156.931 37.04L154.851 30.82H152.991L156.251 39.98L157.331 39.96L157.131 40.58C156.751 41.76 156.231 42.14 155.451 42.14C154.531 42.14 154.031 41.56 153.571 40.78L152.631 42.1C153.051 42.9 154.051 43.66 155.431 43.66ZM167.407 40.7C170.087 40.7 171.987 38.72 171.987 35.66C171.987 32.6 170.087 30.62 167.407 30.62C164.727 30.62 162.847 32.6 162.847 35.66C162.847 38.72 164.727 40.7 167.407 40.7ZM167.407 39.24C165.767 39.24 164.627 38.1 164.627 35.66C164.627 33.2 165.767 32.08 167.407 32.08C169.067 32.08 170.227 33.2 170.227 35.66C170.227 38.1 169.067 39.24 167.407 39.24ZM177.392 40.7C179.332 40.7 180.372 39.38 180.732 37.86V40.5H182.452V30.82H180.732V36.32C180.732 37.92 180.052 39.24 178.172 39.24C176.532 39.24 176.032 38.34 176.032 37.1V30.82H174.312V37.52C174.312 39.56 175.492 40.7 177.392 40.7ZM191.629 40.5V27.1H189.889V40.5H191.629ZM196.184 29.26V27.1H194.444V29.26H196.184ZM196.184 40.5V30.82H194.444V40.5H196.184ZM200.74 40.5V37.12L202.28 35.66L205.42 40.5H207.52L203.48 34.58L207.46 30.82H205.28L202.1 33.86L200.68 35.26L200.74 33.9V27.1H199V40.5H200.74ZM212.851 40.7C214.951 40.7 216.291 39.72 217.011 38.56L215.951 37.36C215.571 38.2 214.791 39.26 212.851 39.26C211.131 39.26 209.991 38.1 209.891 36.06H217.071C217.111 35.88 217.151 35.58 217.151 35.28C217.151 32.44 215.491 30.62 212.751 30.62C210.091 30.62 208.211 32.6 208.211 35.66C208.211 38.74 210.111 40.7 212.851 40.7ZM212.751 32.08C214.371 32.08 215.411 33.02 215.591 34.8H209.931C210.151 33 211.191 32.08 212.751 32.08ZM226.19 40.7C228.19 40.7 229.23 39.26 229.55 37.98V38.66C229.55 40.02 230.27 40.5 231.27 40.5H232.39V38.92H231.77C231.41 38.92 231.23 38.78 231.23 38.32V34.34C231.23 32.04 229.95 30.62 227.57 30.62C225.41 30.62 223.97 31.84 223.39 32.84L224.57 34.06C225.07 33 225.99 32.2 227.37 32.2C228.89 32.2 229.43 33.04 229.49 34.18L225.99 35.74C224.61 36.36 223.63 37.18 223.63 38.48C223.63 39.76 224.55 40.7 226.19 40.7ZM225.39 38.2C225.39 37.6 225.81 37.2 226.73 36.76L229.55 35.44V36.78C229.55 38.18 228.39 39.26 226.75 39.26C225.85 39.26 225.39 38.86 225.39 38.2ZM236.344 40.5V38.02C236.684 39.5 237.604 40.74 239.464 40.74C241.924 40.74 243.444 38.74 243.444 35.68C243.444 32.62 241.924 30.62 239.464 30.62C237.604 30.62 236.684 31.86 236.344 33.34V27.1H234.604V40.5H236.344ZM236.344 36.38V35C236.344 33.4 237.024 32.1 238.864 32.1C240.424 32.1 241.684 33.22 241.684 35.68C241.684 38.16 240.424 39.28 238.864 39.28C237.024 39.28 236.344 37.98 236.344 36.38ZM249.778 40.7C252.458 40.7 254.358 38.72 254.358 35.66C254.358 32.6 252.458 30.62 249.778 30.62C247.098 30.62 245.218 32.6 245.218 35.66C245.218 38.72 247.098 40.7 249.778 40.7ZM249.778 39.24C248.138 39.24 246.998 38.1 246.998 35.66C246.998 33.2 248.138 32.08 249.778 32.08C251.438 32.08 252.598 33.2 252.598 35.66C252.598 38.1 251.438 39.24 249.778 39.24ZM259.763 40.7C261.703 40.7 262.743 39.38 263.103 37.86V40.5H264.823V30.82H263.103V36.32C263.103 37.92 262.423 39.24 260.543 39.24C258.903 39.24 258.403 38.34 258.403 37.1V30.82H256.683V37.52C256.683 39.56 257.863 40.7 259.763 40.7ZM270.632 40.72C271.972 40.72 272.892 40.1 273.312 39.44L272.732 37.72C272.472 38.32 271.872 39.04 271.012 39.04C270.252 39.04 269.672 38.74 269.672 37.5V32.18H272.852V30.82H269.672V28.3L267.932 29.58V30.82H266.372V32.18H267.932V38.02C267.932 39.68 269.052 40.72 270.632 40.72ZM282.926 40.72C284.266 40.72 285.186 40.1 285.606 39.44L285.026 37.72C284.766 38.32 284.166 39.04 283.306 39.04C282.546 39.04 281.966 38.74 281.966 37.5V32.18H285.146V30.82H281.966V28.3L280.226 29.58V30.82H278.666V32.18H280.226V38.02C280.226 39.68 281.346 40.72 282.926 40.72ZM289.263 40.5V35.02C289.263 33.4 289.943 32.1 291.803 32.1C293.443 32.1 293.943 32.98 293.943 34.24V40.5H295.663V33.82C295.663 31.76 294.483 30.62 292.583 30.62C290.683 30.62 289.643 31.9 289.263 33.4V27.1H287.523V40.5H289.263ZM302.527 40.7C304.627 40.7 305.967 39.72 306.687 38.56L305.627 37.36C305.247 38.2 304.467 39.26 302.527 39.26C300.807 39.26 299.667 38.1 299.567 36.06H306.747C306.787 35.88 306.827 35.58 306.827 35.28C306.827 32.44 305.167 30.62 302.427 30.62C299.767 30.62 297.887 32.6 297.887 35.66C297.887 38.74 299.787 40.7 302.527 40.7ZM302.427 32.08C304.047 32.08 305.087 33.02 305.267 34.8H299.607C299.827 33 300.867 32.08 302.427 32.08ZM315.605 40.5V27.1H313.865V40.5H315.605ZM320.421 40.7C322.421 40.7 323.461 39.26 323.781 37.98V38.66C323.781 40.02 324.501 40.5 325.501 40.5H326.621V38.92H326.001C325.641 38.92 325.461 38.78 325.461 38.32V34.34C325.461 32.04 324.181 30.62 321.801 30.62C319.641 30.62 318.201 31.84 317.621 32.84L318.801 34.06C319.301 33 320.221 32.2 321.601 32.2C323.121 32.2 323.661 33.04 323.721 34.18L320.221 35.74C318.841 36.36 317.861 37.18 317.861 38.48C317.861 39.76 318.781 40.7 320.421 40.7ZM319.621 38.2C319.621 37.6 320.041 37.2 320.961 36.76L323.781 35.44V36.78C323.781 38.18 322.621 39.26 320.981 39.26C320.081 39.26 319.621 38.86 319.621 38.2ZM330.576 40.5V35.02C330.576 33.4 331.256 32.1 333.116 32.1C334.756 32.1 335.256 32.98 335.256 34.24V40.5H336.976V33.82C336.976 31.76 335.796 30.62 333.896 30.62C331.996 30.62 330.956 31.9 330.576 33.4V30.82H328.836V40.5H330.576ZM343.421 37.54C345.701 37.54 347.241 36.1 347.241 34.08C347.241 32.88 346.681 31.86 345.761 31.26L347.541 29.26L345.741 28.62L345.141 30.94C344.641 30.74 344.061 30.62 343.421 30.62C341.141 30.62 339.601 32.06 339.601 34.08C339.601 35.3 340.161 36.32 341.121 36.92C340.181 37.68 339.601 38.52 339.601 39.28C339.601 39.92 339.921 40.38 340.541 40.58C339.801 40.88 338.981 41.42 338.981 42.32C338.981 43.6 340.541 44.42 343.021 44.42C346.281 44.42 348.081 43.12 348.081 41.28C348.081 39.82 346.981 39.12 345.221 39.12H342.301C341.301 39.12 341.021 38.86 341.021 38.34C341.021 37.92 341.301 37.46 341.541 37.14C342.081 37.4 342.721 37.54 343.421 37.54ZM343.421 36.2C342.221 36.2 341.281 35.4 341.281 34.08C341.281 32.76 342.221 31.96 343.421 31.96C344.641 31.96 345.561 32.76 345.561 34.08C345.561 35.4 344.641 36.2 343.421 36.2ZM343.021 43.04C341.281 43.04 340.381 42.56 340.381 41.78C340.381 41.32 340.721 40.9 341.041 40.62H345.001C345.981 40.62 346.461 40.9 346.461 41.52C346.461 42.48 345.221 43.04 343.021 43.04ZM352.9 40.7C354.84 40.7 355.88 39.38 356.24 37.86V40.5H357.96V30.82H356.24V36.32C356.24 37.92 355.56 39.24 353.68 39.24C352.04 39.24 351.54 38.34 351.54 37.1V30.82H349.82V37.52C349.82 39.56 351 40.7 352.9 40.7ZM362.842 40.7C364.842 40.7 365.882 39.26 366.202 37.98V38.66C366.202 40.02 366.922 40.5 367.922 40.5H369.042V38.92H368.422C368.062 38.92 367.882 38.78 367.882 38.32V34.34C367.882 32.04 366.602 30.62 364.222 30.62C362.062 30.62 360.622 31.84 360.042 32.84L361.222 34.06C361.722 33 362.642 32.2 364.022 32.2C365.542 32.2 366.082 33.04 366.142 34.18L362.642 35.74C361.262 36.36 360.282 37.18 360.282 38.48C360.282 39.76 361.202 40.7 362.842 40.7ZM362.042 38.2C362.042 37.6 362.462 37.2 363.382 36.76L366.202 35.44V36.78C366.202 38.18 365.042 39.26 363.402 39.26C362.502 39.26 362.042 38.86 362.042 38.2ZM374.92 37.54C377.2 37.54 378.74 36.1 378.74 34.08C378.74 32.88 378.18 31.86 377.26 31.26L379.04 29.26L377.24 28.62L376.64 30.94C376.14 30.74 375.56 30.62 374.92 30.62C372.64 30.62 371.1 32.06 371.1 34.08C371.1 35.3 371.66 36.32 372.62 36.92C371.68 37.68 371.1 38.52 371.1 39.28C371.1 39.92 371.42 40.38 372.04 40.58C371.3 40.88 370.48 41.42 370.48 42.32C370.48 43.6 372.04 44.42 374.52 44.42C377.78 44.42 379.58 43.12 379.58 41.28C379.58 39.82 378.48 39.12 376.72 39.12H373.8C372.8 39.12 372.52 38.86 372.52 38.34C372.52 37.92 372.8 37.46 373.04 37.14C373.58 37.4 374.22 37.54 374.92 37.54ZM374.92 36.2C373.72 36.2 372.78 35.4 372.78 34.08C372.78 32.76 373.72 31.96 374.92 31.96C376.14 31.96 377.06 32.76 377.06 34.08C377.06 35.4 376.14 36.2 374.92 36.2ZM374.52 43.04C372.78 43.04 371.88 42.56 371.88 41.78C371.88 41.32 372.22 40.9 372.54 40.62H376.5C377.48 40.62 377.96 40.9 377.96 41.52C377.96 42.48 376.72 43.04 374.52 43.04ZM385.401 40.7C387.501 40.7 388.841 39.72 389.561 38.56L388.501 37.36C388.121 38.2 387.341 39.26 385.401 39.26C383.681 39.26 382.541 38.1 382.441 36.06H389.621C389.661 35.88 389.701 35.58 389.701 35.28C389.701 32.44 388.041 30.62 385.301 30.62C382.641 30.62 380.761 32.6 380.761 35.66C380.761 38.74 382.661 40.7 385.401 40.7ZM385.301 32.08C386.921 32.08 387.961 33.02 388.141 34.8H382.481C382.701 33 383.741 32.08 385.301 32.08ZM72.2319 68.5V55.1H70.4919V68.5H72.2319ZM79.1673 68.7C81.2673 68.7 82.6073 67.72 83.3273 66.56L82.2673 65.36C81.8873 66.2 81.1073 67.26 79.1673 67.26C77.4473 67.26 76.3073 66.1 76.2073 64.06H83.3873C83.4273 63.88 83.4673 63.58 83.4673 63.28C83.4673 60.44 81.8073 58.62 79.0673 58.62C76.4073 58.62 74.5273 60.6 74.5273 63.66C74.5273 66.74 76.4273 68.7 79.1673 68.7ZM79.0673 60.08C80.6873 60.08 81.7273 61.02 81.9073 62.8H76.2473C76.4673 61 77.5073 60.08 79.0673 60.08ZM87.9309 68.7C89.9309 68.7 90.9709 67.26 91.2909 65.98V66.66C91.2909 68.02 92.0109 68.5 93.0109 68.5H94.1309V66.92H93.5109C93.1509 66.92 92.9709 66.78 92.9709 66.32V62.34C92.9709 60.04 91.6909 58.62 89.3109 58.62C87.1509 58.62 85.7109 59.84 85.1309 60.84L86.3109 62.06C86.8109 61 87.7309 60.2 89.1109 60.2C90.6309 60.2 91.1709 61.04 91.2309 62.18L87.7309 63.74C86.3509 64.36 85.3709 65.18 85.3709 66.48C85.3709 67.76 86.2909 68.7 87.9309 68.7ZM87.1309 66.2C87.1309 65.6 87.5509 65.2 88.4709 64.76L91.2909 63.44V64.78C91.2909 66.18 90.1309 67.26 88.4909 67.26C87.5909 67.26 87.1309 66.86 87.1309 66.2ZM98.0858 68.5V63.02C98.0858 61.36 99.2058 59.9 100.446 59.9C101.146 59.9 101.446 60.38 101.446 60.94C101.446 61.48 101.186 62.08 100.866 62.36H102.766C102.926 62.12 103.146 61.52 103.146 60.7C103.146 59.34 102.146 58.6 101.106 58.6C99.4658 58.6 98.4658 59.9 98.0858 61.4V58.82H96.3458V68.5H98.0858ZM106.606 68.5V63.02C106.606 61.4 107.286 60.1 109.146 60.1C110.786 60.1 111.286 60.98 111.286 62.24V68.5H113.006V61.82C113.006 59.76 111.826 58.62 109.926 58.62C108.026 58.62 106.986 59.9 106.606 61.4V58.82H104.866V68.5H106.606ZM117.529 57.26V55.1H115.789V57.26H117.529ZM117.529 68.5V58.82H115.789V68.5H117.529ZM122.084 68.5V63.02C122.084 61.4 122.764 60.1 124.624 60.1C126.264 60.1 126.764 60.98 126.764 62.24V68.5H128.484V61.82C128.484 59.76 127.304 58.62 125.404 58.62C123.504 58.62 122.464 59.9 122.084 61.4V58.82H120.344V68.5H122.084ZM134.93 65.54C137.21 65.54 138.75 64.1 138.75 62.08C138.75 60.88 138.19 59.86 137.27 59.26L139.05 57.26L137.25 56.62L136.65 58.94C136.15 58.74 135.57 58.62 134.93 58.62C132.65 58.62 131.11 60.06 131.11 62.08C131.11 63.3 131.67 64.32 132.63 64.92C131.69 65.68 131.11 66.52 131.11 67.28C131.11 67.92 131.43 68.38 132.05 68.58C131.31 68.88 130.49 69.42 130.49 70.32C130.49 71.6 132.05 72.42 134.53 72.42C137.79 72.42 139.59 71.12 139.59 69.28C139.59 67.82 138.49 67.12 136.73 67.12H133.81C132.81 67.12 132.53 66.86 132.53 66.34C132.53 65.92 132.81 65.46 133.05 65.14C133.59 65.4 134.23 65.54 134.93 65.54ZM134.93 64.2C133.73 64.2 132.79 63.4 132.79 62.08C132.79 60.76 133.73 59.96 134.93 59.96C136.15 59.96 137.07 60.76 137.07 62.08C137.07 63.4 136.15 64.2 134.93 64.2ZM134.53 71.04C132.79 71.04 131.89 70.56 131.89 69.78C131.89 69.32 132.23 68.9 132.55 68.62H136.51C137.49 68.62 137.97 68.9 137.97 69.52C137.97 70.48 136.73 71.04 134.53 71.04ZM148.061 68.7C150.061 68.7 151.101 67.26 151.421 65.98V66.66C151.421 68.02 152.141 68.5 153.141 68.5H154.261V66.92H153.641C153.281 66.92 153.101 66.78 153.101 66.32V62.34C153.101 60.04 151.821 58.62 149.441 58.62C147.281 58.62 145.841 59.84 145.261 60.84L146.441 62.06C146.941 61 147.861 60.2 149.241 60.2C150.761 60.2 151.301 61.04 151.361 62.18L147.861 63.74C146.481 64.36 145.501 65.18 145.501 66.48C145.501 67.76 146.421 68.7 148.061 68.7ZM147.261 66.2C147.261 65.6 147.681 65.2 148.601 64.76L151.421 63.44V64.78C151.421 66.18 150.261 67.26 148.621 67.26C147.721 67.26 147.261 66.86 147.261 66.2ZM158.216 72.22V66C158.556 67.46 159.476 68.7 161.336 68.7C163.776 68.7 165.296 66.7 165.296 63.64C165.296 60.58 163.776 58.6 161.336 58.6C159.476 58.6 158.556 59.84 158.216 61.3V58.82H156.476V72.22H158.216ZM158.216 64.34V62.96C158.216 61.36 158.896 60.06 160.736 60.06C162.276 60.06 163.536 61.18 163.536 63.64C163.536 66.12 162.276 67.24 160.736 67.24C158.896 67.24 158.216 65.94 158.216 64.34ZM169.334 72.22V66C169.674 67.46 170.594 68.7 172.454 68.7C174.894 68.7 176.414 66.7 176.414 63.64C176.414 60.58 174.894 58.6 172.454 58.6C170.594 58.6 169.674 59.84 169.334 61.3V58.82H167.594V72.22H169.334ZM169.334 64.34V62.96C169.334 61.36 170.014 60.06 171.854 60.06C173.394 60.06 174.654 61.18 174.654 63.64C174.654 66.12 173.394 67.24 171.854 67.24C170.014 67.24 169.334 65.94 169.334 64.34ZM184.747 71.66C186.107 71.66 187.187 71.08 187.807 69.3L191.527 58.82H189.667L187.607 65.04L186.927 67.12L186.247 65.04L184.167 58.82H182.307L185.567 67.98L186.647 67.96L186.447 68.58C186.067 69.76 185.547 70.14 184.767 70.14C183.847 70.14 183.347 69.56 182.887 68.78L181.947 70.1C182.367 70.9 183.367 71.66 184.747 71.66ZM196.723 68.7C199.403 68.7 201.303 66.72 201.303 63.66C201.303 60.6 199.403 58.62 196.723 58.62C194.043 58.62 192.163 60.6 192.163 63.66C192.163 66.72 194.043 68.7 196.723 68.7ZM196.723 67.24C195.083 67.24 193.943 66.1 193.943 63.66C193.943 61.2 195.083 60.08 196.723 60.08C198.383 60.08 199.543 61.2 199.543 63.66C199.543 66.1 198.383 67.24 196.723 67.24ZM206.707 68.7C208.647 68.7 209.687 67.38 210.047 65.86V68.5H211.767V58.82H210.047V64.32C210.047 65.92 209.367 67.24 207.487 67.24C205.847 67.24 205.347 66.34 205.347 65.1V58.82H203.627V65.52C203.627 67.56 204.807 68.7 206.707 68.7ZM222.224 68.7C224.164 68.7 225.204 67.38 225.564 65.86V68.5H227.284V58.82H225.564V64.32C225.564 65.92 224.884 67.24 223.004 67.24C221.364 67.24 220.864 66.34 220.864 65.1V58.82H219.144V65.52C219.144 67.56 220.324 68.7 222.224 68.7ZM233.594 68.7C235.474 68.7 237.114 67.84 237.114 65.92C237.114 64.58 236.394 63.68 234.214 63.16L232.974 62.84C231.654 62.52 231.014 62.22 231.014 61.36C231.014 60.54 231.734 60.1 232.734 60.1C234.114 60.1 235.034 60.82 235.514 61.96L236.834 60.98C236.294 59.7 234.874 58.62 232.834 58.62C230.734 58.62 229.374 59.7 229.374 61.46C229.374 63.24 230.874 63.9 232.254 64.22L233.534 64.52C234.674 64.78 235.554 65.06 235.554 65.94C235.554 66.8 234.794 67.24 233.654 67.24C231.734 67.24 230.674 66.14 230.334 65.04L229.074 66.02C229.734 67.82 231.574 68.7 233.594 68.7ZM243.256 68.7C245.356 68.7 246.696 67.72 247.416 66.56L246.356 65.36C245.976 66.2 245.196 67.26 243.256 67.26C241.536 67.26 240.396 66.1 240.296 64.06H247.476C247.516 63.88 247.556 63.58 247.556 63.28C247.556 60.44 245.896 58.62 243.156 58.62C240.496 58.62 238.616 60.6 238.616 63.66C238.616 66.74 240.516 68.7 243.256 68.7ZM243.156 60.08C244.776 60.08 245.816 61.02 245.996 62.8H240.336C240.556 61 241.596 60.08 243.156 60.08ZM253.576 68.74C255.436 68.74 256.356 67.5 256.696 66.02V68.5H258.436V55.1H256.696V61.34C256.356 59.86 255.436 58.62 253.576 58.62C251.136 58.62 249.616 60.62 249.616 63.68C249.616 66.74 251.136 68.74 253.576 68.74ZM251.376 63.68C251.376 61.22 252.636 60.1 254.156 60.1C256.016 60.1 256.696 61.4 256.696 63V64.38C256.696 65.98 256.016 67.28 254.156 67.28C252.636 67.28 251.376 66.16 251.376 63.68ZM265.334 64.44V63.96C265.334 61.34 269.174 61.36 269.174 58.22C269.174 55.9 267.534 54.9 265.174 54.9C262.094 54.9 260.234 56.84 260.754 59.46L262.354 60.48C261.794 57.84 263.014 56.54 265.054 56.54C266.594 56.54 267.294 57.26 267.294 58.3C267.294 60.64 263.694 60.56 263.694 63.76V64.44H265.334ZM265.554 68.5V65.9H263.454V68.5H265.554Z"/><rect width="153" height="119" y="109" fill="#27AE60" rx="16"/><path fill="#fff" d="M27.1846 149.685C29.7846 149.685 31.7246 148.285 31.7246 145.965C31.7246 143.325 29.6446 142.585 27.7446 142.125L26.2846 141.765C24.7446 141.385 23.7646 140.885 23.7646 139.545C23.7646 138.305 24.8646 137.565 26.3446 137.565C28.0846 137.565 29.4446 138.305 30.0846 140.125L31.5446 138.965C30.7246 136.965 28.8046 135.905 26.3846 135.905C24.0446 135.905 21.9246 137.225 21.9246 139.665C21.9246 142.185 23.9446 142.985 25.7246 143.385L26.9846 143.665C28.7646 144.085 29.9446 144.465 29.9446 146.005C29.9446 147.465 28.6846 148.045 27.1846 148.045C25.5046 148.045 23.4246 147.265 22.8046 145.085L21.4846 146.245C22.3646 148.725 24.6646 149.685 27.1846 149.685ZM35.9321 138.245V136.085H34.1921V138.245H35.9321ZM35.9321 149.485V139.805H34.1921V149.485H35.9321ZM40.4876 149.485V144.005C40.4876 142.385 41.1676 141.085 42.6276 141.085C44.0876 141.085 44.7476 141.785 44.7476 143.205V149.485H46.4876V144.005C46.4876 142.385 47.1676 141.085 48.6476 141.085C50.0876 141.085 50.7676 141.785 50.7676 143.205V149.485H52.4876V142.785C52.4876 140.745 51.5076 139.605 49.6076 139.605C47.8476 139.605 46.8476 140.905 46.4676 142.445C46.3676 140.625 45.3876 139.605 43.6076 139.605C41.8676 139.605 40.8676 140.885 40.4876 142.365V139.805H38.7476V149.485H40.4876ZM57.0157 153.205V146.985C57.3557 148.445 58.2757 149.685 60.1357 149.685C62.5757 149.685 64.0957 147.685 64.0957 144.625C64.0957 141.565 62.5757 139.585 60.1357 139.585C58.2757 139.585 57.3557 140.825 57.0157 142.285V139.805H55.2757V153.205H57.0157ZM57.0157 145.325V143.945C57.0157 142.345 57.6957 141.045 59.5357 141.045C61.0757 141.045 62.3357 142.165 62.3357 144.625C62.3357 147.105 61.0757 148.225 59.5357 148.225C57.6957 148.225 57.0157 146.925 57.0157 145.325ZM68.1337 149.485V136.085H66.3937V149.485H68.1337ZM72.6892 138.245V136.085H70.9492V138.245H72.6892ZM72.6892 149.485V139.805H70.9492V149.485H72.6892ZM79.5246 149.685C82.0446 149.685 83.5246 148.225 83.9846 146.285L82.2846 145.585C82.0846 147.125 81.2846 148.245 79.5446 148.245C77.7846 148.245 76.7246 146.925 76.7246 144.645C76.7246 142.365 77.7846 141.065 79.5446 141.065C81.2846 141.065 82.0846 142.165 82.2846 143.705L83.9846 143.005C83.5246 141.065 82.0446 139.605 79.5246 139.605C76.7446 139.605 74.9646 141.585 74.9646 144.645C74.9646 147.725 76.7446 149.685 79.5246 149.685ZM87.9329 138.245V136.085H86.1929V138.245H87.9329ZM87.9329 149.485V139.805H86.1929V149.485H87.9329ZM93.9884 149.705C95.3284 149.705 96.2484 149.085 96.6684 148.425L96.0884 146.705C95.8284 147.305 95.2284 148.025 94.3684 148.025C93.6084 148.025 93.0284 147.725 93.0284 146.485V141.165H96.2084V139.805H93.0284V137.285L91.2884 138.565V139.805H89.7284V141.165H91.2884V147.005C91.2884 148.665 92.4084 149.705 93.9884 149.705ZM99.4392 152.645C100.799 152.645 101.879 152.065 102.499 150.285L106.219 139.805H104.359L102.299 146.025L101.619 148.105L100.939 146.025L98.8592 139.805H96.9992L100.259 148.965L101.339 148.945L101.139 149.565C100.759 150.745 100.239 151.125 99.4592 151.125C98.5392 151.125 98.0392 150.545 97.5792 149.765L96.6392 151.085C97.0592 151.885 98.0592 152.645 99.4392 152.645Z"/><rect width="153" height="119" x="169" y="109" fill="#27AE60" rx="16"/><path fill="#fff" d="M199.765 149.485V147.945H192.745V136.085H191.005V149.485H199.765ZM205.007 149.685C207.107 149.685 208.447 148.705 209.167 147.545L208.107 146.345C207.727 147.185 206.947 148.245 205.007 148.245C203.287 148.245 202.147 147.085 202.047 145.045H209.227C209.267 144.865 209.307 144.565 209.307 144.265C209.307 141.425 207.647 139.605 204.907 139.605C202.247 139.605 200.367 141.585 200.367 144.645C200.367 147.725 202.267 149.685 205.007 149.685ZM204.907 141.065C206.527 141.065 207.567 142.005 207.747 143.785H202.087C202.307 141.985 203.347 141.065 204.907 141.065ZM213.771 149.685C215.771 149.685 216.811 148.245 217.131 146.965V147.645C217.131 149.005 217.851 149.485 218.851 149.485H219.971V147.905H219.351C218.991 147.905 218.811 147.765 218.811 147.305V143.325C218.811 141.025 217.531 139.605 215.151 139.605C212.991 139.605 211.551 140.825 210.971 141.825L212.151 143.045C212.651 141.985 213.571 141.185 214.951 141.185C216.471 141.185 217.011 142.025 217.071 143.165L213.571 144.725C212.191 145.345 211.211 146.165 211.211 147.465C211.211 148.745 212.131 149.685 213.771 149.685ZM212.971 147.185C212.971 146.585 213.391 146.185 214.311 145.745L217.131 144.425V145.765C217.131 147.165 215.971 148.245 214.331 148.245C213.431 148.245 212.971 147.845 212.971 147.185ZM225.567 149.725C227.427 149.725 228.347 148.485 228.687 147.005V149.485H230.427V136.085H228.687V142.325C228.347 140.845 227.427 139.605 225.567 139.605C223.127 139.605 221.607 141.605 221.607 144.665C221.607 147.725 223.127 149.725 225.567 149.725ZM223.367 144.665C223.367 142.205 224.627 141.085 226.147 141.085C228.007 141.085 228.687 142.385 228.687 143.985V145.365C228.687 146.965 228.007 148.265 226.147 148.265C224.627 148.265 223.367 147.145 223.367 144.665ZM237.385 149.685C239.485 149.685 240.825 148.705 241.545 147.545L240.485 146.345C240.105 147.185 239.325 148.245 237.385 148.245C235.665 148.245 234.525 147.085 234.425 145.045H241.605C241.645 144.865 241.685 144.565 241.685 144.265C241.685 141.425 240.025 139.605 237.285 139.605C234.625 139.605 232.745 141.585 232.745 144.645C232.745 147.725 234.645 149.685 237.385 149.685ZM237.285 141.065C238.905 141.065 239.945 142.005 240.125 143.785H234.465C234.685 141.985 235.725 141.065 237.285 141.065ZM245.83 149.485V144.005C245.83 142.345 246.95 140.885 248.19 140.885C248.89 140.885 249.19 141.365 249.19 141.925C249.19 142.465 248.93 143.065 248.61 143.345H250.51C250.67 143.105 250.89 142.505 250.89 141.685C250.89 140.325 249.89 139.585 248.85 139.585C247.21 139.585 246.21 140.885 245.83 142.385V139.805H244.09V149.485H245.83ZM254.467 149.485V147.005C254.807 148.485 255.727 149.725 257.587 149.725C260.047 149.725 261.567 147.725 261.567 144.665C261.567 141.605 260.047 139.605 257.587 139.605C255.727 139.605 254.807 140.845 254.467 142.325V136.085H252.727V149.485H254.467ZM254.467 145.365V143.985C254.467 142.385 255.147 141.085 256.987 141.085C258.547 141.085 259.807 142.205 259.807 144.665C259.807 147.145 258.547 148.265 256.987 148.265C255.147 148.265 254.467 146.965 254.467 145.365ZM265.884 149.685C267.884 149.685 268.924 148.245 269.244 146.965V147.645C269.244 149.005 269.964 149.485 270.964 149.485H272.084V147.905H271.464C271.104 147.905 270.924 147.765 270.924 147.305V143.325C270.924 141.025 269.644 139.605 267.264 139.605C265.104 139.605 263.664 140.825 263.084 141.825L264.264 143.045C264.764 141.985 265.684 141.185 267.064 141.185C268.584 141.185 269.124 142.025 269.184 143.165L265.684 144.725C264.304 145.345 263.324 146.165 263.324 147.465C263.324 148.745 264.244 149.685 265.884 149.685ZM265.084 147.185C265.084 146.585 265.504 146.185 266.424 145.745L269.244 144.425V145.765C269.244 147.165 268.084 148.245 266.444 148.245C265.544 148.245 265.084 147.845 265.084 147.185ZM276.039 149.485V144.005C276.039 142.345 277.159 140.885 278.399 140.885C279.099 140.885 279.399 141.365 279.399 141.925C279.399 142.465 279.139 143.065 278.819 143.345H280.719C280.879 143.105 281.099 142.505 281.099 141.685C281.099 140.325 280.099 139.585 279.059 139.585C277.419 139.585 276.419 140.885 276.039 142.385V139.805H274.299V149.485H276.039ZM286.103 149.725C287.963 149.725 288.883 148.485 289.223 147.005V149.485H290.963V136.085H289.223V142.325C288.883 140.845 287.963 139.605 286.103 139.605C283.663 139.605 282.143 141.605 282.143 144.665C282.143 147.725 283.663 149.725 286.103 149.725ZM283.903 144.665C283.903 142.205 285.163 141.085 286.683 141.085C288.543 141.085 289.223 142.385 289.223 143.985V145.365C289.223 146.965 288.543 148.265 286.683 148.265C285.163 148.265 283.903 147.145 283.903 144.665ZM192.805 177.685C194.805 177.685 195.845 176.245 196.165 174.965V175.645C196.165 177.005 196.885 177.485 197.885 177.485H199.005V175.905H198.385C198.025 175.905 197.845 175.765 197.845 175.305V171.325C197.845 169.025 196.565 167.605 194.185 167.605C192.025 167.605 190.585 168.825 190.005 169.825L191.185 171.045C191.685 169.985 192.605 169.185 193.985 169.185C195.505 169.185 196.045 170.025 196.105 171.165L192.605 172.725C191.225 173.345 190.245 174.165 190.245 175.465C190.245 176.745 191.165 177.685 192.805 177.685ZM192.005 175.185C192.005 174.585 192.425 174.185 193.345 173.745L196.165 172.425V173.765C196.165 175.165 195.005 176.245 193.365 176.245C192.465 176.245 192.005 175.845 192.005 175.185ZM202.959 177.485V172.005C202.959 170.385 203.639 169.085 205.499 169.085C207.139 169.085 207.639 169.965 207.639 171.225V177.485H209.359V170.805C209.359 168.745 208.179 167.605 206.279 167.605C204.379 167.605 203.339 168.885 202.959 170.385V167.805H201.219V177.485H202.959ZM215.523 177.725C217.383 177.725 218.303 176.485 218.643 175.005V177.485H220.383V164.085H218.643V170.325C218.303 168.845 217.383 167.605 215.523 167.605C213.083 167.605 211.563 169.605 211.563 172.665C211.563 175.725 213.083 177.725 215.523 177.725ZM213.323 172.665C213.323 170.205 214.583 169.085 216.103 169.085C217.963 169.085 218.643 170.385 218.643 171.985V173.365C218.643 174.965 217.963 176.265 216.103 176.265C214.583 176.265 213.323 175.145 213.323 172.665ZM192.545 205.485V200.005C192.545 198.385 193.225 197.085 194.685 197.085C196.145 197.085 196.805 197.785 196.805 199.205V205.485H198.545V200.005C198.545 198.385 199.225 197.085 200.705 197.085C202.145 197.085 202.825 197.785 202.825 199.205V205.485H204.545V198.785C204.545 196.745 203.565 195.605 201.665 195.605C199.905 195.605 198.905 196.905 198.525 198.445C198.425 196.625 197.445 195.605 195.665 195.605C193.925 195.605 192.925 196.885 192.545 198.365V195.805H190.805V205.485H192.545ZM209.073 194.245V192.085H207.333V194.245H209.073ZM209.073 205.485V195.805H207.333V205.485H209.073ZM213.628 205.485V192.085H211.888V205.485H213.628ZM220.564 205.685C222.664 205.685 224.004 204.705 224.724 203.545L223.664 202.345C223.284 203.185 222.504 204.245 220.564 204.245C218.844 204.245 217.704 203.085 217.604 201.045H224.784C224.824 200.865 224.864 200.565 224.864 200.265C224.864 197.425 223.204 195.605 220.464 195.605C217.804 195.605 215.924 197.585 215.924 200.645C215.924 203.725 217.824 205.685 220.564 205.685ZM220.464 197.065C222.084 197.065 223.124 198.005 223.304 199.785H217.644C217.864 197.985 218.904 197.065 220.464 197.065ZM230.872 205.685C232.752 205.685 234.392 204.825 234.392 202.905C234.392 201.565 233.672 200.665 231.492 200.145L230.252 199.825C228.932 199.505 228.292 199.205 228.292 198.345C228.292 197.525 229.012 197.085 230.012 197.085C231.392 197.085 232.312 197.805 232.792 198.945L234.112 197.965C233.572 196.685 232.152 195.605 230.112 195.605C228.012 195.605 226.652 196.685 226.652 198.445C226.652 200.225 228.152 200.885 229.532 201.205L230.812 201.505C231.952 201.765 232.832 202.045 232.832 202.925C232.832 203.785 232.072 204.225 230.932 204.225C229.012 204.225 227.952 203.125 227.612 202.025L226.352 203.005C227.012 204.805 228.852 205.685 230.872 205.685ZM239.634 205.705C240.974 205.705 241.894 205.085 242.314 204.425L241.734 202.705C241.474 203.305 240.874 204.025 240.014 204.025C239.254 204.025 238.674 203.725 238.674 202.485V197.165H241.854V195.805H238.674V193.285L236.934 194.565V195.805H235.374V197.165H236.934V203.005C236.934 204.665 238.054 205.705 239.634 205.705ZM247.428 205.685C250.108 205.685 252.008 203.705 252.008 200.645C252.008 197.585 250.108 195.605 247.428 195.605C244.748 195.605 242.868 197.585 242.868 200.645C242.868 203.705 244.748 205.685 247.428 205.685ZM247.428 204.225C245.788 204.225 244.648 203.085 244.648 200.645C244.648 198.185 245.788 197.065 247.428 197.065C249.088 197.065 250.248 198.185 250.248 200.645C250.248 203.085 249.088 204.225 247.428 204.225ZM256.132 205.485V200.005C256.132 198.385 256.812 197.085 258.672 197.085C260.312 197.085 260.812 197.965 260.812 199.225V205.485H262.532V198.805C262.532 196.745 261.352 195.605 259.452 195.605C257.552 195.605 256.512 196.885 256.132 198.385V195.805H254.392V205.485H256.132ZM269.396 205.685C271.496 205.685 272.836 204.705 273.556 203.545L272.496 202.345C272.116 203.185 271.336 204.245 269.396 204.245C267.676 204.245 266.536 203.085 266.436 201.045H273.616C273.656 200.865 273.696 200.565 273.696 200.265C273.696 197.425 272.036 195.605 269.296 195.605C266.636 195.605 264.756 197.585 264.756 200.645C264.756 203.725 266.656 205.685 269.396 205.685ZM269.296 197.065C270.916 197.065 271.956 198.005 272.136 199.785H266.476C266.696 197.985 267.736 197.065 269.296 197.065ZM279.704 205.685C281.584 205.685 283.224 204.825 283.224 202.905C283.224 201.565 282.504 200.665 280.324 200.145L279.084 199.825C277.764 199.505 277.124 199.205 277.124 198.345C277.124 197.525 277.844 197.085 278.844 197.085C280.224 197.085 281.144 197.805 281.624 198.945L282.944 197.965C282.404 196.685 280.984 195.605 278.944 195.605C276.844 195.605 275.484 196.685 275.484 198.445C275.484 200.225 276.984 200.885 278.364 201.205L279.644 201.505C280.784 201.765 281.664 202.045 281.664 202.925C281.664 203.785 280.904 204.225 279.764 204.225C277.844 204.225 276.784 203.125 276.444 202.025L275.184 203.005C275.844 204.805 277.684 205.685 279.704 205.685Z"/><rect width="152" height="119" x="338" y="109" fill="#27AE60" rx="16"/><path fill="#fff" d="M364.885 149.685C368.445 149.685 370.005 147.845 370.005 143.885V136.085H368.285V143.885C368.285 146.845 367.365 148.025 364.905 148.025C362.485 148.025 361.545 146.845 361.545 143.885V136.085H359.805V143.885C359.805 147.845 361.405 149.685 364.885 149.685ZM376.479 149.685C378.359 149.685 379.999 148.825 379.999 146.905C379.999 145.565 379.279 144.665 377.099 144.145L375.859 143.825C374.539 143.505 373.899 143.205 373.899 142.345C373.899 141.525 374.619 141.085 375.619 141.085C376.999 141.085 377.919 141.805 378.399 142.945L379.719 141.965C379.179 140.685 377.759 139.605 375.719 139.605C373.619 139.605 372.259 140.685 372.259 142.445C372.259 144.225 373.759 144.885 375.139 145.205L376.419 145.505C377.559 145.765 378.439 146.045 378.439 146.925C378.439 147.785 377.679 148.225 376.539 148.225C374.619 148.225 373.559 147.125 373.219 146.025L371.959 147.005C372.619 148.805 374.459 149.685 376.479 149.685ZM386.141 149.685C388.241 149.685 389.581 148.705 390.301 147.545L389.241 146.345C388.861 147.185 388.081 148.245 386.141 148.245C384.421 148.245 383.281 147.085 383.181 145.045H390.361C390.401 144.865 390.441 144.565 390.441 144.265C390.441 141.425 388.781 139.605 386.041 139.605C383.381 139.605 381.501 141.585 381.501 144.645C381.501 147.725 383.401 149.685 386.141 149.685ZM386.041 141.065C387.661 141.065 388.701 142.005 388.881 143.785H383.221C383.441 141.985 384.481 141.065 386.041 141.065ZM396.461 149.725C398.321 149.725 399.241 148.485 399.581 147.005V149.485H401.321V136.085H399.581V142.325C399.241 140.845 398.321 139.605 396.461 139.605C394.021 139.605 392.501 141.605 392.501 144.665C392.501 147.725 394.021 149.725 396.461 149.725ZM394.261 144.665C394.261 142.205 395.521 141.085 397.041 141.085C398.901 141.085 399.581 142.385 399.581 143.985V145.365C399.581 146.965 398.901 148.265 397.041 148.265C395.521 148.265 394.261 147.145 394.261 144.665ZM410.494 149.485V144.005C410.494 142.345 411.614 140.885 412.854 140.885C413.554 140.885 413.854 141.365 413.854 141.925C413.854 142.465 413.594 143.065 413.274 143.345H415.174C415.334 143.105 415.554 142.505 415.554 141.685C415.554 140.325 414.554 139.585 413.514 139.585C411.874 139.585 410.874 140.885 410.494 142.385V139.805H408.754V149.485H410.494ZM421.257 149.685C423.357 149.685 424.697 148.705 425.417 147.545L424.357 146.345C423.977 147.185 423.197 148.245 421.257 148.245C419.537 148.245 418.397 147.085 418.297 145.045H425.477C425.517 144.865 425.557 144.565 425.557 144.265C425.557 141.425 423.897 139.605 421.157 139.605C418.497 139.605 416.617 141.585 416.617 144.645C416.617 147.725 418.517 149.685 421.257 149.685ZM421.157 141.065C422.777 141.065 423.817 142.005 423.997 143.785H418.337C418.557 141.985 419.597 141.065 421.157 141.065ZM430.021 149.685C432.021 149.685 433.061 148.245 433.381 146.965V147.645C433.381 149.005 434.101 149.485 435.101 149.485H436.221V147.905H435.601C435.241 147.905 435.061 147.765 435.061 147.305V143.325C435.061 141.025 433.781 139.605 431.401 139.605C429.241 139.605 427.801 140.825 427.221 141.825L428.401 143.045C428.901 141.985 429.821 141.185 431.201 141.185C432.721 141.185 433.261 142.025 433.321 143.165L429.821 144.725C428.441 145.345 427.461 146.165 427.461 147.465C427.461 148.745 428.381 149.685 430.021 149.685ZM429.221 147.185C429.221 146.585 429.641 146.185 430.561 145.745L433.381 144.425V145.765C433.381 147.165 432.221 148.245 430.581 148.245C429.681 148.245 429.221 147.845 429.221 147.185ZM440.176 149.485V136.085H438.436V149.485H440.176ZM361.545 181.205V174.985C361.885 176.445 362.805 177.685 364.665 177.685C367.105 177.685 368.625 175.685 368.625 172.625C368.625 169.565 367.105 167.585 364.665 167.585C362.805 167.585 361.885 168.825 361.545 170.285V167.805H359.805V181.205H361.545ZM361.545 173.325V171.945C361.545 170.345 362.225 169.045 364.065 169.045C365.605 169.045 366.865 170.165 366.865 172.625C366.865 175.105 365.605 176.225 364.065 176.225C362.225 176.225 361.545 174.925 361.545 173.325ZM375.199 177.685C377.299 177.685 378.639 176.705 379.359 175.545L378.299 174.345C377.919 175.185 377.139 176.245 375.199 176.245C373.479 176.245 372.339 175.085 372.239 173.045H379.419C379.459 172.865 379.499 172.565 379.499 172.265C379.499 169.425 377.839 167.605 375.099 167.605C372.439 167.605 370.559 169.585 370.559 172.645C370.559 175.725 372.459 177.685 375.199 177.685ZM375.099 169.065C376.719 169.065 377.759 170.005 377.939 171.785H372.279C372.499 169.985 373.539 169.065 375.099 169.065ZM385.979 177.685C388.659 177.685 390.559 175.705 390.559 172.645C390.559 169.585 388.659 167.605 385.979 167.605C383.299 167.605 381.419 169.585 381.419 172.645C381.419 175.705 383.299 177.685 385.979 177.685ZM385.979 176.225C384.339 176.225 383.199 175.085 383.199 172.645C383.199 170.185 384.339 169.065 385.979 169.065C387.639 169.065 388.799 170.185 388.799 172.645C388.799 175.085 387.639 176.225 385.979 176.225ZM394.723 181.205V174.985C395.063 176.445 395.983 177.685 397.843 177.685C400.283 177.685 401.803 175.685 401.803 172.625C401.803 169.565 400.283 167.585 397.843 167.585C395.983 167.585 395.063 168.825 394.723 170.285V167.805H392.983V181.205H394.723ZM394.723 173.325V171.945C394.723 170.345 395.403 169.045 397.243 169.045C398.783 169.045 400.043 170.165 400.043 172.625C400.043 175.105 398.783 176.225 397.243 176.225C395.403 176.225 394.723 174.925 394.723 173.325ZM405.841 177.485V164.085H404.101V177.485H405.841ZM412.776 177.685C414.876 177.685 416.216 176.705 416.936 175.545L415.876 174.345C415.496 175.185 414.716 176.245 412.776 176.245C411.056 176.245 409.916 175.085 409.816 173.045H416.996C417.036 172.865 417.076 172.565 417.076 172.265C417.076 169.425 415.416 167.605 412.676 167.605C410.016 167.605 408.136 169.585 408.136 172.645C408.136 175.725 410.036 177.685 412.776 177.685ZM412.676 169.065C414.296 169.065 415.336 170.005 415.516 171.785H409.856C410.076 169.985 411.116 169.065 412.676 169.065Z"/></svg>