<svg width="1392" height="177" viewBox="0 0 1392 177" fill="none" xmlns="http://www.w3.org/2000/svg">
<rect width="171" height="177" rx="16" fill="#1B1B1B"/>
<path d="M47.26 138.96C46.58 138.5 45.46 138.72 44.64 138.72V138.22C45.46 138.22 46.52 138.34 47.26 138C48.46 137.46 49.32 136.66 49.32 134.92C49.32 131.64 46.68 131 43.48 131H38.2V145H41.1V139.74H43.06C43.78 139.78 45.12 139.4 45.74 141.66C45.82 141.94 46.14 143.24 46.58 145H49.66C49.66 145 48.78 142.3 48.6 141.5C48.34 140.36 48.08 139.48 47.26 138.96ZM41.1 132.84H43.22C44.96 132.84 46.32 133.44 46.32 134.96C46.32 136.46 44.84 137.34 43.22 137.34H41.1V132.84ZM57.5166 145.32C60.7966 145.32 62.3366 143.18 62.6366 142.14H59.4166C59.2166 142.52 58.4566 142.98 57.2366 142.98C55.3366 142.98 54.4366 141.78 54.4366 140.8H62.8566C62.8766 140.64 62.8566 140.16 62.8566 139.94C62.8766 137.16 60.6366 134.7 56.9966 134.7C53.4766 134.7 50.9966 136.96 50.9966 139.94C50.9966 142.92 53.2766 145.32 57.5166 145.32ZM54.4366 139.06C54.4366 137.9 55.5166 136.84 57.0766 136.84C58.6166 136.84 59.5566 137.78 59.5566 139.06H54.4366ZM73.9672 141.62C73.9672 137.58 66.7272 138.86 66.7272 137.64C66.7272 137.12 67.6272 136.92 68.5472 136.92C70.1472 136.92 70.9472 137.42 70.9472 138H73.7672C73.7672 136.74 72.7272 134.7 68.7472 134.7C65.3472 134.7 63.9272 136.12 63.9272 137.68C63.9272 141.14 71.1072 140.16 71.1072 141.78C71.1072 142.12 70.7872 142.7 69.3272 142.7C67.3872 142.7 66.6872 141.82 66.6872 141.4H63.8672C63.8672 143 65.1272 145.32 68.9672 145.32C72.4072 145.32 73.9672 143.48 73.9672 141.62ZM81.4228 145.32C84.7028 145.32 86.2428 143.18 86.5428 142.14H83.3228C83.1228 142.52 82.3628 142.98 81.1428 142.98C79.2428 142.98 78.3428 141.78 78.3428 140.8H86.7628C86.7828 140.64 86.7628 140.16 86.7628 139.94C86.7828 137.16 84.5428 134.7 80.9028 134.7C77.3828 134.7 74.9028 136.96 74.9028 139.94C74.9028 142.92 77.1828 145.32 81.4228 145.32ZM78.3428 139.06C78.3428 137.9 79.4228 136.84 80.9828 136.84C82.5228 136.84 83.4628 137.78 83.4628 139.06H78.3428ZM95.4056 144C95.8056 143.54 95.8656 142.72 96.0456 142.14L96.5056 142.3C96.3456 142.86 95.9856 143.58 95.9856 144.18V145H98.7856V135H95.9856V135.76C95.9856 136.36 96.3456 137.06 96.5256 137.62L96.0456 137.78C95.8656 137.2 95.8056 136.38 95.3856 135.94C94.6656 135.16 93.6456 134.7 92.3256 134.7C89.3856 134.7 87.2856 136.96 87.2856 139.94C87.2856 142.92 89.3856 145.32 92.3256 145.32C93.6656 145.32 94.6856 144.82 95.4056 144ZM90.0856 139.94C90.0856 138.42 91.1256 137.3 92.5256 137.3C94.1456 137.3 95.0056 138.42 95.0056 139.94C94.9856 141.44 93.9256 142.72 92.5256 142.72C91.1256 142.72 90.0856 141.44 90.0856 139.94ZM104.693 135.62C103.973 136.12 103.573 137.22 103.213 138.02L102.773 137.82C103.133 137.02 103.593 136 103.593 135.12V135H100.793V145H103.593V141C103.593 138.22 106.293 137.3 108.853 137.3V134.7C106.993 134.7 105.793 134.86 104.693 135.62ZM109.864 139.94C109.864 143.28 112.024 145.32 115.384 145.32C118.664 145.32 120.544 143.4 120.884 141.14H117.864C117.864 141.14 117.204 142.68 115.284 142.66C113.664 142.66 112.624 141.56 112.644 139.92C112.644 138.26 113.704 137.34 115.244 137.34C117.224 137.32 117.804 138.86 117.804 138.86H120.824C120.624 136.72 118.744 134.7 115.324 134.7C112.024 134.7 109.864 136.6 109.864 139.94ZM126.195 135.5C125.495 136.04 125.215 137.22 124.895 138.06L124.435 137.88C124.755 137.04 125.195 136 125.195 135.12V130.48H122.395V145H125.195V140.16C125.195 138.34 126.455 137.52 127.915 137.52C129.275 137.52 129.915 138.34 129.915 140.16V145H132.715V138.14C132.715 135.86 131.155 134.7 129.135 134.7C127.895 134.7 126.995 134.88 126.195 135.5Z" fill="white"/>
<path fill-rule="evenodd" clip-rule="evenodd" d="M63.5673 87.3918C67.5368 91.3612 72.8154 93.5478 78.4295 93.5478C83.7118 93.5478 88.6977 91.6121 92.575 88.0773L98.9651 94.4673L97.0333 96.3996C96.6458 96.7866 96.6458 97.4157 97.0333 97.8028L106.629 107.399C106.824 107.592 107.077 107.689 107.332 107.689C107.585 107.689 107.839 107.592 108.032 107.399L113.297 102.134C113.685 101.747 113.685 101.117 113.297 100.73L103.702 91.1346C103.314 90.7471 102.685 90.7471 102.298 91.1346L100.369 93.0637L93.9781 86.6728C98.186 82.0399 100.14 75.6762 99.222 69.4496L97.2576 69.7388C98.1464 75.7656 96.1895 81.6881 91.8886 85.9891C88.2935 89.5829 83.5138 91.5633 78.4292 91.5633C73.3453 91.5633 68.5644 89.5843 64.971 85.9891C61.3772 82.3944 59.3969 77.6143 59.3969 72.5309C59.3969 67.4475 61.3763 62.667 64.971 59.0727C68.5661 55.4789 73.3458 53.4986 78.4292 53.4986C83.5136 53.4986 88.2932 55.4775 91.8886 59.0727C92.526 59.7106 93.1207 60.3953 93.6568 61.1076L95.2438 59.9138C94.6518 59.1273 93.9954 58.3717 93.2917 57.6682C89.3223 53.6983 84.0432 51.5117 78.4296 51.5117C72.8158 51.5117 67.537 53.6983 63.5674 57.6682C59.5975 61.6376 57.4109 66.9163 57.4109 72.5303C57.4109 78.1441 59.5975 83.4229 63.5674 87.3925L63.5673 87.3918ZM107.331 105.292L99.1383 97.1011L102.999 93.2406L111.191 101.432L107.331 105.292Z" fill="url(#paint0_linear_144_216)"/>
<path d="M104.199 63.1897L103.142 57.6139L93.596 71.6319C93.447 71.8492 93.2186 71.9995 92.9608 72.0489C92.7011 72.0987 92.4344 72.0427 92.2162 71.8937L83.0024 65.6187L73.2909 79.8748L71.6505 78.7568L81.9192 63.6802C82.0669 63.4633 82.2961 63.313 82.5544 63.2632C82.8137 63.2138 83.0804 63.2698 83.299 63.4183L92.5124 69.6938L101.501 56.4951L95.9237 57.5536L95.5543 55.6029L104.46 53.9126L106.15 62.8186L104.199 63.1897Z" fill="url(#paint1_linear_144_216)"/>
<rect x="305.024" width="171" height="177" rx="16" fill="#1B1B1B"/>
<path d="M358.568 145H361.568V131H358.568V145ZM371.978 135.78C371.978 136.38 372.338 137.08 372.538 137.64L372.058 137.8C371.858 137.24 371.778 136.42 371.358 136C370.618 135.24 369.598 134.7 368.258 134.7C365.418 134.7 363.358 137.18 363.278 140.02C363.178 142.98 365.278 145.32 368.278 145.32C369.618 145.32 370.638 144.86 371.378 144.08C371.778 143.66 371.858 142.82 372.058 142.26L372.518 142.42C372.338 142.98 371.978 143.68 371.978 144.28V145L374.778 144.98V130.48L371.978 130.5V135.78ZM368.718 142.72C367.038 142.72 366.078 141.6 366.078 140.08C366.078 138.56 367.038 137.3 368.718 137.3C370.398 137.3 371.378 138.56 371.378 140.08C371.378 141.6 370.398 142.72 368.718 142.72ZM382.826 145.32C386.106 145.32 387.646 143.18 387.946 142.14H384.726C384.526 142.52 383.766 142.98 382.546 142.98C380.646 142.98 379.746 141.78 379.746 140.8H388.166C388.186 140.64 388.166 140.16 388.166 139.94C388.186 137.16 385.946 134.7 382.306 134.7C378.786 134.7 376.306 136.96 376.306 139.94C376.306 142.92 378.586 145.32 382.826 145.32ZM379.746 139.06C379.746 137.9 380.826 136.84 382.386 136.84C383.926 136.84 384.866 137.78 384.866 139.06H379.746ZM396.809 144C397.209 143.54 397.269 142.72 397.449 142.14L397.909 142.3C397.749 142.86 397.389 143.58 397.389 144.18V145H400.189V135H397.389V135.76C397.389 136.36 397.749 137.06 397.929 137.62L397.449 137.78C397.269 137.2 397.209 136.38 396.789 135.94C396.069 135.16 395.049 134.7 393.729 134.7C390.789 134.7 388.689 136.96 388.689 139.94C388.689 142.92 390.789 145.32 393.729 145.32C395.069 145.32 396.089 144.82 396.809 144ZM391.489 139.94C391.489 138.42 392.529 137.3 393.929 137.3C395.549 137.3 396.409 138.42 396.409 139.94C396.389 141.44 395.329 142.72 393.929 142.72C392.529 142.72 391.489 141.44 391.489 139.94ZM403.796 141.32C403.796 142.98 404.336 145 406.396 145H409.096V142.4H407.916C406.976 142.4 406.596 142.16 406.596 141.32V137.4H409.196V135H406.596V131H403.796V135H401.796V137.4H403.796V141.32ZM416.83 145.32C420.11 145.32 421.65 143.18 421.95 142.14H418.73C418.53 142.52 417.77 142.98 416.55 142.98C414.65 142.98 413.75 141.78 413.75 140.8H422.17C422.19 140.64 422.17 140.16 422.17 139.94C422.19 137.16 419.95 134.7 416.31 134.7C412.79 134.7 410.31 136.96 410.31 139.94C410.31 142.92 412.59 145.32 416.83 145.32ZM413.75 139.06C413.75 137.9 414.83 136.84 416.39 136.84C417.93 136.84 418.87 137.78 418.87 139.06H413.75Z" fill="white"/>
<path d="M390.024 57.225C390.296 57.225 390.557 57.1171 390.749 56.9249C390.941 56.7327 391.049 56.4719 391.049 56.2V51.075C391.049 50.509 390.59 50.05 390.024 50.05C389.458 50.05 388.999 50.509 388.999 51.075V56.2C388.999 56.4719 389.107 56.7327 389.299 56.9249C389.491 57.1171 389.752 57.225 390.024 57.225Z" fill="url(#paint2_linear_144_216)"/>
<path d="M374.804 62.9298C374.995 63.1275 375.257 63.24 375.532 63.2423C375.807 63.2451 376.072 63.1366 376.266 62.9422C376.46 62.7482 376.569 62.4837 376.566 62.2087C376.564 61.9336 376.451 61.6714 376.253 61.4802L372.629 57.856C372.438 57.6579 372.175 57.5453 371.9 57.543C371.625 57.5407 371.361 57.6487 371.167 57.8432C370.972 58.0377 370.864 58.3017 370.867 58.5767C370.869 58.8517 370.981 59.1144 371.18 59.3052L374.804 62.9298Z" fill="url(#paint3_linear_144_216)"/>
<path d="M364.399 77.725H369.524C370.09 77.725 370.549 77.2661 370.549 76.7C370.549 76.134 370.09 75.675 369.524 75.675H364.399C363.833 75.675 363.374 76.134 363.374 76.7C363.374 77.2661 363.833 77.725 364.399 77.725Z" fill="url(#paint4_linear_144_216)"/>
<path d="M371.904 95.8434C372.176 95.8434 372.437 95.7354 372.629 95.5432L376.254 91.9187V91.9192C376.642 91.5169 376.636 90.8772 376.241 90.4818C375.845 90.0864 375.206 90.081 374.804 90.4695L371.18 94.094C370.886 94.3868 370.799 94.828 370.957 95.211C371.116 95.594 371.49 95.8433 371.904 95.8433L371.904 95.8434Z" fill="url(#paint5_linear_144_216)"/>
<path d="M408.144 95.8437C408.558 95.8437 408.932 95.5943 409.09 95.2113C409.249 94.8283 409.161 94.3871 408.868 94.0943L405.243 90.4698H405.244C405.053 90.2721 404.79 90.1595 404.515 90.1568C404.24 90.1545 403.976 90.2629 403.782 90.457C403.587 90.6514 403.479 90.9159 403.482 91.1909C403.484 91.4659 403.597 91.7281 403.794 91.9194L407.419 95.5439V95.5435C407.611 95.7357 407.872 95.8436 408.144 95.8436V95.8437Z" fill="url(#paint6_linear_144_216)"/>
<path d="M410.524 77.725H415.649C416.215 77.725 416.674 77.2661 416.674 76.7C416.674 76.134 416.215 75.675 415.649 75.675H410.524C409.958 75.675 409.499 76.134 409.499 76.7C409.499 77.2661 409.958 77.725 410.524 77.725Z" fill="url(#paint7_linear_144_216)"/>
<path d="M404.519 63.2296C404.791 63.2296 405.052 63.1216 405.244 62.9295L408.869 59.3049H408.868C409.066 59.1141 409.179 58.8515 409.181 58.5765C409.183 58.3014 409.075 58.0374 408.881 57.8429C408.686 57.6485 408.422 57.5405 408.147 57.5428C407.872 57.545 407.61 57.6576 407.419 57.8558L403.794 61.4803V61.4798C403.502 61.7731 403.414 62.2138 403.573 62.5968C403.731 62.9798 404.105 63.2296 404.519 63.2296V63.2296Z" fill="url(#paint8_linear_144_216)"/>
<path d="M383.028 92.6899L382.439 96.2651C382.39 96.5621 382.474 96.8655 382.669 97.0947C382.864 97.324 383.149 97.4562 383.451 97.4562H383.622L383.861 99.783H383.451C382.885 99.783 382.426 100.242 382.426 100.808V105.195C382.426 105.467 382.534 105.728 382.727 105.92C382.919 106.112 383.18 106.22 383.451 106.22H384.525L384.62 107.158H384.62C384.656 108.437 385.264 109.634 386.278 110.416C387.342 111.26 388.665 111.711 390.024 111.693C392.98 111.693 395.389 109.664 395.426 107.158L395.521 106.22H396.594C396.866 106.22 397.126 106.112 397.319 105.92C397.511 105.727 397.619 105.467 397.619 105.195V100.808C397.619 100.536 397.511 100.275 397.319 100.083C397.126 99.8909 396.866 99.7829 396.594 99.7829H396.184L396.424 97.4561H396.595C396.896 97.4561 397.182 97.3238 397.376 97.0946C397.571 96.8653 397.655 96.562 397.607 96.265L397.019 92.6898C401.95 90.5313 405.609 86.2172 406.933 80.9998C408.257 75.7819 407.099 70.2455 403.793 65.9973C400.488 61.7485 395.407 59.2634 390.023 59.2634C384.64 59.2634 379.559 61.7486 376.253 65.9973C372.948 70.246 371.789 75.7823 373.114 80.9998C374.437 86.2172 378.096 90.5313 383.027 92.6898L383.028 92.6899ZM395.568 101.833V104.17H384.478V101.833H395.568ZM393.379 106.997V107.099C393.379 108.501 391.875 109.641 390.027 109.641H390.027C389.143 109.655 388.281 109.368 387.581 108.828C387.033 108.419 386.7 107.783 386.676 107.099V106.997L386.595 106.22H393.468L393.379 106.997ZM394.123 99.783H385.923L385.684 97.4562H394.358L394.123 99.783ZM386.948 80.8H384.898C384.355 80.8 383.833 80.584 383.449 80.1997C383.064 79.8153 382.848 79.2936 382.848 78.75C382.848 78.2064 383.064 77.6848 383.449 77.3004C383.833 76.916 384.355 76.7 384.898 76.7C385.442 76.7 385.964 76.916 386.348 77.3004C386.732 77.6848 386.948 78.2064 386.948 78.75V80.8ZM390.023 61.325C394.861 61.3227 399.417 63.5951 402.327 67.4594C405.236 71.3242 406.159 76.3321 404.818 80.9801C403.478 85.6278 400.031 89.375 395.511 91.0973C395.054 91.2712 394.784 91.743 394.865 92.2248L395.387 95.4106H393.099V92.0751C393.099 91.5091 392.64 91.0501 392.074 91.0501C391.508 91.0501 391.049 91.5091 391.049 92.0751V95.4064H388.999V82.8499H391.049V83.8749C391.049 84.4409 391.508 84.8999 392.074 84.8999C392.64 84.8999 393.099 84.4409 393.099 83.8749V82.8499H395.149C396.236 82.8499 397.279 82.4179 398.048 81.6492C398.817 80.88 399.249 79.8371 399.249 78.7499C399.249 77.6627 398.817 76.6198 398.048 75.8506C397.279 75.0819 396.236 74.6499 395.149 74.6499C394.062 74.6499 393.019 75.0819 392.249 75.8506C391.481 76.6198 391.049 77.6627 391.049 78.7499V80.7999H388.999V78.7499C388.999 77.6627 388.567 76.6198 387.798 75.8506C387.029 75.0819 385.986 74.6499 384.899 74.6499C383.812 74.6499 382.769 75.0819 381.999 75.8506C381.231 76.6198 380.799 77.6627 380.799 78.7499C380.799 79.8371 381.231 80.88 381.999 81.6492C382.769 82.4179 383.812 82.8499 384.899 82.8499H386.949V95.4064H384.661L385.182 92.2207C385.263 91.7389 384.993 91.2671 384.537 91.0932C380.02 89.3686 376.577 85.6219 375.239 80.976C373.9 76.3306 374.823 71.3259 377.729 67.4624C380.636 63.5994 385.189 61.3265 390.023 61.3251L390.023 61.325ZM393.098 80.8V78.75C393.098 78.2064 393.314 77.6848 393.699 77.3004C394.083 76.916 394.605 76.7 395.148 76.7C395.692 76.7 396.214 76.916 396.598 77.3004C396.982 77.6848 397.198 78.2064 397.198 78.75C397.198 79.2936 396.982 79.8153 396.598 80.1997C396.214 80.584 395.692 80.8 395.148 80.8H393.098Z" fill="url(#paint9_linear_144_216)"/>
<path d="M390.024 65.425C393.019 65.4287 395.891 66.6197 398.008 68.7379C400.127 70.8556 401.318 73.7275 401.321 76.7224C401.321 77.2884 401.78 77.7474 402.346 77.7474C402.912 77.7474 403.371 77.2884 403.371 76.7224C403.367 73.1838 401.96 69.7913 399.458 67.2887C396.956 64.7867 393.563 63.3791 390.024 63.375C389.458 63.375 388.999 63.834 388.999 64.4C388.999 64.966 389.458 65.425 390.024 65.425V65.425Z" fill="url(#paint10_linear_144_216)"/>
<path d="M386.949 65.4251C386.949 65.9912 386.49 66.4501 385.924 66.4501C385.358 66.4501 384.899 65.9912 384.899 65.4251C384.899 64.8591 385.358 64.4001 385.924 64.4001C386.49 64.4001 386.949 64.8591 386.949 65.4251Z" fill="url(#paint11_linear_144_216)"/>
<path d="M393.099 87.975C393.099 88.541 392.64 89 392.074 89C391.508 89 391.049 88.541 391.049 87.975C391.049 87.4089 391.508 86.95 392.074 86.95C392.64 86.95 393.099 87.4089 393.099 87.975Z" fill="url(#paint12_linear_144_216)"/>
<rect x="610.048" width="171" height="177" rx="16" fill="#1B1B1B"/>
<path d="M668.821 145.02C672.821 145.04 675.981 141.86 675.981 137.7C675.981 133.54 672.921 130.7 668.921 130.7H662.621V145H665.301L668.821 145.02ZM665.621 142.2V133.54H668.401C671.141 133.54 673.081 135.4 673.081 137.74C673.081 140.08 671.041 142.2 668.301 142.2H665.621ZM683.637 145.32C686.917 145.32 688.457 143.18 688.757 142.14H685.537C685.337 142.52 684.577 142.98 683.357 142.98C681.457 142.98 680.557 141.78 680.557 140.8H688.977C688.997 140.64 688.977 140.16 688.977 139.94C688.997 137.16 686.757 134.7 683.117 134.7C679.597 134.7 677.117 136.96 677.117 139.94C677.117 142.92 679.397 145.32 683.637 145.32ZM680.557 139.06C680.557 137.9 681.637 136.84 683.197 136.84C684.737 136.84 685.677 137.78 685.677 139.06H680.557ZM700.087 141.62C700.087 137.58 692.847 138.86 692.847 137.64C692.847 137.12 693.747 136.92 694.667 136.92C696.267 136.92 697.067 137.42 697.067 138H699.887C699.887 136.74 698.847 134.7 694.867 134.7C691.467 134.7 690.047 136.12 690.047 137.68C690.047 141.14 697.227 140.16 697.227 141.78C697.227 142.12 696.907 142.7 695.447 142.7C693.507 142.7 692.807 141.82 692.807 141.4H689.987C689.987 143 691.247 145.32 695.087 145.32C698.527 145.32 700.087 143.48 700.087 141.62ZM701.523 133.8H704.523V131H701.523V133.8ZM701.643 145H704.423V135H701.643V145ZM715.003 143.96C715.403 143.54 715.483 142.72 715.683 142.18L716.163 142.34C715.943 142.9 715.543 143.56 715.503 144.14C715.483 144.38 715.483 144.62 715.483 144.9C715.483 146.52 714.383 147.4 712.123 147.4C710.643 147.4 709.883 147.08 709.583 145.82H706.563C706.803 148.32 708.643 150 712.203 150C716.583 150 718.283 148 718.283 145.28V135H715.483L715.523 135.76C715.563 136.36 715.943 137.04 716.163 137.6L715.703 137.78C715.483 137.22 715.383 136.38 714.963 135.96C714.183 135.16 713.043 134.7 711.643 134.7C708.563 134.7 706.383 136.96 706.383 139.94C706.383 142.92 708.563 145.32 711.643 145.32C713.063 145.32 714.203 144.8 715.003 143.96ZM709.183 140.06C709.183 138.58 710.163 137.42 712.023 137.42C713.803 137.42 714.783 138.46 714.883 139.84V140.28C714.783 141.68 713.803 142.62 712.023 142.62C710.163 142.62 709.183 141.56 709.183 140.06ZM724.131 135.5C723.431 136.04 723.151 137.22 722.831 138.06L722.371 137.88C722.691 137.04 723.131 136 723.131 135.12V135H720.331V145H723.131V140.16C723.131 138.34 724.391 137.52 725.851 137.52C727.211 137.52 727.851 138.34 727.851 140.16V145H730.651V138.14C730.651 135.86 729.091 134.7 727.071 134.7C725.831 134.7 724.931 134.88 724.131 135.5Z" fill="white"/>
<path d="M697.312 111.177C697.312 111.876 696.745 112.441 696.048 112.441C695.35 112.441 694.784 111.875 694.784 111.177C694.784 110.48 695.35 109.913 696.048 109.913C696.746 109.913 697.312 110.48 697.312 111.177ZM703.848 48.523C695.45 46.4393 686.743 47.7511 679.329 52.2174C671.917 56.6827 666.688 63.7677 664.604 72.1652C660.303 89.5044 670.909 107.108 688.247 111.409C688.311 111.425 688.375 111.432 688.438 111.432C688.792 111.432 689.115 111.193 689.204 110.833C689.309 110.409 689.051 109.981 688.627 109.876C672.135 105.785 662.046 89.04 666.136 72.5469C668.119 64.5578 673.093 57.8177 680.143 53.571C687.195 49.3231 695.478 48.0751 703.466 50.0579C719.958 54.1476 730.045 70.8929 725.955 87.3861C723.267 98.2227 714.898 106.778 704.114 109.714C703.694 109.828 703.445 110.262 703.559 110.683C703.673 111.103 704.107 111.352 704.528 111.238C715.865 108.151 724.663 99.1579 727.488 87.7661C731.789 70.4295 721.183 52.8242 703.845 48.5222L703.848 48.523ZM699.576 71.284V73.8148H692.518V71.2831C685.635 72.8611 680.683 78.8432 680.437 85.9467H683.517V93.0041H676.46V85.9467H679.248C679.46 79.3463 683.449 73.641 689.294 71.0967L678.841 71.0972V71.7205H676.403V69.2842H678.841V69.9074H692.518V66.7569H699.576V69.9074H713.475V69.2842H715.912V71.7205H713.475V71.0972H702.787C708.693 73.6857 712.727 79.5442 712.852 86.1838H715.873V93.2421H708.816V86.1838H711.663C711.517 79.0446 706.51 72.8822 699.576 71.284ZM710.005 87.3735L710.005 92.0522H714.685V87.3728L710.005 87.3724L710.005 87.3735ZM677.649 87.1359V91.8153H682.328V87.1359H677.649ZM698.387 67.9453H693.708V72.6242H698.387V67.9453Z" fill="url(#paint13_linear_144_216)"/>
<rect x="915.072" width="171" height="177" rx="16" fill="#1B1B1B"/>
<path d="M954.775 139.16C957.975 139.16 960.395 138.36 960.395 135C960.395 131.64 957.935 131 954.975 131H949.375V145H952.375V139.14C953.395 139.16 954.235 139.16 954.775 139.16ZM952.375 136.68V133.5H954.415C956.135 133.5 957.495 133.5 957.495 135C957.495 136.58 956.015 136.68 954.415 136.68H952.375ZM965.384 135.62C964.664 136.12 964.264 137.22 963.904 138.02L963.464 137.82C963.824 137.02 964.284 136 964.284 135.12V135H961.484V145H964.284V141C964.284 138.22 966.984 137.3 969.544 137.3V134.7C967.684 134.7 966.484 134.86 965.384 135.62ZM970.775 140C970.775 143.3 973.075 145.32 976.655 145.32C980.235 145.32 982.535 143.14 982.535 140C982.535 136.88 980.235 134.7 976.655 134.7C973.075 134.7 970.775 136.7 970.775 140ZM973.775 140C973.775 138.56 974.515 137.4 976.655 137.4C978.775 137.4 979.535 138.56 979.535 140C979.535 141.44 978.775 142.62 976.655 142.62C974.515 142.62 973.775 141.44 973.775 140ZM985.486 141.32C985.486 142.98 986.026 145 988.086 145H990.786V142.4H989.606C988.666 142.4 988.286 142.16 988.286 141.32V137.4H990.886V135H988.286V131H985.486V135H983.486V137.4H985.486V141.32ZM992.22 140C992.22 143.3 994.52 145.32 998.1 145.32C1001.68 145.32 1003.98 143.14 1003.98 140C1003.98 136.88 1001.68 134.7 998.1 134.7C994.52 134.7 992.22 136.7 992.22 140ZM995.22 140C995.22 138.56 995.96 137.4 998.1 137.4C1000.22 137.4 1000.98 138.56 1000.98 140C1000.98 141.44 1000.22 142.62 998.1 142.62C995.96 142.62 995.22 141.44 995.22 140ZM1006.93 141.32C1006.93 142.98 1007.47 145 1009.53 145H1012.23V142.4H1011.05C1010.11 142.4 1009.73 142.16 1009.73 141.32V137.4H1012.33V135H1009.73V131H1006.93V135H1004.93V137.4H1006.93V141.32ZM1017.13 135H1013.63L1018.51 144.5L1017.93 145.56C1017.37 146.58 1016.87 147.2 1015.67 147.2H1013.99V150H1017.05C1018.69 150 1019.75 148.68 1020.67 146.74C1020.99 146.1 1021.27 145.6 1021.57 144.98L1026.55 135H1023.05L1020.75 139.92C1020.35 140.76 1020.35 141.92 1020.35 142.82H1019.85C1019.85 141.92 1019.83 140.76 1019.45 139.92L1017.13 135ZM1030.77 144.22C1030.77 143.62 1030.39 142.92 1030.19 142.36L1030.67 142.2C1030.87 142.76 1030.97 143.58 1031.39 144C1032.11 144.76 1033.13 145.3 1034.47 145.3C1037.31 145.3 1039.37 142.82 1039.47 139.98C1039.55 137 1037.45 134.68 1034.45 134.68C1033.13 134.68 1032.09 135.14 1031.37 135.92C1030.95 136.34 1030.87 137.18 1030.69 137.74L1030.21 137.58C1030.41 137.02 1030.77 136.32 1030.77 135.72V135L1027.97 135.02V150.02L1030.77 150V144.22ZM1034.01 137.28C1035.69 137.28 1036.67 138.4 1036.67 139.92C1036.67 141.44 1035.69 142.7 1034.01 142.7C1032.33 142.7 1031.37 141.44 1031.37 139.92C1031.37 138.4 1032.33 137.28 1034.01 137.28ZM1046.92 145.32C1050.2 145.32 1051.74 143.18 1052.04 142.14H1048.82C1048.62 142.52 1047.86 142.98 1046.64 142.98C1044.74 142.98 1043.84 141.78 1043.84 140.8H1052.26C1052.28 140.64 1052.26 140.16 1052.26 139.94C1052.28 137.16 1050.04 134.7 1046.4 134.7C1042.88 134.7 1040.4 136.96 1040.4 139.94C1040.4 142.92 1042.68 145.32 1046.92 145.32ZM1043.84 139.06C1043.84 137.9 1044.92 136.84 1046.48 136.84C1048.02 136.84 1048.96 137.78 1048.96 139.06H1043.84Z" fill="white"/>
<path d="M984.936 52.1597H957.159C956.825 52.1597 956.552 51.8944 956.542 51.5603C956.542 51.3982 956.607 51.243 956.724 51.1307C956.84 51.0175 956.997 50.9563 957.159 50.9609H984.936C985.097 50.9563 985.252 51.0183 985.365 51.1314C985.478 51.2446 985.54 51.3998 985.536 51.5603C985.536 51.7193 985.472 51.8722 985.36 51.9846C985.248 52.097 985.095 52.1597 984.936 52.1597L984.936 52.1597Z" fill="url(#paint14_linear_144_216)"/>
<path d="M984.936 92.0443H957.159C956.98 92.0741 956.797 92.0244 956.658 91.9067C956.52 91.7897 956.44 91.6177 956.44 91.4365C956.44 91.2546 956.52 91.0825 956.658 90.9656C956.797 90.8486 956.98 90.7982 957.159 90.828H984.936C985.233 90.8784 985.45 91.1353 985.45 91.4365C985.45 91.737 985.233 91.9939 984.936 92.0443V92.0443Z" fill="url(#paint15_linear_144_216)"/>
<path d="M973.464 49.592H968.634C968.455 49.6226 968.272 49.5721 968.133 49.4551C967.995 49.3382 967.915 49.1654 967.915 48.9842C967.915 48.803 967.995 48.6302 968.133 48.5133C968.272 48.3963 968.455 48.3459 968.634 48.3764H973.464C973.76 48.4261 973.977 48.683 973.977 48.9842C973.977 49.2854 973.76 49.5423 973.464 49.592V49.592Z" fill="url(#paint16_linear_144_216)"/>
<path d="M972.865 94.7512C972.865 95.7535 972.052 96.5662 971.049 96.5662C970.047 96.5662 969.234 95.7535 969.234 94.7512C969.234 93.7489 970.047 92.9363 971.049 92.9363C972.052 92.9363 972.865 93.7489 972.865 94.7512Z" fill="url(#paint17_linear_144_216)"/>
<path d="M972.246 67.7778H960.259C960.097 67.7778 959.942 67.712 959.829 67.5966C959.716 67.4804 959.655 67.3229 959.659 67.1616V56.3039C959.655 56.1419 959.716 55.9851 959.829 55.8689C959.942 55.7527 960.097 55.6877 960.259 55.6877H972.332C972.673 55.6877 972.949 55.9637 972.949 56.3039V67.1616C972.95 67.3405 972.874 67.5117 972.739 67.6302C972.604 67.7487 972.424 67.803 972.246 67.7778L972.246 67.7778ZM960.772 66.5622H971.647V56.9033H960.772V66.5622Z" fill="url(#paint18_linear_144_216)"/>
<path d="M981.922 56.99H974.662C974.331 56.99 974.062 56.7217 974.062 56.3906C974.062 56.0596 974.331 55.7913 974.662 55.7913H981.923H981.922C982.253 55.7913 982.522 56.0596 982.522 56.3906C982.522 56.5497 982.459 56.7018 982.347 56.8142C982.234 56.9266 982.081 56.99 981.922 56.99L981.922 56.99Z" fill="url(#paint19_linear_144_216)"/>
<path d="M980.707 60.6206H974.662C974.331 60.6206 974.063 60.3523 974.063 60.0212C974.063 59.6902 974.331 59.4219 974.662 59.4219H980.707C980.868 59.4173 981.023 59.4784 981.136 59.5924C981.25 59.7055 981.311 59.8607 981.306 60.0212C981.306 60.1803 981.243 60.3324 981.13 60.4448C981.018 60.5572 980.866 60.6206 980.707 60.6206L980.707 60.6206Z" fill="url(#paint20_linear_144_216)"/>
<path d="M981.306 64.2509H974.662C974.365 64.2005 974.147 63.9436 974.147 63.6424C974.147 63.3419 974.365 63.085 974.662 63.0346H981.306C981.485 63.0048 981.667 63.0545 981.807 63.1722C981.945 63.2892 982.024 63.4612 982.024 63.6424C982.024 63.8243 981.945 63.9963 981.807 64.1133C981.667 64.2303 981.485 64.2807 981.306 64.2509V64.2509Z" fill="url(#paint21_linear_144_216)"/>
<path d="M981.922 67.95H974.662C974.331 67.95 974.062 67.6816 974.062 67.3506C974.062 67.0196 974.331 66.7512 974.662 66.7512H981.923H981.922C982.253 66.7512 982.522 67.0196 982.522 67.3506C982.522 67.5096 982.459 67.6617 982.347 67.7741C982.234 67.8865 982.081 67.95 981.922 67.95L981.922 67.95Z" fill="url(#paint22_linear_144_216)"/>
<path d="M960.175 71.7527C959.844 71.7527 959.575 71.4843 959.575 71.1533V70.8452C959.575 70.5142 959.844 70.2458 960.175 70.2458H960.483C960.814 70.2458 961.083 70.5142 961.083 70.8452C961.087 71.0838 960.944 71.3016 960.723 71.3926C960.632 71.6143 960.414 71.7565 960.175 71.7527Z" fill="url(#paint23_linear_144_216)"/>
<path d="M960.175 85.572C960.015 85.5766 959.86 85.5147 959.746 85.4016C959.633 85.2876 959.571 85.1325 959.575 84.9727V84.4069C959.575 84.0759 959.844 83.8076 960.175 83.8076C960.506 83.8076 960.774 84.0759 960.774 84.4069V84.9727C960.774 85.1317 960.711 85.2838 960.599 85.3962C960.487 85.5086 960.334 85.5721 960.175 85.5721L960.175 85.572ZM960.175 83.6028C959.844 83.6028 959.575 83.3344 959.575 83.0034V82.4377C959.571 82.2763 959.632 82.1189 959.745 82.0026C959.858 81.8872 960.013 81.8215 960.175 81.8215C960.509 81.8306 960.775 82.1043 960.774 82.4376V83.0034C960.774 83.1624 960.711 83.3145 960.599 83.4269C960.487 83.5393 960.334 83.6028 960.175 83.6028L960.175 83.6028ZM960.175 81.6335C960.013 81.6335 959.858 81.5677 959.745 81.4515C959.632 81.3353 959.571 81.1786 959.575 81.0165V80.4684C959.61 80.1648 959.869 79.9355 960.175 79.9378C960.509 79.947 960.775 80.2207 960.774 80.554V81.1021C960.74 81.4095 960.483 81.6434 960.175 81.6503L960.175 81.6335ZM960.175 79.6474V79.6466C960.015 79.6512 959.86 79.59 959.746 79.4761C959.633 79.363 959.571 79.2078 959.575 79.0472V78.4823C959.575 78.1512 959.844 77.8829 960.175 77.8829C960.506 77.8829 960.774 78.1512 960.774 78.4823V79.0472C960.774 79.3783 960.506 79.6466 960.175 79.6466L960.175 79.6474ZM960.175 77.6781V77.6773C959.844 77.6773 959.575 77.409 959.575 77.078V76.513C959.571 76.3524 959.633 76.1972 959.746 76.0841C959.86 75.9702 960.015 75.909 960.175 75.9136C960.506 75.9136 960.774 76.182 960.774 76.513V77.078C960.774 77.237 960.711 77.3899 960.599 77.5023C960.487 77.6147 960.334 77.6773 960.175 77.6773L960.175 77.6781ZM960.175 75.7088V75.7081C960.013 75.7081 959.858 75.6431 959.745 75.5269C959.632 75.4107 959.571 75.2539 959.575 75.0919V74.5437C959.571 74.3816 959.632 74.2249 959.745 74.1087C959.858 73.9925 960.013 73.9275 960.175 73.9275C960.509 73.9367 960.775 74.2096 960.774 74.5437V75.0918C960.775 75.4259 960.509 75.6989 960.175 75.708V75.7088ZM960.175 73.7227V73.722C960.008 73.7273 959.847 73.6608 959.733 73.54C959.618 73.4184 959.561 73.2541 959.575 73.0882V72.5232C959.575 72.1922 959.844 71.9238 960.175 71.9238C960.506 71.9238 960.774 72.1922 960.774 72.5232V73.0882C960.784 73.2533 960.725 73.4146 960.611 73.5346C960.498 73.6539 960.34 73.7219 960.175 73.7219L960.175 73.7227Z" fill="url(#paint24_linear_144_216)"/>
<path d="M960.482 87.2847H960.173C960.013 87.2893 959.858 87.2274 959.744 87.1142C959.631 87.0003 959.569 86.8451 959.574 86.6853V86.3765C959.574 86.0454 959.842 85.7771 960.173 85.7771C960.412 85.7779 960.626 85.9193 960.721 86.1372C960.939 86.232 961.08 86.4468 961.081 86.6853C961.081 86.8443 961.018 86.9965 960.905 87.1089C960.793 87.2213 960.641 87.2847 960.482 87.2847L960.482 87.2847Z" fill="url(#paint25_linear_144_216)"/>
<path d="M980.022 87.2847H979.406C979.245 87.2893 979.09 87.2273 978.976 87.1142C978.863 87.0003 978.801 86.8451 978.806 86.6853C978.806 86.3543 979.075 86.0859 979.406 86.0859H980.022C980.356 86.0852 980.629 86.3512 980.638 86.6853C980.638 86.8466 980.573 87.0018 980.457 87.115C980.341 87.2281 980.184 87.2893 980.022 87.2847H980.022ZM977.847 87.2847H977.231C977.07 87.2893 976.915 87.2273 976.802 87.1142C976.688 87.0003 976.627 86.8451 976.631 86.6853C976.631 86.3543 976.9 86.0859 977.231 86.0859H977.847C978.178 86.0859 978.446 86.3543 978.446 86.6853C978.451 86.8397 978.394 86.9896 978.288 87.102C978.182 87.2144 978.036 87.2801 977.881 87.2847H977.847ZM975.672 87.2847H975.056C974.895 87.2893 974.74 87.2273 974.627 87.1142C974.513 87.0003 974.452 86.8451 974.456 86.6853C974.456 86.3543 974.725 86.0859 975.056 86.0859H975.672C976.003 86.0859 976.271 86.3543 976.271 86.6853C976.276 86.8397 976.219 86.9896 976.113 87.102C976.008 87.2144 975.861 87.2801 975.706 87.2847H975.672ZM973.497 87.2847H972.881C972.719 87.2893 972.562 87.2281 972.446 87.115C972.33 87.0018 972.265 86.8466 972.265 86.6853C972.274 86.3512 972.547 86.0852 972.881 86.0859H973.498C973.829 86.0859 974.097 86.3543 974.097 86.6853C974.102 86.8397 974.044 86.9896 973.938 87.102C973.833 87.2144 973.686 87.2801 973.531 87.2847H973.497ZM971.322 87.2847H970.706C970.545 87.2893 970.387 87.2281 970.271 87.115C970.155 87.0018 970.09 86.8466 970.09 86.6853C970.099 86.3512 970.373 86.0852 970.706 86.0859H971.323C971.654 86.0859 971.922 86.3543 971.922 86.6853C971.922 87.0033 971.675 87.2664 971.357 87.2847H971.322ZM969.147 87.2847H968.531H968.532C968.37 87.2893 968.213 87.2281 968.097 87.115C967.98 87.0018 967.915 86.8466 967.915 86.6853C967.924 86.3512 968.198 86.0852 968.532 86.0859H969.148C969.479 86.0859 969.747 86.3543 969.747 86.6853C969.748 87.0033 969.5 87.2664 969.182 87.2847H969.147ZM966.972 87.2847H966.322C966.16 87.2893 966.004 87.2281 965.887 87.115C965.771 87.0018 965.706 86.8466 965.706 86.6853C965.715 86.3512 965.988 86.0852 966.322 86.0859H966.938C967.27 86.0859 967.538 86.3543 967.538 86.6853C967.54 86.9911 967.312 87.2495 967.007 87.2847H966.972ZM964.797 87.2847H964.163H964.165C963.834 87.2847 963.566 87.0163 963.566 86.6853C963.566 86.3543 963.834 86.0859 964.165 86.0859H964.799H964.798C965.129 86.0859 965.397 86.3543 965.397 86.6853C965.398 87.0033 965.15 87.2664 964.832 87.2847H964.797ZM962.622 87.2847H962.024C961.693 87.2847 961.425 87.0163 961.425 86.6853C961.425 86.3543 961.693 86.0859 962.024 86.0859H962.658H962.657C962.988 86.0859 963.257 86.3543 963.257 86.6853C963.257 86.8443 963.194 86.9965 963.082 87.1089C962.969 87.2212 962.816 87.2847 962.657 87.2847L962.622 87.2847Z" fill="url(#paint26_linear_144_216)"/>
<path d="M981.922 87.2845H981.614C981.283 87.2845 981.015 87.0162 981.015 86.6852C981.011 86.4459 981.153 86.228 981.375 86.137C981.466 85.9161 981.684 85.7731 981.922 85.7769C982.253 85.7769 982.522 86.0453 982.522 86.3763V86.6852C982.522 86.8442 982.459 86.9963 982.347 87.1087C982.234 87.2211 982.081 87.2845 981.922 87.2845L981.922 87.2845Z" fill="url(#paint27_linear_144_216)"/>
<path d="M981.922 85.5722C981.589 85.5722 981.315 85.3061 981.306 84.9728V84.4071C981.356 84.1104 981.613 83.8933 981.914 83.8933C982.215 83.8933 982.472 84.1104 982.522 84.4071V84.9728C982.522 85.1318 982.459 85.2839 982.347 85.3963C982.234 85.5087 982.081 85.5722 981.922 85.5722L981.922 85.5722ZM981.922 83.6029C981.589 83.6029 981.315 83.3368 981.306 83.0035V82.4378C981.276 82.2589 981.326 82.0762 981.443 81.9378C981.561 81.7994 981.733 81.7191 981.914 81.7191C982.095 81.7191 982.268 81.7994 982.385 81.9378C982.502 82.0762 982.552 82.2589 982.522 82.4378V83.0035C982.522 83.1625 982.459 83.3147 982.347 83.427C982.234 83.5394 982.081 83.6029 981.922 83.6029L981.922 83.6029ZM981.922 81.6336C981.582 81.6336 981.306 81.3576 981.306 81.0167V80.4517C981.356 80.1551 981.613 79.9379 981.914 79.9379C982.215 79.9379 982.472 80.1551 982.522 80.4517V81.0167C982.526 81.1803 982.466 81.3393 982.354 81.4578C982.241 81.577 982.086 81.6458 981.922 81.6504L981.922 81.6336ZM981.922 79.6475V79.6467C981.761 79.6513 981.604 79.5902 981.487 79.4778C981.372 79.3646 981.306 79.2094 981.306 79.0474V78.4824C981.356 78.1858 981.613 77.9686 981.914 77.9686C982.215 77.9686 982.472 78.1858 982.522 78.4824V79.0474C982.522 79.3784 982.253 79.6467 981.922 79.6467L981.922 79.6475ZM981.922 77.6782V77.6775C981.589 77.6775 981.315 77.4122 981.306 77.0781V76.5131C981.356 76.2165 981.613 75.9994 981.914 75.9994C982.215 75.9994 982.472 76.2165 982.522 76.5131V77.0781C982.522 77.2371 982.459 77.39 982.347 77.5024C982.234 77.6148 982.081 77.6775 981.922 77.6775L981.922 77.6782ZM981.922 75.7089V75.7082C981.582 75.7082 981.306 75.4322 981.306 75.092V74.527C981.356 74.2296 981.613 74.0125 981.914 74.0125C982.215 74.0125 982.472 74.2296 982.522 74.527V75.092C982.522 75.4261 982.256 75.699 981.922 75.7082L981.922 75.7089ZM981.922 73.7228V73.7221C981.761 73.7267 981.604 73.6655 981.487 73.5523C981.372 73.44 981.306 73.2848 981.306 73.1227V72.5577C981.356 72.2603 981.613 72.0432 981.914 72.0432C982.215 72.0432 982.472 72.2603 982.522 72.5577V73.0883C982.532 73.2534 982.473 73.4147 982.359 73.5348C982.246 73.654 982.087 73.7221 981.922 73.7221L981.922 73.7228Z" fill="url(#paint28_linear_144_216)"/>
<path d="M981.922 71.7527C981.507 71.5891 981.178 71.2604 981.015 70.8452C981.015 70.5142 981.283 70.2458 981.614 70.2458H981.922C982.253 70.2458 982.522 70.5142 982.522 70.8452V71.1533C982.522 71.3123 982.459 71.4645 982.347 71.5769C982.234 71.6892 982.081 71.7527 981.922 71.7527L981.922 71.7527Z" fill="url(#paint29_linear_144_216)"/>
<path d="M980.022 71.375H979.406C979.075 71.375 978.806 71.1067 978.806 70.7756C978.806 70.4446 979.075 70.1763 979.406 70.1763H980.022C980.356 70.1763 980.629 70.4416 980.638 70.7756C980.638 70.9377 980.573 71.0929 980.457 71.2053C980.341 71.3184 980.184 71.3796 980.022 71.375H980.022ZM977.847 71.375H977.231C977.07 71.3796 976.915 71.3184 976.802 71.2045C976.688 71.0914 976.627 70.9362 976.631 70.7756C976.631 70.4446 976.9 70.1763 977.231 70.1763H977.847C978.181 70.1763 978.454 70.4416 978.464 70.7756C978.464 71.0998 978.206 71.3658 977.881 71.375H977.847ZM975.672 71.375H975.056C974.895 71.3796 974.74 71.3184 974.627 71.2045C974.513 71.0914 974.452 70.9362 974.456 70.7756C974.456 70.4446 974.725 70.1763 975.056 70.1763H975.672C976.003 70.1763 976.271 70.4446 976.271 70.7756C976.276 70.9301 976.219 71.0799 976.113 71.1923C976.008 71.3047 975.861 71.3704 975.706 71.375H975.672ZM973.497 71.375H972.881C972.72 71.3796 972.565 71.3184 972.452 71.2045C972.339 71.0914 972.277 70.9362 972.281 70.7756C972.281 70.4446 972.55 70.1763 972.881 70.1763H973.498C973.829 70.1763 974.097 70.4446 974.097 70.7756C974.102 70.9301 974.044 71.0799 973.938 71.1923C973.833 71.3047 973.686 71.3704 973.531 71.375H973.497ZM971.322 71.375H970.706C970.545 71.3796 970.387 71.3184 970.271 71.2053C970.155 71.0929 970.09 70.9377 970.09 70.7756C970.099 70.4416 970.373 70.1763 970.706 70.1763H971.323C971.654 70.1763 971.922 70.4446 971.922 70.7756C971.922 71.0937 971.674 71.3567 971.357 71.375H971.322ZM969.147 71.375H968.531H968.532C968.37 71.3796 968.213 71.3184 968.097 71.2053C967.98 71.0929 967.915 70.9377 967.915 70.7756C967.924 70.4416 968.198 70.1763 968.532 70.1763H969.148C969.479 70.1763 969.747 70.4446 969.747 70.7756C969.748 71.0937 969.5 71.3567 969.182 71.375H969.147ZM967.007 71.375H966.322C966.16 71.3796 966.003 71.3184 965.887 71.2053C965.771 71.0929 965.706 70.9377 965.706 70.7756C965.715 70.4416 965.988 70.1763 966.322 70.1763H966.938C967.269 70.1763 967.538 70.4446 967.538 70.7756C967.54 71.0814 967.311 71.3398 967.007 71.375H967.007ZM964.832 71.375H964.198C963.867 71.375 963.599 71.1067 963.599 70.7756C963.599 70.4446 963.867 70.1763 964.198 70.1763H964.832C965.163 70.1763 965.432 70.4446 965.432 70.7756C965.432 70.9347 965.369 71.0868 965.256 71.1992C965.144 71.3116 964.991 71.375 964.832 71.375L964.832 71.375ZM962.657 71.375H962.024C961.693 71.375 961.425 71.1067 961.425 70.7756C961.425 70.4446 961.693 70.1763 962.024 70.1763H962.658H962.657C962.988 70.1763 963.257 70.4446 963.257 70.7756C963.257 70.9347 963.194 71.0868 963.081 71.1992C962.969 71.3116 962.816 71.375 962.657 71.375L962.657 71.375Z" fill="url(#paint30_linear_144_216)"/>
<path d="M982.797 98.6732H959.284C958.513 98.6242 957.793 98.2733 957.279 97.6961C956.766 97.1182 956.501 96.3621 956.544 95.5906V48.5996C956.501 47.8282 956.766 47.0714 957.279 46.4941C957.793 45.9169 958.513 45.5653 959.284 45.5171H982.797C983.568 45.5653 984.289 45.9169 984.802 46.4941C985.315 47.0713 985.579 47.8282 985.537 48.5996V95.5906C985.584 96.3628 985.321 97.1219 984.807 97.7006C984.293 98.2786 983.569 98.6287 982.797 98.6731L982.797 98.6732ZM959.284 46.7326C958.35 46.8319 957.67 47.6645 957.76 48.5995V95.5905C957.711 96.0423 957.845 96.4949 958.131 96.8481C958.417 97.2013 958.831 97.4268 959.284 97.4742H982.797C983.252 97.4307 983.671 97.2074 983.961 96.8535C984.25 96.4995 984.386 96.0446 984.338 95.5905V48.5995C984.428 47.6584 983.738 46.8228 982.797 46.7326H959.284Z" fill="url(#paint31_linear_144_216)"/>
<path d="M1045 52.1597H1017.22C1016.88 52.1597 1016.61 51.8944 1016.6 51.5603C1016.6 51.3982 1016.67 51.243 1016.78 51.1307C1016.9 51.0175 1017.06 50.9563 1017.22 50.9609H1045C1045.16 50.9563 1045.31 51.0183 1045.42 51.1314C1045.54 51.2446 1045.6 51.3998 1045.59 51.5603C1045.59 51.7193 1045.53 51.8722 1045.42 51.9846C1045.31 52.097 1045.15 52.1597 1045 52.1597L1045 52.1597Z" fill="url(#paint32_linear_144_216)"/>
<path d="M1045 92.0443H1017.22C1017.04 92.0741 1016.86 92.0244 1016.72 91.9067C1016.58 91.7897 1016.5 91.6177 1016.5 91.4365C1016.5 91.2546 1016.58 91.0825 1016.72 90.9656C1016.86 90.8486 1017.04 90.7982 1017.22 90.828H1045C1045.29 90.8784 1045.51 91.1353 1045.51 91.4365C1045.51 91.737 1045.29 91.9939 1045 92.0443V92.0443Z" fill="url(#paint33_linear_144_216)"/>
<path d="M1033.52 49.592H1028.69C1028.51 49.6226 1028.33 49.5721 1028.19 49.4551C1028.05 49.3382 1027.97 49.1654 1027.97 48.9842C1027.97 48.803 1028.05 48.6302 1028.19 48.5133C1028.33 48.3963 1028.51 48.3459 1028.69 48.3764H1033.52C1033.82 48.4261 1034.03 48.683 1034.03 48.9842C1034.03 49.2854 1033.82 49.5423 1033.52 49.592V49.592Z" fill="url(#paint34_linear_144_216)"/>
<path d="M1032.92 94.7512C1032.92 95.7535 1032.11 96.5662 1031.11 96.5662C1030.1 96.5662 1029.29 95.7535 1029.29 94.7512C1029.29 93.7489 1030.1 92.9363 1031.11 92.9363C1032.11 92.9363 1032.92 93.7489 1032.92 94.7512Z" fill="url(#paint35_linear_144_216)"/>
<path d="M1042.85 98.6732H1019.41C1018.64 98.6242 1017.92 98.2733 1017.4 97.6961C1016.89 97.1182 1016.63 96.3621 1016.67 95.5906V48.5996C1016.63 47.8282 1016.89 47.0714 1017.4 46.4941C1017.92 45.9169 1018.64 45.5653 1019.41 45.5171H1042.85C1043.62 45.5653 1044.35 45.9169 1044.86 46.4941C1045.37 47.0713 1045.64 47.8282 1045.59 48.5996V95.5906C1045.64 96.3628 1045.38 97.1219 1044.86 97.7006C1044.35 98.2786 1043.63 98.6287 1042.85 98.6731L1042.85 98.6732ZM1019.41 46.7326C1018.48 46.8319 1017.8 47.6645 1017.89 48.5995V95.5905C1017.84 96.0423 1017.97 96.4949 1018.26 96.8481C1018.54 97.2013 1018.96 97.4268 1019.41 97.4742H1042.85C1043.31 97.4307 1043.73 97.2074 1044.02 96.8535C1044.31 96.4995 1044.44 96.0446 1044.4 95.5905V48.5995C1044.48 47.6584 1043.79 46.8228 1042.85 46.7326H1019.41Z" fill="url(#paint36_linear_144_216)"/>
<path d="M989.68 85.3823C988.635 85.3823 987.691 84.7523 987.291 83.786C986.891 82.8197 987.112 81.7073 987.852 80.9681C988.591 80.2289 989.703 80.0071 990.67 80.4077C991.636 80.8076 992.266 81.751 992.266 82.7968C992.257 84.2211 991.105 85.3732 989.68 85.3824L989.68 85.3823ZM989.68 81.2379C989.05 81.2379 988.482 81.6178 988.24 82.2004C987.999 82.7822 988.132 83.4526 988.578 83.8984C989.024 84.3441 989.694 84.4779 990.277 84.2363C990.859 83.9955 991.239 83.4267 991.239 82.7967C991.243 82.3816 991.08 81.9825 990.787 81.6897C990.494 81.3961 990.095 81.2333 989.68 81.2379L989.68 81.2379Z" fill="url(#paint37_linear_144_216)"/>
<path d="M1010.4 64.6795C1010.3 64.6795 1010.21 64.6497 1010.13 64.5939C1009.97 64.5075 1009.87 64.3439 1009.87 64.1658V60.0213C1009.87 59.8386 1009.97 59.6704 1010.13 59.5756C1010.28 59.4907 1010.47 59.4907 1010.63 59.5756L1014.77 61.6474V61.6482C1014.95 61.7338 1015.06 61.9135 1015.06 62.1107C1015.06 62.3064 1014.94 62.4846 1014.77 62.5725L1010.63 64.6443V64.6451C1010.55 64.6719 1010.48 64.6841 1010.4 64.6795H1010.4ZM1010.92 60.8607V63.3263L1013.38 62.0932L1010.92 60.8607Z" fill="url(#paint38_linear_144_216)"/>
<path d="M996.325 84.6465C994.625 84.5738 992.969 84.0922 991.496 83.242C991.377 83.174 991.291 83.0616 991.255 82.9301C991.22 82.7986 991.239 82.658 991.307 82.5402C991.456 82.2918 991.775 82.2084 992.026 82.3514C992.026 82.3514 995.845 84.5945 998.585 83.0532C1000.57 81.9233 1001.6 79.0455 1001.6 74.4907C1001.6 68.7195 1002.88 64.7807 1005.42 62.7944L1005.42 62.7952C1006.87 61.6614 1008.75 61.2119 1010.56 61.562C1010.83 61.6331 1011 61.9168 1010.93 62.1958C1010.86 62.4749 1010.58 62.6431 1010.3 62.5719C1008.81 62.2975 1007.27 62.6782 1006.09 63.617C1003.84 65.3295 1002.66 69.1483 1002.66 74.4913C1002.66 79.4407 1001.46 82.6089 999.116 83.9445C998.264 84.4208 997.301 84.6624 996.325 84.6463L996.325 84.6465Z" fill="url(#paint39_linear_144_216)"/>
<path d="M1041.98 72.968H1020.23C1020.09 72.968 1019.96 72.9114 1019.86 72.8121C1019.77 72.7119 1019.71 72.5766 1019.72 72.4374V55.963C1019.71 55.8254 1019.77 55.6916 1019.86 55.5945C1019.96 55.4967 1020.09 55.4447 1020.23 55.4493H1041.98C1042.26 55.4493 1042.49 55.6794 1042.49 55.963V72.523C1042.45 72.776 1042.24 72.9633 1041.98 72.9679V72.968ZM1020.74 71.9237H1041.45V56.3912H1020.74V71.9237Z" fill="url(#paint40_linear_144_216)"/>
<path d="M1032.67 87.4549H1032.13C1031.85 87.4549 1031.62 87.2248 1031.62 86.9412C1031.62 86.6568 1031.85 86.4274 1032.13 86.4274C1032.11 86.2722 1032.15 86.1132 1032.25 85.9916C1032.35 85.8708 1032.5 85.8013 1032.66 85.8013C1032.81 85.8013 1032.96 85.8708 1033.06 85.9916C1033.16 86.1132 1033.21 86.2722 1033.18 86.4274V86.9412C1033.18 87.0772 1033.12 87.208 1033.03 87.3043C1032.93 87.4006 1032.8 87.4549 1032.67 87.4549V87.4549Z" fill="url(#paint41_linear_144_216)"/>
<path d="M1030.66 87.455H1029.68C1029.4 87.455 1029.17 87.2249 1029.17 86.9412C1029.17 86.6568 1029.4 86.4275 1029.68 86.4275H1030.68C1030.96 86.4275 1031.19 86.6568 1031.19 86.9412C1031.19 87.2249 1030.96 87.455 1030.68 87.455H1030.66ZM1028.18 87.455H1027.18C1026.9 87.455 1026.67 87.2249 1026.67 86.9412C1026.67 86.6568 1026.9 86.4275 1027.18 86.4275H1028.18C1028.46 86.4275 1028.69 86.6568 1028.69 86.9412C1028.69 87.2249 1028.46 87.455 1028.18 87.455ZM1025.69 87.455H1024.72C1024.43 87.455 1024.2 87.2249 1024.2 86.9412C1024.2 86.6568 1024.43 86.4275 1024.72 86.4275H1025.69C1025.98 86.4275 1026.21 86.6568 1026.21 86.9412C1026.21 87.2249 1025.98 87.455 1025.69 87.455ZM1023.23 87.455H1022.24C1021.95 87.455 1021.72 87.2249 1021.72 86.9412C1021.72 86.6568 1021.95 86.4275 1022.24 86.4275H1023.23C1023.51 86.4275 1023.74 86.6568 1023.74 86.9412C1023.74 87.2249 1023.51 87.455 1023.23 87.455Z" fill="url(#paint42_linear_144_216)"/>
<path d="M1020.74 87.4548H1020.23C1020.09 87.4594 1019.96 87.4067 1019.86 87.3096C1019.76 87.2117 1019.71 87.0787 1019.72 86.9411V86.4273C1019.72 86.1429 1019.95 85.9136 1020.23 85.9136C1020.51 85.9136 1020.74 86.1429 1020.74 86.4273C1021.03 86.4273 1021.26 86.6567 1021.26 86.9411C1021.26 87.2247 1021.03 87.4548 1020.74 87.4548V87.4548Z" fill="url(#paint43_linear_144_216)"/>
<path d="M1020.23 85.2121C1020.09 85.2174 1019.96 85.1647 1019.86 85.0668C1019.77 84.9697 1019.71 84.8359 1019.72 84.6983V83.5508C1019.72 83.2672 1019.95 83.0371 1020.23 83.0371C1020.52 83.0371 1020.75 83.2672 1020.75 83.5508V84.6983C1020.75 84.8359 1020.7 84.9697 1020.6 85.0668C1020.5 85.1647 1020.37 85.2174 1020.23 85.2121V85.2121ZM1020.23 82.3353C1020.09 82.3399 1019.96 82.2879 1019.86 82.19C1019.77 82.0929 1019.71 81.9591 1019.72 81.8215V80.674C1019.72 80.3904 1019.95 80.1602 1020.23 80.1602C1020.52 80.1602 1020.75 80.3904 1020.75 80.674V81.8215C1020.75 81.9591 1020.7 82.0929 1020.6 82.19C1020.5 82.2879 1020.37 82.3399 1020.23 82.3353V82.3353ZM1020.23 79.4585C1020.09 79.4631 1019.96 79.4103 1019.86 79.3132C1019.77 79.2161 1019.71 79.0823 1019.72 78.9447V77.7972C1019.72 77.5136 1019.95 77.2834 1020.23 77.2834C1020.52 77.2834 1020.75 77.5136 1020.75 77.7972V78.9447C1020.75 79.0823 1020.7 79.2161 1020.6 79.3132C1020.5 79.4103 1020.37 79.4631 1020.23 79.4585V79.4585Z" fill="url(#paint44_linear_144_216)"/>
<path d="M1020.23 76.5125C1020.09 76.5171 1019.96 76.4651 1019.86 76.3672C1019.77 76.2701 1019.71 76.1363 1019.72 75.9987V75.485C1019.71 75.3474 1019.77 75.2136 1019.86 75.1165C1019.96 75.0186 1020.09 74.9666 1020.23 74.9712H1020.75C1020.88 74.9666 1021.02 75.0186 1021.11 75.1165C1021.21 75.2136 1021.26 75.3474 1021.26 75.485C1021.26 75.7686 1021.03 75.9987 1020.75 75.9987C1020.75 76.1363 1020.7 76.2701 1020.6 76.3672C1020.5 76.4651 1020.37 76.5171 1020.23 76.5125Z" fill="url(#paint45_linear_144_216)"/>
<path d="M1030.66 76.0682H1029.68C1029.4 76.0682 1029.16 75.8403 1029.15 75.5544C1029.15 75.4145 1029.21 75.2815 1029.31 75.1844C1029.41 75.0881 1029.55 75.0361 1029.68 75.0407H1030.68C1030.96 75.0407 1031.19 75.27 1031.19 75.5544C1031.18 75.8403 1030.95 76.0682 1030.66 76.0682H1030.66ZM1028.18 76.0682H1027.18C1026.9 76.0682 1026.67 75.838 1026.67 75.5544C1026.67 75.4168 1026.72 75.283 1026.82 75.1851C1026.91 75.0881 1027.05 75.0353 1027.18 75.0407H1028.18C1028.32 75.0353 1028.45 75.0881 1028.55 75.1851C1028.64 75.283 1028.7 75.4168 1028.69 75.5544C1028.69 75.838 1028.46 76.0682 1028.18 76.0682H1028.18ZM1025.69 76.0682H1024.72C1024.43 76.0682 1024.2 75.8403 1024.19 75.5544C1024.19 75.4145 1024.24 75.2815 1024.34 75.1844C1024.44 75.0881 1024.58 75.0361 1024.72 75.0407H1025.69C1025.83 75.0361 1025.97 75.0881 1026.07 75.1844C1026.17 75.2815 1026.23 75.4145 1026.23 75.5544C1026.22 75.8403 1025.98 76.0682 1025.69 76.0682H1025.69ZM1023.23 76.0682H1022.24C1021.95 76.0682 1021.72 75.838 1021.72 75.5544C1021.72 75.4168 1021.77 75.283 1021.87 75.1851C1021.96 75.0881 1022.1 75.0353 1022.24 75.0407H1023.23C1023.51 75.0407 1023.74 75.27 1023.74 75.5544C1023.73 75.8342 1023.51 76.059 1023.23 76.0682V76.0682Z" fill="url(#paint46_linear_144_216)"/>
<path d="M1032.67 76.5124C1032.53 76.517 1032.39 76.465 1032.29 76.3679C1032.19 76.2716 1032.13 76.1378 1032.13 75.9987C1031.85 75.9895 1031.63 75.7648 1031.62 75.4849C1031.62 75.2013 1031.85 74.9712 1032.13 74.9712H1032.67C1032.95 74.9712 1033.18 75.2013 1033.18 75.4849V75.9987C1033.18 76.2823 1032.95 76.5124 1032.67 76.5124L1032.67 76.5124Z" fill="url(#paint47_linear_144_216)"/>
<path d="M1032.67 85.212C1032.38 85.212 1032.14 84.9849 1032.13 84.6982V83.5507C1032.11 83.3963 1032.15 83.2365 1032.25 83.1157C1032.35 82.9949 1032.5 82.9253 1032.66 82.9253C1032.81 82.9253 1032.96 82.9949 1033.06 83.1157C1033.16 83.2365 1033.21 83.3963 1033.18 83.5507V84.6982C1033.17 84.9781 1032.95 85.2036 1032.67 85.212V85.212ZM1032.67 82.3352C1032.53 82.3398 1032.39 82.2878 1032.29 82.1907C1032.19 82.0944 1032.13 81.9606 1032.13 81.8214V80.6739C1032.11 80.5195 1032.15 80.3597 1032.25 80.2389C1032.35 80.1181 1032.5 80.0485 1032.66 80.0485C1032.81 80.0485 1032.96 80.1181 1033.06 80.2389C1033.16 80.3597 1033.21 80.5195 1033.18 80.6739V81.8214C1033.18 82.1051 1032.95 82.3352 1032.67 82.3352H1032.67ZM1032.67 79.4584C1032.53 79.463 1032.39 79.411 1032.29 79.3139C1032.19 79.2168 1032.13 79.0838 1032.13 78.9446V77.7971C1032.18 77.5448 1032.4 77.3613 1032.66 77.3613C1032.91 77.3613 1033.13 77.5448 1033.18 77.7971V78.9446C1033.18 79.2283 1032.95 79.4584 1032.67 79.4584L1032.67 79.4584Z" fill="url(#paint48_linear_144_216)"/>
<path d="M1041.45 87.4549H1040.42C1040.14 87.4549 1039.91 87.2248 1039.91 86.9411C1039.91 86.6568 1040.14 86.4274 1040.42 86.4274H1040.94V85.3823C1040.98 85.13 1041.2 84.9465 1041.46 84.9465C1041.71 84.9465 1041.93 85.13 1041.98 85.3823V86.4274C1041.99 86.5123 1041.99 86.5994 1041.98 86.6843C1042 86.7684 1042 86.8563 1041.98 86.9411C1041.98 87.0803 1041.92 87.2133 1041.82 87.3104C1041.72 87.4075 1041.59 87.4595 1041.45 87.4549L1041.45 87.4549ZM1038.86 87.4549H1037.84C1037.55 87.4549 1037.32 87.2248 1037.32 86.9411C1037.32 86.6568 1037.55 86.4274 1037.84 86.4274H1038.86C1039.15 86.4274 1039.38 86.6568 1039.38 86.9411C1039.38 87.2248 1039.15 87.4549 1038.86 87.4549H1038.86ZM1036.28 87.4549H1035.25C1034.97 87.4549 1034.74 87.2248 1034.74 86.9411C1034.74 86.6568 1034.97 86.4274 1035.25 86.4274H1036.28C1036.56 86.4274 1036.79 86.6568 1036.79 86.9411C1036.79 87.2248 1036.56 87.4549 1036.28 87.4549H1036.28ZM1035.25 85.8968L1035.25 85.8961C1035.11 85.9007 1034.97 85.8487 1034.87 85.7516C1034.77 85.6552 1034.72 85.5215 1034.72 85.3823V84.3548C1034.69 84.2004 1034.73 84.0406 1034.83 83.9198C1034.93 83.799 1035.08 83.7294 1035.24 83.7294C1035.4 83.7294 1035.55 83.799 1035.65 83.9198C1035.75 84.0406 1035.79 84.2004 1035.76 84.3548V85.3823C1035.76 85.666 1035.53 85.8961 1035.25 85.8961L1035.25 85.8968ZM1041.45 84.3556L1041.45 84.3548C1041.16 84.3456 1040.94 84.1109 1040.94 83.8243V82.7968C1040.98 82.5445 1041.2 82.361 1041.46 82.361C1041.71 82.361 1041.93 82.5445 1041.98 82.7968V83.8243C1041.98 84.1171 1041.74 84.3548 1041.45 84.3548L1041.45 84.3556ZM1035.25 83.3617C1035.11 83.3663 1034.97 83.3143 1034.87 83.2172C1034.77 83.1209 1034.72 82.9871 1034.72 82.848V81.8205C1034.69 81.6653 1034.73 81.5063 1034.83 81.3855C1034.93 81.2647 1035.08 81.1943 1035.24 81.1943C1035.4 81.1943 1035.55 81.2647 1035.65 81.3855C1035.75 81.5063 1035.79 81.6653 1035.76 81.8205V82.848C1035.76 83.1316 1035.53 83.3617 1035.25 83.3617L1035.25 83.3617ZM1041.45 81.8205C1041.16 81.8113 1040.94 81.5766 1040.94 81.2899V80.2624C1040.98 80.0094 1041.2 79.8259 1041.46 79.8259C1041.71 79.8259 1041.93 80.0094 1041.98 80.2624V81.2899C1041.95 81.5628 1041.72 81.77 1041.45 81.7693L1041.45 81.8205ZM1035.25 80.7762C1035.11 80.7808 1034.97 80.7288 1034.87 80.6317C1034.77 80.5346 1034.72 80.4016 1034.72 80.2624V79.2173C1034.76 78.965 1034.98 78.7816 1035.24 78.7816C1035.5 78.7816 1035.72 78.965 1035.76 79.2173V80.2624C1035.74 80.5254 1035.51 80.7257 1035.25 80.7242V80.7762ZM1041.45 79.2181V79.2173C1041.17 79.2173 1040.94 78.9872 1040.94 78.7036V77.6761C1040.91 77.5217 1040.95 77.3619 1041.05 77.2411C1041.15 77.1203 1041.3 77.0507 1041.46 77.0507C1041.61 77.0507 1041.76 77.1203 1041.86 77.2411C1041.97 77.3619 1042.01 77.5216 1041.98 77.6761V78.7036C1041.95 78.9742 1041.72 79.1768 1041.45 79.1661V79.2181ZM1035.25 78.2242C1034.96 78.2242 1034.73 77.9972 1034.72 77.7105V76.5117C1034.76 76.2594 1034.98 76.076 1035.24 76.076C1035.5 76.076 1035.72 76.2594 1035.76 76.5117V77.5561C1035.81 77.7158 1035.77 77.8863 1035.67 78.0171C1035.57 78.1478 1035.41 78.2242 1035.25 78.2242H1035.25ZM1041.45 76.5117C1041.17 76.5117 1040.94 76.2816 1040.94 75.998C1040.66 75.9888 1040.43 75.7641 1040.42 75.4842C1040.42 75.2006 1040.65 74.9705 1040.94 74.9705H1041.45C1041.59 74.9659 1041.72 75.0179 1041.82 75.115C1041.92 75.2113 1041.98 75.3451 1041.98 75.4842V75.998C1041.98 76.1371 1041.92 76.2709 1041.82 76.3672C1041.72 76.4643 1041.59 76.5163 1041.45 76.5117V76.5117ZM1039.39 75.998H1038.35C1038.07 75.998 1037.84 75.7679 1037.84 75.4842C1037.83 75.3466 1037.88 75.2129 1037.98 75.1158C1038.08 75.0179 1038.21 74.9659 1038.35 74.9705H1039.39C1039.68 74.9705 1039.91 75.2006 1039.91 75.4843C1039.92 75.631 1039.87 75.7763 1039.78 75.8871C1039.68 75.9972 1039.54 76.0622 1039.39 76.0668L1039.39 75.998ZM1036.79 75.998H1035.76C1035.48 75.998 1035.25 75.7679 1035.25 75.4842C1035.24 75.3466 1035.3 75.2129 1035.39 75.1158C1035.49 75.0179 1035.63 74.9659 1035.76 74.9705H1036.79C1036.93 74.9659 1037.07 75.0179 1037.17 75.115C1037.27 75.2113 1037.32 75.3451 1037.32 75.4842C1037.34 75.6341 1037.29 75.7824 1037.19 75.8932C1037.08 76.0041 1036.94 76.0676 1036.79 76.0668L1036.79 75.998Z" fill="url(#paint49_linear_144_216)"/>
<rect x="1220.1" width="171" height="177" rx="16" fill="#1B1B1B"/>
<path d="M1290.84 145V133.8H1294.46V131H1284.24V133.8H1287.84V145H1290.84ZM1302.29 145.32C1305.57 145.32 1307.11 143.18 1307.41 142.14H1304.19C1303.99 142.52 1303.23 142.98 1302.01 142.98C1300.11 142.98 1299.21 141.78 1299.21 140.8H1307.63C1307.65 140.64 1307.63 140.16 1307.63 139.94C1307.65 137.16 1305.41 134.7 1301.77 134.7C1298.25 134.7 1295.77 136.96 1295.77 139.94C1295.77 142.92 1298.05 145.32 1302.29 145.32ZM1299.21 139.06C1299.21 137.9 1300.29 136.84 1301.85 136.84C1303.39 136.84 1304.33 137.78 1304.33 139.06H1299.21ZM1318.74 141.62C1318.74 137.58 1311.5 138.86 1311.5 137.64C1311.5 137.12 1312.4 136.92 1313.32 136.92C1314.92 136.92 1315.72 137.42 1315.72 138H1318.54C1318.54 136.74 1317.5 134.7 1313.52 134.7C1310.12 134.7 1308.7 136.12 1308.7 137.68C1308.7 141.14 1315.88 140.16 1315.88 141.78C1315.88 142.12 1315.56 142.7 1314.1 142.7C1312.16 142.7 1311.46 141.82 1311.46 141.4H1308.64C1308.64 143 1309.9 145.32 1313.74 145.32C1317.18 145.32 1318.74 143.48 1318.74 141.62ZM1321.76 141.32C1321.76 142.98 1322.3 145 1324.36 145H1327.06V142.4H1325.88C1324.94 142.4 1324.56 142.16 1324.56 141.32V137.4H1327.16V135H1324.56V131H1321.76V135H1319.76V137.4H1321.76V141.32Z" fill="white"/>
<path d="M1334.7 52.2417H1276.49V109.758H1334.7C1334.7 101.505 1334.7 60.7746 1334.7 52.2417H1334.7ZM1278.28 54.033H1296.51V61.7938L1278.28 61.7934V54.033ZM1332.91 107.967H1278.28V63.7262H1332.91V107.967ZM1332.91 61.7934H1298.3V58.8796H1328.36V57.0887L1298.3 57.0883V54.033H1332.91V61.7934Z" fill="url(#paint50_linear_144_216)"/>
<path d="M1331.12 65.3755H1280.07V106.175H1331.12L1331.12 65.3755ZM1304.7 104.385H1281.87V67.1658H1304.7V104.385ZM1329.33 104.385H1306.49V67.1658H1329.33V104.385Z" fill="url(#paint51_linear_144_216)"/>
<path d="M1282.03 57.0884H1283.93V58.8793H1282.03V57.0884Z" fill="url(#paint52_linear_144_216)"/>
<path d="M1286.67 57.0884H1288.58V58.8793H1286.67V57.0884Z" fill="url(#paint53_linear_144_216)"/>
<path d="M1291.31 57.0884H1293.22V58.8793H1291.31V57.0884Z" fill="url(#paint54_linear_144_216)"/>
<path d="M1302.91 68.9583H1283.66V82.8183H1302.91V68.9583ZM1301.12 81.0279H1285.45V70.7493H1301.12V81.0279Z" fill="url(#paint55_linear_144_216)"/>
<path d="M1284.55 85.6167H1302.01V87.4076H1284.55V85.6167Z" fill="url(#paint56_linear_144_216)"/>
<path d="M1284.55 90.0386H1302.01V91.8295H1284.55V90.0386Z" fill="url(#paint57_linear_144_216)"/>
<path d="M1284.55 98.8811H1297.54V100.672H1284.55V98.8811Z" fill="url(#paint58_linear_144_216)"/>
<path d="M1327.54 68.9583H1308.28V82.8183H1327.54V68.9583ZM1325.75 81.0279H1310.07V70.7493H1325.75V81.0279Z" fill="url(#paint59_linear_144_216)"/>
<path d="M1315.45 85.6167H1326.64V87.4076H1315.45V85.6167Z" fill="url(#paint60_linear_144_216)"/>
<path d="M1309.18 90.0386H1326.64V91.8295H1309.18V90.0386Z" fill="url(#paint61_linear_144_216)"/>
<path d="M1309.18 98.8811H1326.64V100.672H1309.18V98.8811Z" fill="url(#paint62_linear_144_216)"/>
<path d="M1291.39 77.9078H1295.15L1295.9 79.6488H1297.36L1293.96 72.1262H1292.59L1289.2 79.6488H1290.64L1291.39 77.9078ZM1293.27 73.5237L1294.69 76.812H1291.86L1293.27 73.5237Z" fill="url(#paint63_linear_144_216)"/>
<path d="M1321.25 77.6078C1321.25 76.646 1320.71 76.0062 1319.9 75.7383C1320.48 75.4349 1320.87 74.8556 1320.87 74.0839C1320.87 72.6438 1319.53 72.1277 1318.09 72.1277H1314.57V79.6503H1318.31C1319.85 79.6499 1321.25 79.1543 1321.25 77.6079L1321.25 77.6078ZM1315.96 73.2238H1317.94C1318.74 73.2238 1319.46 73.4661 1319.46 74.2663C1319.46 75.0565 1318.73 75.2976 1317.94 75.2976L1315.96 75.2971V73.2238ZM1315.96 78.5541V76.3828H1318.22C1319.3 76.3828 1319.84 76.7448 1319.84 77.4689C1319.84 78.1921 1319.3 78.5541 1318.22 78.5541H1315.96Z" fill="url(#paint64_linear_144_216)"/>
<path d="M254.086 89.9795C254.671 90.566 254.67 91.5158 254.083 92.1008L244.521 101.634C243.935 102.219 242.985 102.218 242.4 101.632C241.815 101.045 241.817 100.095 242.403 99.5103L250.903 91.036L242.431 82.5398C241.846 81.9533 241.848 81.0035 242.435 80.4185C243.022 79.8335 243.971 79.8347 244.556 80.4212L254.086 89.9795ZM223.002 89.5L253.026 89.5388L253.022 92.5388L222.998 92.5L223.002 89.5Z" fill="url(#paint65_linear_144_216)"/>
<path d="M559.11 89.9775C559.695 90.564 559.694 91.5137 559.107 92.0988L549.544 101.633C548.958 102.218 548.008 102.217 547.423 101.63C546.838 101.044 546.84 100.094 547.427 99.5091L555.927 91.0342L547.456 82.5385C546.871 81.952 546.873 81.0023 547.46 80.4172C548.047 79.8322 548.996 79.8333 549.581 80.4198L559.11 89.9775ZM528.027 89.5L558.051 89.5368L558.045 92.5368L528.021 92.5L528.027 89.5Z" fill="url(#paint66_linear_144_216)"/>
<path d="M864.134 89.9775C864.719 90.564 864.718 91.5137 864.131 92.0988L854.568 101.633C853.982 102.218 853.032 102.217 852.447 101.63C851.862 101.044 851.864 100.094 852.451 99.5091L860.951 91.0342L852.48 82.5385C851.895 81.952 851.897 81.0023 852.484 80.4172C853.07 79.8322 854.02 79.8333 854.605 80.4198L864.134 89.9775ZM833.051 89.5L863.075 89.5368L863.069 92.5368L833.045 92.5L833.051 89.5Z" fill="url(#paint67_linear_144_216)"/>
<path d="M1169.16 89.9775C1169.74 90.564 1169.74 91.5137 1169.15 92.0988L1159.59 101.633C1159.01 102.218 1158.06 102.217 1157.47 101.63C1156.89 101.044 1156.89 100.094 1157.47 99.5091L1165.97 91.0342L1157.5 82.5385C1156.92 81.952 1156.92 81.0023 1157.51 80.4172C1158.09 79.8322 1159.04 79.8333 1159.63 80.4198L1169.16 89.9775ZM1138.07 89.5L1168.1 89.5368L1168.09 92.5368L1138.07 92.5L1138.07 89.5Z" fill="url(#paint68_linear_144_216)"/>
<defs>
<linearGradient id="paint0_linear_144_216" x1="110.666" y1="79.4041" x2="67.9665" y2="79.4041" gradientUnits="userSpaceOnUse">
<stop offset="0.144764" stop-color="#A8FFBB"/>
<stop offset="0.480469" stop-color="#6B81F0"/>
<stop offset="1" stop-color="#CC48ED"/>
</linearGradient>
<linearGradient id="paint1_linear_144_216" x1="104.356" y1="66.8029" x2="78.1329" y2="66.8029" gradientUnits="userSpaceOnUse">
<stop offset="0.144764" stop-color="#A8FFBB"/>
<stop offset="0.480469" stop-color="#6B81F0"/>
<stop offset="1" stop-color="#CC48ED"/>
</linearGradient>
<linearGradient id="paint2_linear_144_216" x1="390.942" y1="53.6125" x2="389.384" y2="53.6125" gradientUnits="userSpaceOnUse">
<stop offset="0.144764" stop-color="#A8FFBB"/>
<stop offset="0.480469" stop-color="#6B81F0"/>
<stop offset="1" stop-color="#CC48ED"/>
</linearGradient>
<linearGradient id="paint3_linear_144_216" x1="376.269" y1="60.3728" x2="371.937" y2="60.3728" gradientUnits="userSpaceOnUse">
<stop offset="0.144764" stop-color="#A8FFBB"/>
<stop offset="0.480469" stop-color="#6B81F0"/>
<stop offset="1" stop-color="#CC48ED"/>
</linearGradient>
<linearGradient id="paint4_linear_144_216" x1="370.176" y1="76.6929" x2="364.722" y2="76.6929" gradientUnits="userSpaceOnUse">
<stop offset="0.144764" stop-color="#A8FFBB"/>
<stop offset="0.480469" stop-color="#6B81F0"/>
<stop offset="1" stop-color="#CC48ED"/>
</linearGradient>
<linearGradient id="paint5_linear_144_216" x1="376.247" y1="92.9927" x2="371.943" y2="92.9927" gradientUnits="userSpaceOnUse">
<stop offset="0.144764" stop-color="#A8FFBB"/>
<stop offset="0.480469" stop-color="#6B81F0"/>
<stop offset="1" stop-color="#CC48ED"/>
</linearGradient>
<linearGradient id="paint6_linear_144_216" x1="408.872" y1="92.9803" x2="404.55" y2="92.9803" gradientUnits="userSpaceOnUse">
<stop offset="0.144764" stop-color="#A8FFBB"/>
<stop offset="0.480469" stop-color="#6B81F0"/>
<stop offset="1" stop-color="#CC48ED"/>
</linearGradient>
<linearGradient id="paint7_linear_144_216" x1="416.301" y1="76.6929" x2="410.847" y2="76.6929" gradientUnits="userSpaceOnUse">
<stop offset="0.144764" stop-color="#A8FFBB"/>
<stop offset="0.480469" stop-color="#6B81F0"/>
<stop offset="1" stop-color="#CC48ED"/>
</linearGradient>
<linearGradient id="paint8_linear_144_216" x1="408.885" y1="60.3663" x2="404.563" y2="60.3663" gradientUnits="userSpaceOnUse">
<stop offset="0.144764" stop-color="#A8FFBB"/>
<stop offset="0.480469" stop-color="#6B81F0"/>
<stop offset="1" stop-color="#CC48ED"/>
</linearGradient>
<linearGradient id="paint9_linear_144_216" x1="405.654" y1="85.2954" x2="379.134" y2="85.2954" gradientUnits="userSpaceOnUse">
<stop offset="0.144764" stop-color="#A8FFBB"/>
<stop offset="0.480469" stop-color="#6B81F0"/>
<stop offset="1" stop-color="#CC48ED"/>
</linearGradient>
<linearGradient id="paint10_linear_144_216" x1="402.624" y1="70.5109" x2="391.7" y2="70.5109" gradientUnits="userSpaceOnUse">
<stop offset="0.144764" stop-color="#A8FFBB"/>
<stop offset="0.480469" stop-color="#6B81F0"/>
<stop offset="1" stop-color="#CC48ED"/>
</linearGradient>
<linearGradient id="paint11_linear_144_216" x1="386.842" y1="65.418" x2="385.284" y2="65.418" gradientUnits="userSpaceOnUse">
<stop offset="0.144764" stop-color="#A8FFBB"/>
<stop offset="0.480469" stop-color="#6B81F0"/>
<stop offset="1" stop-color="#CC48ED"/>
</linearGradient>
<linearGradient id="paint12_linear_144_216" x1="392.992" y1="87.9678" x2="391.434" y2="87.9678" gradientUnits="userSpaceOnUse">
<stop offset="0.144764" stop-color="#A8FFBB"/>
<stop offset="0.480469" stop-color="#6B81F0"/>
<stop offset="1" stop-color="#CC48ED"/>
</linearGradient>
<linearGradient id="paint13_linear_144_216" x1="725.074" y1="79.7722" x2="675.823" y2="79.7722" gradientUnits="userSpaceOnUse">
<stop offset="0.144764" stop-color="#A8FFBB"/>
<stop offset="0.480469" stop-color="#6B81F0"/>
<stop offset="1" stop-color="#CC48ED"/>
</linearGradient>
<linearGradient id="paint14_linear_144_216" x1="984.028" y1="51.556" x2="961.99" y2="51.556" gradientUnits="userSpaceOnUse">
<stop offset="0.144764" stop-color="#A8FFBB"/>
<stop offset="0.480469" stop-color="#6B81F0"/>
<stop offset="1" stop-color="#CC48ED"/>
</linearGradient>
<linearGradient id="paint15_linear_144_216" x1="983.941" y1="91.4319" x2="961.891" y2="91.4319" gradientUnits="userSpaceOnUse">
<stop offset="0.144764" stop-color="#A8FFBB"/>
<stop offset="0.480469" stop-color="#6B81F0"/>
<stop offset="1" stop-color="#CC48ED"/>
</linearGradient>
<linearGradient id="paint16_linear_144_216" x1="973.662" y1="48.9799" x2="969.054" y2="48.9799" gradientUnits="userSpaceOnUse">
<stop offset="0.144764" stop-color="#A8FFBB"/>
<stop offset="0.480469" stop-color="#6B81F0"/>
<stop offset="1" stop-color="#CC48ED"/>
</linearGradient>
<linearGradient id="paint17_linear_144_216" x1="972.676" y1="94.7385" x2="969.916" y2="94.7385" gradientUnits="userSpaceOnUse">
<stop offset="0.144764" stop-color="#A8FFBB"/>
<stop offset="0.480469" stop-color="#6B81F0"/>
<stop offset="1" stop-color="#CC48ED"/>
</linearGradient>
<linearGradient id="paint18_linear_144_216" x1="972.258" y1="61.6935" x2="962.156" y2="61.6935" gradientUnits="userSpaceOnUse">
<stop offset="0.144764" stop-color="#A8FFBB"/>
<stop offset="0.480469" stop-color="#6B81F0"/>
<stop offset="1" stop-color="#CC48ED"/>
</linearGradient>
<linearGradient id="paint19_linear_144_216" x1="982.082" y1="56.3864" x2="975.652" y2="56.3865" gradientUnits="userSpaceOnUse">
<stop offset="0.144764" stop-color="#A8FFBB"/>
<stop offset="0.480469" stop-color="#6B81F0"/>
<stop offset="1" stop-color="#CC48ED"/>
</linearGradient>
<linearGradient id="paint20_linear_144_216" x1="980.93" y1="60.0169" x2="975.424" y2="60.0169" gradientUnits="userSpaceOnUse">
<stop offset="0.144764" stop-color="#A8FFBB"/>
<stop offset="0.480469" stop-color="#6B81F0"/>
<stop offset="1" stop-color="#CC48ED"/>
</linearGradient>
<linearGradient id="paint21_linear_144_216" x1="981.615" y1="63.6384" x2="975.627" y2="63.6384" gradientUnits="userSpaceOnUse">
<stop offset="0.144764" stop-color="#A8FFBB"/>
<stop offset="0.480469" stop-color="#6B81F0"/>
<stop offset="1" stop-color="#CC48ED"/>
</linearGradient>
<linearGradient id="paint22_linear_144_216" x1="982.082" y1="67.3464" x2="975.652" y2="67.3464" gradientUnits="userSpaceOnUse">
<stop offset="0.144764" stop-color="#A8FFBB"/>
<stop offset="0.480469" stop-color="#6B81F0"/>
<stop offset="1" stop-color="#CC48ED"/>
</linearGradient>
<linearGradient id="paint23_linear_144_216" x1="961.004" y1="70.994" x2="959.858" y2="70.994" gradientUnits="userSpaceOnUse">
<stop offset="0.144764" stop-color="#A8FFBB"/>
<stop offset="0.480469" stop-color="#6B81F0"/>
<stop offset="1" stop-color="#CC48ED"/>
</linearGradient>
<linearGradient id="paint24_linear_144_216" x1="960.713" y1="78.7003" x2="959.799" y2="78.7003" gradientUnits="userSpaceOnUse">
<stop offset="0.144764" stop-color="#A8FFBB"/>
<stop offset="0.480469" stop-color="#6B81F0"/>
<stop offset="1" stop-color="#CC48ED"/>
</linearGradient>
<linearGradient id="paint25_linear_144_216" x1="961.003" y1="86.5257" x2="959.857" y2="86.5257" gradientUnits="userSpaceOnUse">
<stop offset="0.144764" stop-color="#A8FFBB"/>
<stop offset="0.480469" stop-color="#6B81F0"/>
<stop offset="1" stop-color="#CC48ED"/>
</linearGradient>
<linearGradient id="paint26_linear_144_216" x1="979.639" y1="86.6812" x2="965.035" y2="86.6813" gradientUnits="userSpaceOnUse">
<stop offset="0.144764" stop-color="#A8FFBB"/>
<stop offset="0.480469" stop-color="#6B81F0"/>
<stop offset="1" stop-color="#CC48ED"/>
</linearGradient>
<linearGradient id="paint27_linear_144_216" x1="982.443" y1="86.5254" x2="981.298" y2="86.5254" gradientUnits="userSpaceOnUse">
<stop offset="0.144764" stop-color="#A8FFBB"/>
<stop offset="0.480469" stop-color="#6B81F0"/>
<stop offset="1" stop-color="#CC48ED"/>
</linearGradient>
<linearGradient id="paint28_linear_144_216" x1="982.466" y1="78.7604" x2="981.529" y2="78.7604" gradientUnits="userSpaceOnUse">
<stop offset="0.144764" stop-color="#A8FFBB"/>
<stop offset="0.480469" stop-color="#6B81F0"/>
<stop offset="1" stop-color="#CC48ED"/>
</linearGradient>
<linearGradient id="paint29_linear_144_216" x1="982.443" y1="70.994" x2="981.298" y2="70.994" gradientUnits="userSpaceOnUse">
<stop offset="0.144764" stop-color="#A8FFBB"/>
<stop offset="0.480469" stop-color="#6B81F0"/>
<stop offset="1" stop-color="#CC48ED"/>
</linearGradient>
<linearGradient id="paint30_linear_144_216" x1="979.639" y1="70.7716" x2="965.035" y2="70.7716" gradientUnits="userSpaceOnUse">
<stop offset="0.144764" stop-color="#A8FFBB"/>
<stop offset="0.480469" stop-color="#6B81F0"/>
<stop offset="1" stop-color="#CC48ED"/>
</linearGradient>
<linearGradient id="paint31_linear_144_216" x1="984.034" y1="71.9093" x2="961.989" y2="71.9093" gradientUnits="userSpaceOnUse">
<stop offset="0.144764" stop-color="#A8FFBB"/>
<stop offset="0.480469" stop-color="#6B81F0"/>
<stop offset="1" stop-color="#CC48ED"/>
</linearGradient>
<linearGradient id="paint32_linear_144_216" x1="1044.09" y1="51.556" x2="1022.05" y2="51.556" gradientUnits="userSpaceOnUse">
<stop offset="0.144764" stop-color="#A8FFBB"/>
<stop offset="0.480469" stop-color="#6B81F0"/>
<stop offset="1" stop-color="#CC48ED"/>
</linearGradient>
<linearGradient id="paint33_linear_144_216" x1="1044" y1="91.4319" x2="1021.95" y2="91.4319" gradientUnits="userSpaceOnUse">
<stop offset="0.144764" stop-color="#A8FFBB"/>
<stop offset="0.480469" stop-color="#6B81F0"/>
<stop offset="1" stop-color="#CC48ED"/>
</linearGradient>
<linearGradient id="paint34_linear_144_216" x1="1033.72" y1="48.9799" x2="1029.11" y2="48.9799" gradientUnits="userSpaceOnUse">
<stop offset="0.144764" stop-color="#A8FFBB"/>
<stop offset="0.480469" stop-color="#6B81F0"/>
<stop offset="1" stop-color="#CC48ED"/>
</linearGradient>
<linearGradient id="paint35_linear_144_216" x1="1032.73" y1="94.7385" x2="1029.97" y2="94.7385" gradientUnits="userSpaceOnUse">
<stop offset="0.144764" stop-color="#A8FFBB"/>
<stop offset="0.480469" stop-color="#6B81F0"/>
<stop offset="1" stop-color="#CC48ED"/>
</linearGradient>
<linearGradient id="paint36_linear_144_216" x1="1044.09" y1="71.9093" x2="1022.1" y2="71.9093" gradientUnits="userSpaceOnUse">
<stop offset="0.144764" stop-color="#A8FFBB"/>
<stop offset="0.480469" stop-color="#6B81F0"/>
<stop offset="1" stop-color="#CC48ED"/>
</linearGradient>
<linearGradient id="paint37_linear_144_216" x1="991.997" y1="82.7785" x2="988.066" y2="82.7785" gradientUnits="userSpaceOnUse">
<stop offset="0.144764" stop-color="#A8FFBB"/>
<stop offset="0.480469" stop-color="#6B81F0"/>
<stop offset="1" stop-color="#CC48ED"/>
</linearGradient>
<linearGradient id="paint38_linear_144_216" x1="1014.79" y1="62.0781" x2="1010.85" y2="62.0781" gradientUnits="userSpaceOnUse">
<stop offset="0.144764" stop-color="#A8FFBB"/>
<stop offset="0.480469" stop-color="#6B81F0"/>
<stop offset="1" stop-color="#CC48ED"/>
</linearGradient>
<linearGradient id="paint39_linear_144_216" x1="1009.92" y1="72.9653" x2="994.942" y2="72.9653" gradientUnits="userSpaceOnUse">
<stop offset="0.144764" stop-color="#A8FFBB"/>
<stop offset="0.480469" stop-color="#6B81F0"/>
<stop offset="1" stop-color="#CC48ED"/>
</linearGradient>
<linearGradient id="paint40_linear_144_216" x1="1041.31" y1="64.1472" x2="1024" y2="64.1472" gradientUnits="userSpaceOnUse">
<stop offset="0.144764" stop-color="#A8FFBB"/>
<stop offset="0.480469" stop-color="#6B81F0"/>
<stop offset="1" stop-color="#CC48ED"/>
</linearGradient>
<linearGradient id="paint41_linear_144_216" x1="1033.11" y1="86.6223" x2="1031.91" y2="86.6223" gradientUnits="userSpaceOnUse">
<stop offset="0.144764" stop-color="#A8FFBB"/>
<stop offset="0.480469" stop-color="#6B81F0"/>
<stop offset="1" stop-color="#CC48ED"/>
</linearGradient>
<linearGradient id="paint42_linear_144_216" x1="1030.7" y1="86.9376" x2="1023.5" y2="86.9377" gradientUnits="userSpaceOnUse">
<stop offset="0.144764" stop-color="#A8FFBB"/>
<stop offset="0.480469" stop-color="#6B81F0"/>
<stop offset="1" stop-color="#CC48ED"/>
</linearGradient>
<linearGradient id="paint43_linear_144_216" x1="1021.18" y1="86.6789" x2="1020.01" y2="86.6789" gradientUnits="userSpaceOnUse">
<stop offset="0.144764" stop-color="#A8FFBB"/>
<stop offset="0.480469" stop-color="#6B81F0"/>
<stop offset="1" stop-color="#CC48ED"/>
</linearGradient>
<linearGradient id="paint44_linear_144_216" x1="1020.69" y1="81.2202" x2="1019.91" y2="81.2202" gradientUnits="userSpaceOnUse">
<stop offset="0.144764" stop-color="#A8FFBB"/>
<stop offset="0.480469" stop-color="#6B81F0"/>
<stop offset="1" stop-color="#CC48ED"/>
</linearGradient>
<linearGradient id="paint45_linear_144_216" x1="1021.18" y1="75.7365" x2="1020.01" y2="75.7365" gradientUnits="userSpaceOnUse">
<stop offset="0.144764" stop-color="#A8FFBB"/>
<stop offset="0.480469" stop-color="#6B81F0"/>
<stop offset="1" stop-color="#CC48ED"/>
</linearGradient>
<linearGradient id="paint46_linear_144_216" x1="1030.7" y1="75.5506" x2="1023.5" y2="75.5506" gradientUnits="userSpaceOnUse">
<stop offset="0.144764" stop-color="#A8FFBB"/>
<stop offset="0.480469" stop-color="#6B81F0"/>
<stop offset="1" stop-color="#CC48ED"/>
</linearGradient>
<linearGradient id="paint47_linear_144_216" x1="1033.1" y1="75.7366" x2="1031.91" y2="75.7366" gradientUnits="userSpaceOnUse">
<stop offset="0.144764" stop-color="#A8FFBB"/>
<stop offset="0.480469" stop-color="#6B81F0"/>
<stop offset="1" stop-color="#CC48ED"/>
</linearGradient>
<linearGradient id="paint48_linear_144_216" x1="1033.13" y1="81.2592" x2="1032.32" y2="81.2592" gradientUnits="userSpaceOnUse">
<stop offset="0.144764" stop-color="#A8FFBB"/>
<stop offset="0.480469" stop-color="#6B81F0"/>
<stop offset="1" stop-color="#CC48ED"/>
</linearGradient>
<linearGradient id="paint49_linear_144_216" x1="1041.62" y1="81.169" x2="1036.08" y2="81.169" gradientUnits="userSpaceOnUse">
<stop offset="0.144764" stop-color="#A8FFBB"/>
<stop offset="0.480469" stop-color="#6B81F0"/>
<stop offset="1" stop-color="#CC48ED"/>
</linearGradient>
<linearGradient id="paint50_linear_144_216" x1="1331.67" y1="80.7988" x2="1287.43" y2="80.7988" gradientUnits="userSpaceOnUse">
<stop offset="0.144764" stop-color="#A8FFBB"/>
<stop offset="0.480469" stop-color="#6B81F0"/>
<stop offset="1" stop-color="#CC48ED"/>
</linearGradient>
<linearGradient id="paint51_linear_144_216" x1="1328.46" y1="85.6328" x2="1289.67" y2="85.6328" gradientUnits="userSpaceOnUse">
<stop offset="0.144764" stop-color="#A8FFBB"/>
<stop offset="0.480469" stop-color="#6B81F0"/>
<stop offset="1" stop-color="#CC48ED"/>
</linearGradient>
<linearGradient id="paint52_linear_144_216" x1="1283.83" y1="57.9776" x2="1282.39" y2="57.9776" gradientUnits="userSpaceOnUse">
<stop offset="0.144764" stop-color="#A8FFBB"/>
<stop offset="0.480469" stop-color="#6B81F0"/>
<stop offset="1" stop-color="#CC48ED"/>
</linearGradient>
<linearGradient id="paint53_linear_144_216" x1="1288.48" y1="57.9776" x2="1287.03" y2="57.9776" gradientUnits="userSpaceOnUse">
<stop offset="0.144764" stop-color="#A8FFBB"/>
<stop offset="0.480469" stop-color="#6B81F0"/>
<stop offset="1" stop-color="#CC48ED"/>
</linearGradient>
<linearGradient id="paint54_linear_144_216" x1="1293.12" y1="57.9776" x2="1291.67" y2="57.9776" gradientUnits="userSpaceOnUse">
<stop offset="0.144764" stop-color="#A8FFBB"/>
<stop offset="0.480469" stop-color="#6B81F0"/>
<stop offset="1" stop-color="#CC48ED"/>
</linearGradient>
<linearGradient id="paint55_linear_144_216" x1="1301.91" y1="75.8398" x2="1287.27" y2="75.8398" gradientUnits="userSpaceOnUse">
<stop offset="0.144764" stop-color="#A8FFBB"/>
<stop offset="0.480469" stop-color="#6B81F0"/>
<stop offset="1" stop-color="#CC48ED"/>
</linearGradient>
<linearGradient id="paint56_linear_144_216" x1="1301.1" y1="86.5059" x2="1287.83" y2="86.5059" gradientUnits="userSpaceOnUse">
<stop offset="0.144764" stop-color="#A8FFBB"/>
<stop offset="0.480469" stop-color="#6B81F0"/>
<stop offset="1" stop-color="#CC48ED"/>
</linearGradient>
<linearGradient id="paint57_linear_144_216" x1="1301.1" y1="90.9278" x2="1287.83" y2="90.9278" gradientUnits="userSpaceOnUse">
<stop offset="0.144764" stop-color="#A8FFBB"/>
<stop offset="0.480469" stop-color="#6B81F0"/>
<stop offset="1" stop-color="#CC48ED"/>
</linearGradient>
<linearGradient id="paint58_linear_144_216" x1="1296.86" y1="99.7703" x2="1286.99" y2="99.7703" gradientUnits="userSpaceOnUse">
<stop offset="0.144764" stop-color="#A8FFBB"/>
<stop offset="0.480469" stop-color="#6B81F0"/>
<stop offset="1" stop-color="#CC48ED"/>
</linearGradient>
<linearGradient id="paint59_linear_144_216" x1="1326.54" y1="75.8398" x2="1311.9" y2="75.8398" gradientUnits="userSpaceOnUse">
<stop offset="0.144764" stop-color="#A8FFBB"/>
<stop offset="0.480469" stop-color="#6B81F0"/>
<stop offset="1" stop-color="#CC48ED"/>
</linearGradient>
<linearGradient id="paint60_linear_144_216" x1="1326.06" y1="86.5059" x2="1317.55" y2="86.5059" gradientUnits="userSpaceOnUse">
<stop offset="0.144764" stop-color="#A8FFBB"/>
<stop offset="0.480469" stop-color="#6B81F0"/>
<stop offset="1" stop-color="#CC48ED"/>
</linearGradient>
<linearGradient id="paint61_linear_144_216" x1="1325.73" y1="90.9278" x2="1312.46" y2="90.9278" gradientUnits="userSpaceOnUse">
<stop offset="0.144764" stop-color="#A8FFBB"/>
<stop offset="0.480469" stop-color="#6B81F0"/>
<stop offset="1" stop-color="#CC48ED"/>
</linearGradient>
<linearGradient id="paint62_linear_144_216" x1="1325.73" y1="99.7703" x2="1312.46" y2="99.7703" gradientUnits="userSpaceOnUse">
<stop offset="0.144764" stop-color="#A8FFBB"/>
<stop offset="0.480469" stop-color="#6B81F0"/>
<stop offset="1" stop-color="#CC48ED"/>
</linearGradient>
<linearGradient id="paint63_linear_144_216" x1="1296.94" y1="75.8612" x2="1290.74" y2="75.8612" gradientUnits="userSpaceOnUse">
<stop offset="0.144764" stop-color="#A8FFBB"/>
<stop offset="0.480469" stop-color="#6B81F0"/>
<stop offset="1" stop-color="#CC48ED"/>
</linearGradient>
<linearGradient id="paint64_linear_144_216" x1="1320.9" y1="75.8627" x2="1315.82" y2="75.8627" gradientUnits="userSpaceOnUse">
<stop offset="0.144764" stop-color="#A8FFBB"/>
<stop offset="0.480469" stop-color="#6B81F0"/>
<stop offset="1" stop-color="#CC48ED"/>
</linearGradient>
<linearGradient id="paint65_linear_144_216" x1="251.463" y1="90.5403" x2="228.642" y2="90.5028" gradientUnits="userSpaceOnUse">
<stop offset="0.144764" stop-color="#A8FFBB"/>
<stop offset="0.480469" stop-color="#6B81F0"/>
<stop offset="1" stop-color="#CC48ED"/>
</linearGradient>
<linearGradient id="paint66_linear_144_216" x1="556.487" y1="90.5384" x2="533.666" y2="90.4989" gradientUnits="userSpaceOnUse">
<stop offset="0.144764" stop-color="#A8FFBB"/>
<stop offset="0.480469" stop-color="#6B81F0"/>
<stop offset="1" stop-color="#CC48ED"/>
</linearGradient>
<linearGradient id="paint67_linear_144_216" x1="861.511" y1="90.5384" x2="838.69" y2="90.4989" gradientUnits="userSpaceOnUse">
<stop offset="0.144764" stop-color="#A8FFBB"/>
<stop offset="0.480469" stop-color="#6B81F0"/>
<stop offset="1" stop-color="#CC48ED"/>
</linearGradient>
<linearGradient id="paint68_linear_144_216" x1="1166.54" y1="90.5384" x2="1143.71" y2="90.4989" gradientUnits="userSpaceOnUse">
<stop offset="0.144764" stop-color="#A8FFBB"/>
<stop offset="0.480469" stop-color="#6B81F0"/>
<stop offset="1" stop-color="#CC48ED"/>
</linearGradient>
</defs>
</svg>
