<svg xmlns="http://www.w3.org/2000/svg" width="583" height="436" fill="none" viewBox="0 0 583 436"><rect width="583" height="436" fill="#1965F8"/><path fill="#fff" d="M206.432 236V222.176L214.112 214.24L228.96 236H235.936L218.208 210.208L234.784 193.12H227.808L212.512 208.864L206.176 215.584L206.432 207.072V193.12H200.864V236H206.432ZM250.703 236.64C259.279 236.64 265.359 230.304 265.359 220.512C265.359 210.72 259.279 204.384 250.703 204.384C242.127 204.384 236.111 210.72 236.111 220.512C236.111 230.304 242.127 236.64 250.703 236.64ZM250.703 231.968C245.455 231.968 241.807 228.32 241.807 220.512C241.807 212.64 245.455 209.056 250.703 209.056C256.015 209.056 259.727 212.64 259.727 220.512C259.727 228.32 256.015 231.968 250.703 231.968ZM276.207 246.112C280.559 246.112 284.015 244.256 285.999 238.56L297.903 205.024H291.951L285.359 224.928L283.183 231.584L281.007 224.928L274.351 205.024H268.399L278.831 234.336L282.287 234.272L281.647 236.256C280.431 240.032 278.767 241.248 276.271 241.248C273.327 241.248 271.727 239.392 270.255 236.896L267.247 241.12C268.591 243.68 271.791 246.112 276.207 246.112ZM308.562 236.64C314.962 236.64 318.29 232.032 319.314 227.936V230.112C319.314 234.464 321.618 236 324.818 236H328.402V230.944H326.418C325.266 230.944 324.69 230.496 324.69 229.024V216.288C324.69 208.928 320.594 204.384 312.978 204.384C306.066 204.384 301.458 208.288 299.602 211.488L303.378 215.392C304.978 212 307.922 209.44 312.338 209.44C317.202 209.44 318.93 212.128 319.122 215.776L307.922 220.768C303.506 222.752 300.37 225.376 300.37 229.536C300.37 233.632 303.314 236.64 308.562 236.64ZM306.002 228.64C306.002 226.72 307.345 225.44 310.29 224.032L319.314 219.808V224.096C319.314 228.576 315.602 232.032 310.354 232.032C307.474 232.032 306.002 230.752 306.002 228.64ZM344.342 236.704C348.63 236.704 351.574 234.72 352.918 232.608L351.062 227.104C350.23 229.024 348.31 231.328 345.558 231.328C343.126 231.328 341.27 230.368 341.27 226.4V209.376H351.446V205.024H341.27V196.96L335.702 201.056V205.024H330.71V209.376H335.702V228.064C335.702 233.376 339.286 236.704 344.342 236.704ZM363.874 236.64C370.274 236.64 373.602 232.032 374.626 227.936V230.112C374.626 234.464 376.93 236 380.13 236H383.714V230.944H381.73C380.578 230.944 380.002 230.496 380.002 229.024V216.288C380.002 208.928 375.906 204.384 368.29 204.384C361.378 204.384 356.77 208.288 354.914 211.488L358.69 215.392C360.29 212 363.234 209.44 367.65 209.44C372.514 209.44 374.242 212.128 374.434 215.776L363.234 220.768C358.818 222.752 355.682 225.376 355.682 229.536C355.682 233.632 358.626 236.64 363.874 236.64ZM361.314 228.64C361.314 226.72 362.658 225.44 365.602 224.032L374.626 219.808V224.096C374.626 228.576 370.914 232.032 365.666 232.032C362.786 232.032 361.314 230.752 361.314 228.64Z"/></svg>