<svg width="198" height="201" viewBox="0 0 198 201" fill="none" xmlns="http://www.w3.org/2000/svg">
<path d="M136.322 104.737C148.732 95.4821 142.202 75.6481 126.721 75.5764C120.719 75.5487 115.372 71.6784 113.509 65.9794L113.221 65.0982C108.494 50.6406 87.9531 50.8969 83.589 65.4678C81.8483 71.2796 76.4496 75.2439 70.3791 75.1885C55.2018 75.05 48.5533 94.4118 60.7612 103.489L61.9718 104.389C66.8173 107.992 68.8777 114.25 67.1203 120.026L66.6812 121.469C62.2535 136.023 79.1041 147.649 91.2305 138.521C96.0808 134.87 102.779 134.851 107.632 138.492C119.798 147.62 136.474 135.623 131.687 121.186L131.395 120.306C129.508 114.615 131.51 108.325 136.322 104.737Z" stroke="#1A163A" stroke-width="1.89349" stroke-linejoin="round"/>
<path d="M112.862 63.7458C107.702 51.4961 90.3436 51.4961 85.1835 63.7458L75.107 87.6669C74.6241 88.8134 73.9826 89.8865 73.2015 90.8547L57.7502 110.006C49.2291 120.567 57.9761 136.117 71.4267 134.32L97.2611 130.867C98.4303 130.711 99.6151 130.711 100.784 130.867L126.619 134.32C140.069 136.117 148.816 120.567 140.295 110.006L124.844 90.8547C124.063 89.8865 123.421 88.8134 122.938 87.6669L112.862 63.7458Z" stroke="#1A163A" stroke-width="1.71883" stroke-linejoin="round"/>
</svg>
