<svg width="965" height="109" viewBox="0 0 965 109" fill="none" xmlns="http://www.w3.org/2000/svg">
<path d="M16.01 76.2249C16.01 72.9249 13.92 69.0749 12.82 65.9949L15.46 65.1149C16.56 68.1949 17.11 72.7049 19.42 75.0149C23.38 79.1949 28.99 82.1649 36.36 82.1649C51.98 82.1649 63.31 68.5249 63.86 52.9049C64.3 36.5149 52.75 23.7549 36.25 23.7549C28.99 23.7549 23.27 26.2849 19.31 30.5749C17 32.8849 16.56 37.5049 15.57 40.5849L12.93 39.7049C14.03 36.6249 16.01 32.7749 16.01 29.4749V25.5149L0.61 25.6249V108.125L16.01 108.015V76.2249ZM33.83 38.0549C43.07 38.0549 48.46 44.2149 48.46 52.5749C48.46 60.9349 43.07 67.8649 33.83 67.8649C24.59 67.8649 19.31 60.9349 19.31 52.5749C19.31 44.2149 24.59 38.0549 33.83 38.0549ZM93.0633 28.9249C89.1033 31.6749 86.9033 37.7249 84.9233 42.1249L82.5033 41.0249C84.4833 36.6249 87.0133 31.0149 87.0133 26.1749V25.5149H71.6133V80.5149H87.0133V58.5149C87.0133 43.2249 101.863 38.1649 115.943 38.1649V23.8649C105.713 23.8649 99.1133 24.7449 93.0633 28.9249ZM122.713 53.0149C122.713 71.1649 135.363 82.2749 155.053 82.2749C174.743 82.2749 187.393 70.2849 187.393 53.0149C187.393 35.8549 174.743 23.8649 155.053 23.8649C135.363 23.8649 122.713 34.8649 122.713 53.0149ZM139.213 53.0149C139.213 45.0949 143.283 38.7149 155.053 38.7149C166.713 38.7149 170.893 45.0949 170.893 53.0149C170.893 60.9349 166.713 67.4249 155.053 67.4249C143.283 67.4249 139.213 60.9349 139.213 53.0149ZM240.036 29.8049C240.036 33.1049 242.016 36.9549 243.116 40.0349L240.476 40.9149C239.376 37.8349 238.936 33.3249 236.626 31.0149C232.556 26.8349 226.946 23.8649 219.576 23.8649C203.956 23.8649 192.626 37.5049 192.186 53.1249C191.636 69.4049 203.186 82.2749 219.686 82.2749C227.056 82.2749 232.666 79.7449 236.736 75.4549C238.936 73.1449 239.376 68.5249 240.476 65.4449L243.006 66.3249C242.016 69.4049 240.036 73.2549 240.036 76.5549V80.5149L255.436 80.4049V0.654891L240.036 0.76489V29.8049ZM222.106 67.9749C212.866 67.9749 207.586 61.8149 207.586 53.4549C207.586 45.0949 212.866 38.1649 222.106 38.1649C231.346 38.1649 236.736 45.0949 236.736 53.4549C236.736 61.8149 231.346 67.9749 222.106 67.9749ZM303.767 77.3249C306.077 75.1249 306.847 70.8349 307.947 67.8649L310.477 68.8549C309.377 71.8249 307.287 75.4549 307.177 78.6449V80.5149H322.577V25.5149H307.177V53.4549C307.177 64.0149 302.007 68.7449 293.977 68.7449C286.607 68.7449 281.327 64.8949 281.327 53.4549V25.5149H265.927V63.2449C265.927 75.6749 276.597 82.1649 287.707 82.1649C295.407 82.1649 299.477 81.5049 303.767 77.3249ZM330.975 52.6849C330.975 71.0549 342.855 82.2749 361.335 82.2749C379.375 82.2749 389.715 71.7149 391.585 59.2849H374.975C374.975 59.2849 371.345 67.7549 360.785 67.6449C351.875 67.6449 346.155 61.5949 346.265 52.5749C346.265 43.4449 352.095 38.3849 360.565 38.3849C371.455 38.2749 374.645 46.7449 374.645 46.7449H391.255C390.155 34.9749 379.815 23.8649 361.005 23.8649C342.855 23.8649 330.975 34.3149 330.975 52.6849ZM408.695 60.2749C408.695 69.4049 411.665 80.5149 422.995 80.5149H437.845V66.2149H431.355C426.185 66.2149 424.095 64.8949 424.095 60.2749V38.7149H438.395V25.5149H424.095V3.51489H408.695V25.5149H397.695V38.7149H408.695V60.2749ZM519.87 29.8049C519.87 33.1049 521.85 36.9549 522.95 40.0349L520.31 40.9149C519.21 37.8349 518.77 33.3249 516.46 31.0149C512.39 26.8349 506.78 23.8649 499.41 23.8649C483.79 23.8649 472.46 37.5049 472.02 53.1249C471.47 69.4049 483.02 82.2749 499.52 82.2749C506.89 82.2749 512.5 79.7449 516.57 75.4549C518.77 73.1449 519.21 68.5249 520.31 65.4449L522.84 66.3249C521.85 69.4049 519.87 73.2549 519.87 76.5549V80.5149L535.27 80.4049V0.654891L519.87 0.76489V29.8049ZM501.94 67.9749C492.7 67.9749 487.42 61.8149 487.42 53.4549C487.42 45.0949 492.7 38.1649 501.94 38.1649C511.18 38.1649 516.57 45.0949 516.57 53.4549C516.57 61.8149 511.18 67.9749 501.94 67.9749ZM579.531 82.2749C597.571 82.2749 606.041 70.5049 607.691 64.7849H589.981C588.881 66.8749 584.701 69.4049 577.991 69.4049C567.541 69.4049 562.591 62.8049 562.591 57.4149H608.901C609.011 56.5349 608.901 53.8949 608.901 52.6849C609.011 37.3949 596.691 23.8649 576.671 23.8649C557.311 23.8649 543.671 36.2949 543.671 52.6849C543.671 69.0749 556.211 82.2749 579.531 82.2749ZM562.591 47.8449C562.591 41.4649 568.531 35.6349 577.111 35.6349C585.581 35.6349 590.751 40.8049 590.751 47.8449H562.591ZM670.009 61.9249C670.009 39.7049 630.189 46.7449 630.189 40.0349C630.189 37.1749 635.139 36.0749 640.199 36.0749C648.999 36.0749 653.399 38.8249 653.399 42.0149H668.909C668.909 35.0849 663.189 23.8649 641.299 23.8649C622.599 23.8649 614.789 31.6749 614.789 40.2549C614.789 59.2849 654.279 53.8949 654.279 62.8049C654.279 64.6749 652.519 67.8649 644.489 67.8649C633.819 67.8649 629.969 63.0249 629.969 60.7149H614.459C614.459 69.5149 621.389 82.2749 642.509 82.2749C661.429 82.2749 670.009 72.1549 670.009 61.9249ZM677.905 18.9149H694.405V3.51489H677.905V18.9149ZM678.565 80.5149H693.855V25.5149H678.565V80.5149ZM752.042 74.7949C754.242 72.4849 754.682 67.9749 755.782 65.0049L758.422 65.8849C757.212 68.9649 755.012 72.5949 754.792 75.7849C754.682 77.1049 754.682 78.4249 754.682 79.9649C754.682 88.8749 748.632 93.7149 736.202 93.7149C728.062 93.7149 723.882 91.9549 722.232 85.0249H705.622C706.942 98.7749 717.062 108.015 736.642 108.015C760.732 108.015 770.082 97.0149 770.082 82.0549V25.5149H754.682L754.902 29.6949C755.122 32.9949 757.212 36.7349 758.422 39.8149L755.892 40.8049C754.682 37.7249 754.132 33.1049 751.822 30.7949C747.532 26.3949 741.262 23.8649 733.562 23.8649C716.622 23.8649 704.632 36.2949 704.632 52.6849C704.632 69.0749 716.622 82.2749 733.562 82.2749C741.372 82.2749 747.642 79.4149 752.042 74.7949ZM720.032 53.3449C720.032 45.2049 725.422 38.8249 735.652 38.8249C745.442 38.8249 750.832 44.5449 751.382 52.1349V54.5549C750.832 62.2549 745.442 67.4249 735.652 67.4249C725.422 67.4249 720.032 61.5949 720.032 53.3449ZM802.25 28.2649C798.4 31.2349 796.86 37.7249 795.1 42.3449L792.57 41.3549C794.33 36.7349 796.75 31.0149 796.75 26.1749V25.5149H781.35V80.5149H796.75V53.8949C796.75 43.8849 803.68 39.3749 811.71 39.3749C819.19 39.3749 822.71 43.8849 822.71 53.8949V80.5149H838.11V42.7849C838.11 30.2449 829.53 23.8649 818.42 23.8649C811.6 23.8649 806.65 24.8549 802.25 28.2649ZM882.46 82.2749C900.5 82.2749 908.97 70.5049 910.62 64.7849H892.91C891.81 66.8749 887.63 69.4049 880.92 69.4049C870.47 69.4049 865.52 62.8049 865.52 57.4149H911.83C911.94 56.5349 911.83 53.8949 911.83 52.6849C911.94 37.3949 899.62 23.8649 879.6 23.8649C860.24 23.8649 846.6 36.2949 846.6 52.6849C846.6 69.0749 859.14 82.2749 882.46 82.2749ZM865.52 47.8449C865.52 41.4649 871.46 35.6349 880.04 35.6349C888.51 35.6349 893.68 40.8049 893.68 47.8449H865.52ZM941.589 28.9249C937.629 31.6749 935.429 37.7249 933.449 42.1249L931.029 41.0249C933.009 36.6249 935.539 31.0149 935.539 26.1749V25.5149H920.139V80.5149H935.539V58.5149C935.539 43.2249 950.389 38.1649 964.469 38.1649V23.8649C954.239 23.8649 947.639 24.7449 941.589 28.9249Z" fill="url(#paint0_linear_2_3)"/>
<defs>
<linearGradient id="paint0_linear_2_3" x1="949.619" y1="52.5149" x2="184.213" y2="52.5152" gradientUnits="userSpaceOnUse">
<stop offset="0.144764" stop-color="#A8FFBB"/>
<stop offset="0.480469" stop-color="#6B81F0"/>
<stop offset="1" stop-color="#CC48ED"/>
</linearGradient>
</defs>
</svg>
