<svg width="150" height="150" viewBox="0 0 150 150" fill="none" xmlns="http://www.w3.org/2000/svg">
<rect width="150" height="150" rx="16" fill="#2B193D"/>
<path d="M17.3906 74.9897C14.1155 65.8501 27.9631 62.2065 29.5495 71.7965C31.5248 72.0421 32.9679 73.3522 33.6741 74.9897" stroke="#FFFFFA" stroke-width="1.53371" stroke-miterlimit="10" stroke-linecap="round" stroke-linejoin="round"/>
<path d="M27.8812 72.2365C28.4134 71.9704 28.9969 71.8271 29.5905 71.8169" stroke="#FFFFFA" stroke-width="1.53371" stroke-miterlimit="10" stroke-linecap="round" stroke-linejoin="round"/>
<path d="M17.0939 78.4797H33.4695" stroke="#FFFFFA" stroke-width="1.53371" stroke-miterlimit="10" stroke-linecap="round" stroke-linejoin="round"/>
<path d="M19.1409 81.5503H31.4226" stroke="#FFFFFA" stroke-width="1.53371" stroke-miterlimit="10" stroke-linecap="round" stroke-linejoin="round"/>
<path d="M22.2113 84.6206H28.3522" stroke="#FFFFFA" stroke-width="1.53371" stroke-miterlimit="10" stroke-linecap="round" stroke-linejoin="round"/>
<path d="M53.9057 81H50.9626L47.4589 76.4218H47.1786H44.5391V81H42.1099V64.6493H47.1786C49.2652 64.6493 50.8769 65.1632 52.0137 66.191C53.1505 67.2032 53.7188 68.6514 53.7188 70.5356C53.7188 71.9059 53.3996 73.0583 52.7612 73.9926C52.1383 74.9269 51.2351 75.5965 50.0516 76.0014L53.9057 81ZM44.5391 66.8917V74.1561H47.1552C48.5256 74.1561 49.5377 73.8602 50.1918 73.2685C50.8614 72.6767 51.1962 71.7658 51.1962 70.5356C51.1962 69.3054 50.8614 68.3944 50.1918 67.8027C49.5377 67.1954 48.5256 66.8917 47.1552 66.8917H44.5391ZM58.0264 68.083C57.6059 68.083 57.24 67.935 56.9286 67.6392C56.6327 67.3433 56.4848 66.9774 56.4848 66.5413C56.4848 66.1053 56.6327 65.7394 56.9286 65.4435C57.24 65.1476 57.6059 64.9997 58.0264 64.9997C58.4624 64.9997 58.8284 65.1476 59.1242 65.4435C59.4357 65.7394 59.5914 66.1053 59.5914 66.5413C59.5914 66.9774 59.4357 67.3433 59.1242 67.6392C58.8284 67.935 58.4624 68.083 58.0264 68.083ZM56.8585 81V69.9516H59.1943V81H56.8585ZM66.5059 81.2803C65.2757 81.2803 64.248 81.0078 63.4227 80.4628C62.5973 79.9022 62.0912 79.1314 61.9044 78.1503L64.0066 77.6364C64.3803 78.8199 65.2212 79.4117 66.5293 79.4117C67.1833 79.4117 67.705 79.2715 68.0943 78.9912C68.4836 78.7109 68.6782 78.345 68.6782 77.8934C68.6782 77.1771 67.9931 76.6865 66.6227 76.4218L65.2679 76.1649C63.0879 75.7289 61.9978 74.7089 61.9978 73.105C61.9978 72.0928 62.3949 71.2675 63.1891 70.629C63.9833 69.9906 65.0499 69.6713 66.3891 69.6713C67.557 69.6713 68.5225 69.9283 69.2855 70.4421C70.0486 70.956 70.5235 71.6723 70.7104 72.5911L68.5848 73.0816C68.2578 72.0383 67.487 71.5166 66.2723 71.5166C65.6495 71.5166 65.1589 71.649 64.8008 71.9137C64.4426 72.1784 64.2635 72.5288 64.2635 72.9648C64.2635 73.2918 64.4037 73.5566 64.684 73.759C64.9643 73.9614 65.5093 74.1405 66.3191 74.2962L67.6738 74.5765C68.795 74.779 69.6125 75.1371 70.1264 75.651C70.6559 76.1649 70.9206 76.85 70.9206 77.7065C70.9206 78.7654 70.5235 79.6297 69.7293 80.2993C68.9507 80.9533 67.8763 81.2803 66.5059 81.2803ZM83.6243 81H80.6345L75.9395 75.9079H75.8461V81H73.5102V64.6493H75.8461V74.5532H75.9161L80.541 69.9516H83.4841L78.2519 75.1838L83.6243 81ZM95.9617 66.4012C95.2454 66.4012 94.716 66.5803 94.3734 66.9384C94.0464 67.281 93.8829 67.8572 93.8829 68.6669V69.9516H96.8026V71.9371H93.8829V81H91.5471V71.9371H89.5383V69.9516H91.5471V68.7136C91.5471 67.2966 91.8819 66.2221 92.5515 65.4902C93.2211 64.7428 94.1787 64.369 95.4245 64.369C95.9851 64.369 96.4678 64.4313 96.8727 64.5559V66.4946C96.5613 66.4323 96.2576 66.4012 95.9617 66.4012ZM104.431 69.7414C104.835 69.7414 105.201 69.8037 105.528 69.9283V72.0071C105.17 71.9604 104.843 71.9371 104.547 71.9371C102.445 71.9371 101.394 73.0972 101.394 75.4174V81H99.0582V69.9516H101.16L101.324 71.6334H101.394C101.643 71.0417 102.04 70.5823 102.585 70.2553C103.13 69.9127 103.745 69.7414 104.431 69.7414ZM117.708 75.0904C117.708 75.3863 117.685 75.6977 117.638 76.0247H109.066C109.159 77.0836 109.51 77.8934 110.117 78.454C110.724 79.0146 111.495 79.2949 112.429 79.2949C113.784 79.2949 114.757 78.7265 115.349 77.5897L117.451 78.1503C117.093 79.1002 116.455 79.8632 115.536 80.4394C114.633 81 113.582 81.2803 112.383 81.2803C110.716 81.2803 109.354 80.7508 108.295 79.6919C107.236 78.6175 106.707 77.2316 106.707 75.5342C106.707 73.8213 107.244 72.4198 108.318 71.3298C109.408 70.2241 110.779 69.6713 112.429 69.6713C113.987 69.6713 115.256 70.1696 116.237 71.1662C117.218 72.1473 117.708 73.4553 117.708 75.0904ZM112.429 71.5867C111.588 71.5867 110.88 71.8281 110.304 72.3108C109.728 72.778 109.346 73.4476 109.159 74.3196H115.372C115.248 73.4164 114.929 72.739 114.415 72.2874C113.901 71.8203 113.239 71.5867 112.429 71.5867ZM130.802 75.0904C130.802 75.3863 130.778 75.6977 130.732 76.0247H122.159C122.253 77.0836 122.603 77.8934 123.21 78.454C123.818 79.0146 124.588 79.2949 125.523 79.2949C126.877 79.2949 127.851 78.7265 128.442 77.5897L130.545 78.1503C130.187 79.1002 129.548 79.8632 128.629 80.4394C127.726 81 126.675 81.2803 125.476 81.2803C123.81 81.2803 122.447 80.7508 121.388 79.6919C120.329 78.6175 119.8 77.2316 119.8 75.5342C119.8 73.8213 120.337 72.4198 121.412 71.3298C122.502 70.2241 123.872 69.6713 125.523 69.6713C127.08 69.6713 128.349 70.1696 129.33 71.1662C130.311 72.1473 130.802 73.4553 130.802 75.0904ZM125.523 71.5867C124.682 71.5867 123.973 71.8281 123.397 72.3108C122.821 72.778 122.439 73.4476 122.253 74.3196H128.466C128.341 73.4164 128.022 72.739 127.508 72.2874C126.994 71.8203 126.332 71.5867 125.523 71.5867ZM135.795 80.7197C135.483 81.0156 135.094 81.1635 134.627 81.1635C134.16 81.1635 133.77 81.0156 133.459 80.7197C133.147 80.4083 132.992 80.0112 132.992 79.5284C132.992 79.0613 133.147 78.672 133.459 78.3605C133.77 78.0491 134.16 77.8934 134.627 77.8934C135.094 77.8934 135.483 78.0491 135.795 78.3605C136.106 78.672 136.262 79.0613 136.262 79.5284C136.262 80.0112 136.106 80.4083 135.795 80.7197Z" fill="#FFFFFA"/>
</svg>
