<svg width="281" height="272" viewBox="0 0 281 272" fill="none" xmlns="http://www.w3.org/2000/svg">
<path d="M157.907 64.8897C153.493 46.6385 127.507 46.6385 123.093 64.8897C120.789 74.4103 109.911 78.9783 101.514 73.9442L99.84 72.9402C84.0466 63.4708 66.3527 81.8596 76.311 97.3101C81.59 105.501 77.1164 116.454 67.6148 118.592C49.5678 122.653 49.5678 148.37 67.6148 152.431C77.1164 154.57 81.59 165.523 76.311 173.714C66.3527 189.164 84.0465 207.553 99.84 198.083L101.514 197.079C109.911 192.045 120.789 196.613 123.093 206.134C127.507 224.385 153.493 224.385 157.907 206.134C160.211 196.613 171.089 192.045 179.486 197.079L181.16 198.083C196.953 207.553 214.647 189.164 204.689 173.714C199.41 165.523 203.884 154.57 213.385 152.431C231.432 148.37 231.432 122.653 213.385 118.592C203.884 116.454 199.41 105.501 204.689 97.3101C214.647 81.8597 196.953 63.4708 181.16 72.9402L179.486 73.9442C171.089 78.9783 160.211 74.4103 157.907 64.8897Z" stroke="#366050" stroke-width="3.32544" stroke-linejoin="round"/>
<path d="M156.342 71.9041C152.334 55.3365 128.746 55.3365 124.738 71.9041C122.647 80.5465 112.772 84.6931 105.15 80.1234L103.63 79.212C89.2939 70.6161 73.2322 87.3087 82.2719 101.334C87.0639 108.769 83.003 118.712 74.3778 120.653C57.9955 124.339 57.9955 147.684 74.3778 151.371C83.003 153.312 87.0639 163.255 82.2719 170.69C73.2322 184.715 89.2938 201.408 103.63 192.812L105.15 191.9C112.772 187.331 122.647 191.477 124.738 200.12C128.746 216.687 152.334 216.687 156.342 200.12C158.432 191.477 168.308 187.331 175.929 191.9L177.449 192.812C191.786 201.408 207.848 184.715 198.808 170.69C194.016 163.255 198.077 153.312 206.702 151.371C223.084 147.684 223.084 124.339 206.702 120.653C198.077 118.712 194.016 108.769 198.808 101.334C207.848 87.3087 191.786 70.6161 177.449 79.212L175.929 80.1234C168.308 84.6931 158.432 80.5465 156.342 71.9041Z" stroke="#366050" stroke-width="3.0187" stroke-linejoin="round"/>
</svg>
