<svg width="150" height="150" viewBox="0 0 150 150" fill="none" xmlns="http://www.w3.org/2000/svg">
<rect width="150" height="150" rx="16" fill="#141414"/>
<path d="M33.9686 74.9889C34.8894 75.1099 35.6483 75.4922 36.3213 76.173C36.9651 76.8246 37.3338 77.5873 37.4509 78.51C37.4821 78.748 37.4821 79.3449 37.4509 79.5829C37.3943 80.0355 37.2753 80.4373 37.0802 80.8411C36.7622 81.4985 36.253 82.074 35.6151 82.4953C34.3295 83.3439 32.4527 83.3439 31.1671 82.4953C30.5292 82.074 30.02 81.4985 29.702 80.8411C29.5069 80.4373 29.3879 80.0355 29.3314 79.5829C29.3001 79.3449 29.3001 78.748 29.3314 78.51C29.4484 77.5893 29.8191 76.8226 30.4609 76.173C31.1281 75.4981 31.887 75.1138 32.798 74.9909C32.98 74.966 33.3184 74.957 33.6062 74.9649L33.9686 74.9889ZM115.669 74.355C116.157 74.3881 116.549 74.4623 116.953 74.5988C118.424 75.0904 119.651 76.3759 120.064 77.8565C120.197 78.3286 120.25 78.7285 120.25 79.2708C120.25 79.4795 120.238 79.7429 120.226 79.856C120.093 81.0069 119.643 81.9413 118.82 82.7626C117.998 83.5858 117.064 84.0364 115.913 84.169C115.8 84.1807 115.536 84.1925 115.328 84.1925C114.471 84.1925 113.759 84.0286 113.066 83.6755C112.237 83.2522 111.467 82.507 110.999 81.676C110.199 80.2559 110.199 78.2857 110.999 76.8655C111.225 76.4656 111.48 76.1321 111.834 75.777C112.771 74.8416 113.848 74.3848 115.231 74.3407L115.669 74.355ZM68.6725 47C67.5488 47.1463 66.6846 47.9149 66.4798 48.9527C66.4583 49.0561 65.4478 57.017 64.2324 66.6438C63.015 76.2706 62.0162 84.1398 62.0084 84.132C62.0025 84.1242 61.1832 79.8755 60.1882 74.6905C59.1933 69.5055 58.3583 65.1885 58.3329 65.0988C58.0364 64.0786 57.0512 63.2866 56.0017 63.2241C55.7715 63.2105 55.4496 63.2378 55.2116 63.2944C54.4761 63.466 53.8713 63.9128 53.5084 64.5526C53.4655 64.6267 52.0999 67.465 50.4709 70.8593L47.5115 77.0275L43.5024 77.0236L39.4954 77.0177L39.3998 76.7543C39.1949 76.1945 38.8184 75.5293 38.4341 75.0475C38.239 74.8036 37.7689 74.3198 37.5367 74.1248C36.5203 73.2684 35.3985 72.8041 34.0446 72.6773C33.7676 72.652 33.0146 72.652 32.7376 72.6773C31.5495 72.7885 30.4882 73.1826 29.6103 73.8361C29.1753 74.1599 28.67 74.6456 28.3481 75.0475C27.8858 75.6249 27.4958 76.3564 27.287 77.0431C26.9651 78.0906 26.9105 79.3664 27.1407 80.4705C27.3924 81.6682 27.9443 82.6806 28.8358 83.5741C29.386 84.1261 29.8737 84.4773 30.5331 84.8011C31.1847 85.121 31.8363 85.3063 32.64 85.3999C32.9209 85.4331 33.8613 85.4331 34.1422 85.3999C35.4395 85.2497 36.4852 84.8167 37.4489 84.0325C37.9834 83.5955 38.5043 83.0084 38.8418 82.4622L38.9589 82.2749H44.0506C47.1642 82.2749 49.2321 82.2671 49.3726 82.2554C50.2817 82.1793 51.0308 81.7209 51.4561 80.9796C51.5049 80.8938 52.2599 79.3313 53.1339 77.5093C54.0059 75.6893 54.7258 74.1989 54.7316 74.1989C54.7375 74.1989 55.2018 76.6061 55.7637 79.5478C59.3864 98.5576 59.8468 100.965 59.8936 101.109C60.1258 101.813 60.6681 102.428 61.3353 102.746C61.9538 103.042 62.6463 103.081 63.2628 102.853C63.9807 102.59 64.566 102.034 64.8469 101.353C64.9405 101.121 64.9893 100.924 65.0361 100.573C65.0595 100.407 66.0506 92.6157 67.2387 83.26C68.4267 73.9043 69.4041 66.2712 69.41 66.2985C69.4178 66.3258 70.2449 71.4386 71.2477 77.6614C72.3772 84.6626 73.0932 89.0458 73.1244 89.1609C73.3897 90.1168 74.1525 90.8425 75.0967 91.0317C75.5103 91.1156 75.9298 91.1039 76.359 90.9946C77.0925 90.8112 77.6875 90.3353 78.0113 89.6779C78.0484 89.6018 78.9692 87.4287 80.0559 84.844C81.1444 82.2612 82.0399 80.1545 82.0457 80.1623C82.0535 80.172 83.0407 83.061 84.2405 86.586C85.4383 90.1109 86.4508 93.0682 86.4879 93.1599C86.6186 93.4798 86.7979 93.7432 87.0573 93.9987C87.3441 94.2796 87.6796 94.4864 88.0601 94.6132C88.3683 94.7166 88.5907 94.7458 88.9711 94.7341C89.3223 94.7224 89.4783 94.6951 89.7846 94.5937C90.3328 94.4103 90.8127 94.0436 91.1112 93.5735C91.1619 93.4954 92.5256 90.9224 94.1409 87.8579L97.0789 82.2846L102.629 82.2788L108.179 82.2749L108.281 82.5051C108.983 84.0891 110.435 85.558 112.013 86.2797C113.144 86.7947 114.442 87.0327 115.753 86.9605C116.266 86.9332 116.556 86.8981 116.995 86.8103C118.431 86.5255 119.65 85.874 120.739 84.8108C121.705 83.8686 122.356 82.7996 122.713 81.5726C122.959 80.728 123.068 79.7585 123.018 78.8455C122.99 78.3325 122.955 78.0418 122.867 77.6029C122.571 76.1126 121.867 74.8309 120.739 73.7307C120.199 73.2021 119.656 72.7983 119.048 72.4667C117.85 71.8132 116.389 71.5011 114.902 71.581C114.395 71.6083 114.102 71.6435 113.659 71.7312C112.924 71.8775 112.235 72.1233 111.607 72.4667C110.236 73.2138 109.02 74.4857 108.361 75.8668C108.216 76.1691 108.146 76.3447 108.022 76.7153L107.918 77.0177L101.543 77.0275C95.5358 77.0372 95.1573 77.0411 95.0247 77.0723C94.2853 77.2518 93.7117 77.6556 93.3098 78.2759C93.2572 78.3578 92.3637 80.0277 91.3239 81.9881C90.2821 83.9467 89.4296 85.5482 89.4257 85.5462C89.4237 85.5423 88.3761 82.4641 87.0983 78.7031C84.5778 71.2884 84.687 71.5908 84.4178 71.2338C84.2734 71.0407 83.9828 70.7559 83.8013 70.6252C83.5048 70.4165 83.138 70.2584 82.7615 70.1765C82.4923 70.1199 82.0202 70.116 81.7627 70.1687C80.9531 70.3365 80.2781 70.8612 79.9054 71.6142C79.8625 71.7 79.1212 73.4615 78.2589 75.5312C77.3966 77.599 76.6867 79.2903 76.6809 79.2903C76.675 79.2903 75.5357 72.4764 74.1467 64.1468C73.2224 58.595 72.4074 53.7291 71.9545 51.0463" fill="#00B87C"/>
</svg>
