<svg width="110" height="106" viewBox="0 0 110 106" fill="none" xmlns="http://www.w3.org/2000/svg">
<path d="M55.6272 1.99868C55.6265 1.6528 55.3459 1.37278 55 1.37278C54.6541 1.37278 54.3735 1.6528 54.3728 1.99868V2.00132L54.2876 42.6316L48.7037 2.3538L48.7034 2.3512C48.6559 2.00858 48.34 1.76909 47.9973 1.81587C47.6546 1.86265 47.4144 2.17804 47.4605 2.52085L47.4608 2.52345L52.8726 42.7999L41.8873 3.57518L41.8866 3.57266C41.7933 3.23959 41.448 3.0449 41.1147 3.13748C40.7814 3.23007 40.586 3.57498 40.6779 3.90844L40.6786 3.91096L51.4875 43.1354L35.2946 5.64484L35.2936 5.64245C35.1564 5.32491 34.7881 5.17834 34.4703 5.31483C34.1524 5.45133 34.0051 5.81935 34.1409 6.13746L34.142 6.13985L50.1528 43.6354L29.0388 8.52752L29.0375 8.5253C28.8592 8.22888 28.4746 8.13273 28.1779 8.31039C27.8811 8.48805 27.7841 8.87245 27.9612 9.1696L27.9625 9.17182L48.8896 44.2957L23.2273 12.1739L23.2257 12.1719C23.0098 11.9017 22.6158 11.8572 22.3452 12.0726C22.0745 12.288 22.0292 12.6818 22.244 12.9529L22.2456 12.9549L47.7196 45.1092L17.9597 16.5216L17.9579 16.5199C17.7084 16.2803 17.312 16.2878 17.0719 16.5368C16.8318 16.7858 16.8385 17.1822 17.087 17.4228L17.0888 17.4245L46.6647 46.0661L13.3264 21.4961L13.3244 21.4946C13.0459 21.2893 12.6539 21.3483 12.4481 21.6263C12.2423 21.9044 12.3005 22.2966 12.5781 22.5029L12.5802 22.5044L45.7462 47.153L9.40689 27.0118L9.40471 27.0106C9.10216 26.8429 8.72096 26.9518 8.55267 27.254C8.38438 27.5562 8.49254 27.9377 8.79442 28.1066L8.7966 28.1078L44.9839 48.353L6.26823 32.9742L6.26593 32.9733C5.94445 32.8456 5.58026 33.0023 5.45193 33.3235C5.32359 33.6447 5.47956 34.0092 5.80054 34.1382L5.80284 34.1391L44.3953 49.6454L3.96406 39.281L3.96168 39.2804C3.62659 39.1945 3.28522 39.3961 3.19866 39.731C3.11211 40.0659 3.31305 40.4077 3.6478 40.4949L3.65018 40.4955L43.9945 51.0064L2.53365 45.824L2.53122 45.8237C2.18796 45.7808 1.87477 46.0239 1.8312 46.3671C1.78762 46.7102 2.03011 47.0239 2.3732 47.0681L2.37563 47.0684L43.7916 52.4096L2.00122 52.4911H1.99878C1.65285 52.4918 1.37278 52.7724 1.37278 53.1183C1.37278 53.4643 1.65285 53.7449 1.99878 53.7456H2.00122L43.7916 53.8271L2.37563 59.1683L2.3732 59.1686C2.03011 59.2128 1.78762 59.5265 1.8312 59.8696C1.87477 60.2128 2.18796 60.4559 2.53122 60.413L2.53365 60.4127L43.9945 55.2303L3.65018 65.7412L3.6478 65.7418C3.31305 65.829 3.11211 66.1708 3.19866 66.5057C3.28522 66.8406 3.62659 67.0422 3.96168 66.9563L3.96406 66.9557L44.3953 56.5913L5.80284 72.0976L5.80054 72.0985C5.47956 72.2275 5.32359 72.592 5.45193 72.9132C5.58026 73.2344 5.94445 73.3911 6.26593 73.2634L6.26823 73.2625L44.9839 57.8837L8.7966 78.1289L8.79442 78.1301C8.49254 78.299 8.38438 78.6805 8.55267 78.9827C8.72096 79.2849 9.10216 79.3938 9.40471 79.2261L9.40689 79.2249L45.7462 59.0837L12.5802 83.7323L12.5781 83.7338C12.3005 83.9401 12.2423 84.3323 12.4481 84.6104C12.6539 84.8884 13.0459 84.9474 13.3244 84.7421L13.3264 84.7406L46.6647 60.1706L17.0888 88.8121L17.087 88.8139C16.8385 89.0546 16.8318 89.4509 17.0719 89.6999C17.312 89.9489 17.7084 89.9564 17.9579 89.7168L17.9597 89.715L47.7196 61.1275L22.2456 93.2818L22.244 93.2838C22.0292 93.5549 22.0745 93.9487 22.3452 94.1641C22.6158 94.3794 23.0098 94.335 23.2257 94.0648L23.2273 94.0628L48.8896 61.941L27.9625 97.0649L27.9612 97.0671C27.7841 97.3643 27.8811 97.7486 28.1779 97.9263C28.4746 98.104 28.8592 98.0078 29.0375 97.7114L29.0388 97.7092L50.1528 62.6013L34.142 100.097L34.1409 100.099C34.0051 100.417 34.1524 100.785 34.4703 100.922C34.7881 101.058 35.1564 100.912 35.2936 100.594L35.2946 100.592L51.4875 63.1013L40.6786 102.326L40.6779 102.328C40.586 102.662 40.7814 103.007 41.1147 103.099C41.448 103.192 41.7933 102.997 41.8866 102.664L41.8873 102.662L52.8726 63.4368L47.4608 103.713L47.4605 103.716C47.4144 104.059 47.6546 104.374 47.9973 104.421C48.34 104.468 48.6559 104.228 48.7034 103.885L48.7037 103.883L54.2876 63.605L54.3728 104.235V104.238C54.3735 104.584 54.6541 104.864 55 104.864C55.3459 104.864 55.6265 104.584 55.6272 104.238V104.235L55.7124 63.605L61.2963 103.883L61.2966 103.885C61.3441 104.228 61.66 104.468 62.0027 104.421C62.3454 104.374 62.5856 104.059 62.5395 103.716L62.5392 103.713L57.1274 63.4368L68.1127 102.662L68.1134 102.664C68.2067 102.997 68.552 103.192 68.8853 103.099C69.2186 103.007 69.414 102.662 69.3221 102.328L69.3214 102.326L58.5125 63.1013L74.7054 100.592L74.7064 100.594C74.8436 100.912 75.2119 101.058 75.5297 100.922C75.8476 100.785 75.9949 100.417 75.8591 100.099L75.858 100.097L59.8472 62.6013L80.9612 97.7092L80.9625 97.7114C81.1408 98.0078 81.5254 98.104 81.8222 97.9263C82.1189 97.7486 82.2159 97.3643 82.0388 97.0671L82.0375 97.0649L61.1104 61.941L86.7727 94.0628L86.7743 94.0648C86.9902 94.335 87.3842 94.3794 87.6549 94.1641C87.9255 93.9487 87.9708 93.5549 87.756 93.2838L87.7544 93.2818L62.2804 61.1275L92.0403 89.715L92.0421 89.7168C92.2916 89.9564 92.688 89.9489 92.9281 89.6999C93.1682 89.4509 93.1615 89.0546 92.913 88.8139L92.9112 88.8121L63.3353 60.1706L96.6736 84.7406L96.6756 84.7421C96.9541 84.9474 97.3461 84.8884 97.5519 84.6104C97.7577 84.3323 97.6995 83.9401 97.4219 83.7338L97.4198 83.7323L64.2538 59.0837L100.593 79.2249L100.595 79.2261C100.898 79.3938 101.279 79.2849 101.447 78.9827C101.616 78.6805 101.507 78.299 101.206 78.1301L101.203 78.1289L65.0161 57.8837L103.732 73.2625L103.734 73.2634C104.056 73.3911 104.42 73.2344 104.548 72.9132C104.676 72.592 104.52 72.2275 104.199 72.0985L104.197 72.0976L65.6047 56.5913L106.036 66.9557L106.038 66.9563C106.373 67.0422 106.715 66.8406 106.801 66.5057C106.888 66.1708 106.687 65.829 106.352 65.7418L106.35 65.7412L66.0055 55.2303L107.466 60.4127L107.469 60.413C107.812 60.4559 108.125 60.2128 108.169 59.8696C108.212 59.5265 107.97 59.2128 107.627 59.1686L107.624 59.1683L66.2084 53.8271L107.999 53.7456H108.001C108.347 53.7449 108.627 53.4643 108.627 53.1183C108.627 52.7724 108.347 52.4918 108.001 52.4911H107.999L66.2084 52.4096L107.624 47.0684L107.627 47.0681C107.97 47.0239 108.212 46.7102 108.169 46.3671C108.125 46.0239 107.812 45.7808 107.469 45.8237L107.466 45.824L66.0055 51.0064L106.35 40.4955L106.352 40.4949C106.687 40.4077 106.888 40.0659 106.801 39.731C106.715 39.3961 106.373 39.1945 106.038 39.2804L106.036 39.281L65.6047 49.6454L104.197 34.1391L104.199 34.1382C104.52 34.0092 104.676 33.6447 104.548 33.3235C104.42 33.0023 104.056 32.8456 103.734 32.9733L103.732 32.9742L65.0161 48.353L101.203 28.1078L101.206 28.1066C101.507 27.9377 101.616 27.5562 101.447 27.254C101.279 26.9518 100.898 26.8429 100.595 27.0106L100.593 27.0118L64.2538 47.153L97.4198 22.5044L97.4219 22.5029C97.6995 22.2966 97.7577 21.9044 97.5519 21.6263C97.3461 21.3483 96.9541 21.2893 96.6756 21.4946L96.6736 21.4961L63.3353 46.0661L92.9112 17.4245L92.913 17.4228C93.1615 17.1822 93.1682 16.7858 92.9281 16.5368C92.688 16.2878 92.2916 16.2803 92.0421 16.5199L92.0403 16.5216L62.2804 45.1092L87.7544 12.9549L87.756 12.9529C87.9708 12.6818 87.9255 12.288 87.6549 12.0726C87.3842 11.8572 86.9902 11.9017 86.7743 12.1719L86.7727 12.1739L61.1104 44.2957L82.0375 9.17182L82.0388 9.1696C82.2159 8.87245 82.1189 8.48805 81.8222 8.31039C81.5254 8.13273 81.1408 8.22888 80.9625 8.5253L80.9612 8.52752L59.8472 43.6354L75.858 6.13985L75.8591 6.13746C75.9949 5.81935 75.8476 5.45133 75.5297 5.31483C75.2119 5.17834 74.8436 5.32491 74.7064 5.64245L74.7054 5.64484L58.5125 43.1354L69.3214 3.91096L69.3221 3.90844C69.414 3.57498 69.2186 3.23007 68.8853 3.13748C68.552 3.0449 68.2067 3.23959 68.1134 3.57266L68.1127 3.57518L57.1274 42.7999L62.5392 2.52345L62.5395 2.52085C62.5856 2.17804 62.3454 1.86265 62.0027 1.81587C61.66 1.76909 61.3441 2.00858 61.2966 2.3512L61.2963 2.3538L55.7124 42.6316L55.6272 2.00132V1.99868Z" stroke="#191838" stroke-width="1.25444" stroke-linejoin="round"/>
<path d="M55.5844 6.90274C55.5838 6.58875 55.329 6.33457 55.0151 6.33457C54.7011 6.33457 54.4464 6.58875 54.4457 6.90274V6.90512L54.3683 43.7876L49.2996 7.22509L49.2993 7.22273C49.2561 6.91172 48.9694 6.69432 48.6583 6.73678C48.3472 6.77925 48.1292 7.06555 48.171 7.37674L48.1713 7.3791L53.0839 43.9403L43.1119 8.33382L43.1113 8.33153C43.0266 8.02918 42.7131 7.85244 42.4106 7.93649C42.1081 8.02054 41.9307 8.33363 42.0141 8.63634L42.0147 8.63863L51.8266 44.2449L37.1273 10.2126L37.1264 10.2104C37.0019 9.92214 36.6676 9.78909 36.3791 9.913C36.0905 10.0369 35.9568 10.371 36.0801 10.6597L36.081 10.6619L50.615 44.6988L31.4486 12.8293L31.4474 12.8273C31.2856 12.5582 30.9365 12.471 30.6671 12.6322C30.3977 12.7935 30.3097 13.1424 30.4704 13.4122L30.4716 13.4142L49.4683 45.2981L26.1731 16.1394L26.1717 16.1376C25.9757 15.8923 25.6181 15.8519 25.3724 16.0474C25.1267 16.2429 25.0856 16.6004 25.2806 16.8465L25.282 16.8483L48.4063 46.0366L21.3914 20.0861L21.3898 20.0845C21.1633 19.8669 20.8035 19.8738 20.5855 20.0998C20.3676 20.3258 20.3737 20.6856 20.5993 20.9041L20.6009 20.9057L47.4487 46.9052L17.1856 24.6016L17.1837 24.6003C16.931 24.414 16.5751 24.4675 16.3883 24.7199C16.2015 24.9723 16.2543 25.3283 16.5063 25.5156L16.5081 25.5169L46.6149 47.8919L13.6276 29.6086L13.6256 29.6075C13.351 29.4552 13.0049 29.5541 12.8522 29.8285C12.6994 30.1028 12.7976 30.449 13.0716 30.6023L13.0736 30.6034L45.9228 48.9812L10.7784 35.021L10.7764 35.0202C10.4845 34.9042 10.1539 35.0465 10.0374 35.3381C9.92095 35.6297 10.0625 35.9605 10.3539 36.0776L10.356 36.0784L45.3885 50.1544L8.68682 40.746L8.68466 40.7455C8.38048 40.6675 8.0706 40.8505 7.99203 41.1545C7.91346 41.4585 8.09586 41.7688 8.39973 41.848L8.4019 41.8485L45.0248 51.3898L7.38835 46.6855L7.38615 46.6852C7.07456 46.6462 6.79026 46.8669 6.7507 47.1784C6.71115 47.49 6.93127 47.7747 7.2427 47.8148L7.24491 47.8151L44.8405 52.6636L6.90504 52.7376H6.90282C6.5888 52.7382 6.33457 52.993 6.33457 53.307C6.33457 53.621 6.5888 53.8757 6.90282 53.8763H6.90504L44.8405 53.9503L7.24491 58.7988L7.2427 58.7991C6.93127 58.8393 6.71115 59.124 6.7507 59.4355C6.79026 59.747 7.07456 59.9677 7.38615 59.9287L7.38835 59.9285L45.0248 55.2241L8.4019 64.7654L8.39973 64.766C8.09586 64.8452 7.91346 65.1554 7.99203 65.4594C8.0706 65.7635 8.38048 65.9465 8.68466 65.8685L8.68682 65.8679L45.3885 56.4596L10.356 70.5355L10.3539 70.5363C10.0625 70.6534 9.92095 70.9843 10.0374 71.2759C10.1539 71.5675 10.4845 71.7097 10.7764 71.5938L10.7784 71.593L45.9228 57.6328L13.0736 76.0105L13.0716 76.0116C12.7976 76.1649 12.6994 76.5111 12.8522 76.7855C13.0049 77.0598 13.351 77.1587 13.6256 77.0065L13.6276 77.0054L46.6149 58.722L16.5081 81.097L16.5063 81.0984C16.2543 81.2857 16.2015 81.6417 16.3883 81.8941C16.5751 82.1465 16.931 82.2 17.1837 82.0137L17.1856 82.0123L47.4487 59.7087L20.6009 85.7083L20.5993 85.7099C20.3737 85.9283 20.3676 86.2881 20.5855 86.5141C20.8035 86.7402 21.1633 86.747 21.3898 86.5295L21.3914 86.5279L48.4063 60.5774L25.282 89.7656L25.2806 89.7674C25.0856 90.0135 25.1267 90.371 25.3724 90.5665C25.6181 90.762 25.9757 90.7217 26.1717 90.4764L26.1731 90.4745L49.4683 61.3158L30.4716 93.1998L30.4704 93.2018C30.3097 93.4715 30.3977 93.8204 30.6671 93.9817C30.9365 94.143 31.2856 94.0557 31.4474 93.7866L31.4486 93.7846L50.615 61.9152L36.081 95.952L36.0801 95.9542C35.9568 96.243 36.0905 96.577 36.3791 96.701C36.6676 96.8249 37.0019 96.6918 37.1264 96.4036L37.1273 96.4014L51.8266 62.3691L42.0147 97.9753L42.0141 97.9776C41.9307 98.2803 42.1081 98.5934 42.4106 98.6775C42.7131 98.7615 43.0266 98.5848 43.1113 98.2824L43.1119 98.2801L53.0839 62.6736L48.1713 99.2348L48.171 99.2372C48.1292 99.5484 48.3472 99.8347 48.6583 99.8772C48.9694 99.9196 49.2561 99.7022 49.2993 99.3912L49.2996 99.3889L54.3683 62.8264L54.4457 99.7088V99.7112C54.4464 100.025 54.7011 100.279 55.0151 100.279C55.329 100.279 55.5838 100.025 55.5844 99.7112V99.7088L55.6618 62.8264L60.7305 99.3889L60.7309 99.3912C60.774 99.7022 61.0607 99.9196 61.3718 99.8772C61.6829 99.8347 61.9009 99.5484 61.8591 99.2372L61.8588 99.2348L56.9462 62.6736L66.9182 98.2801L66.9189 98.2824C67.0035 98.5848 67.317 98.7615 67.6195 98.6775C67.9221 98.5934 68.0995 98.2803 68.016 97.9776L68.0154 97.9753L58.2035 62.3691L72.9028 96.4014L72.9037 96.4036C73.0282 96.6918 73.3626 96.8249 73.6511 96.701C73.9396 96.577 74.0733 96.243 73.95 95.9542L73.9491 95.952L59.4151 61.9152L78.5815 93.7846L78.5827 93.7866C78.7445 94.0557 79.0936 94.143 79.3631 93.9817C79.6325 93.8204 79.7205 93.4715 79.5598 93.2018L79.5585 93.1998L60.5618 61.3158L83.857 90.4745L83.8584 90.4764C84.0544 90.7217 84.412 90.762 84.6577 90.5665C84.9035 90.371 84.9445 90.0135 84.7495 89.7674L84.7481 89.7656L61.6239 60.5774L88.6387 86.5279L88.6403 86.5295C88.8668 86.747 89.2266 86.7402 89.4446 86.5141C89.6626 86.2881 89.6564 85.9283 89.4309 85.7099L89.4292 85.7083L62.5814 59.7087L92.8446 82.0123L92.8464 82.0137C93.0992 82.2 93.455 82.1465 93.6418 81.8941C93.8286 81.6417 93.7758 81.2857 93.5238 81.0984L93.522 81.097L63.4153 58.722L96.4025 77.0054L96.4045 77.0065C96.6792 77.1587 97.0252 77.0598 97.178 76.7855C97.3307 76.5111 97.2325 76.1649 96.9585 76.0116L96.9565 76.0105L64.1073 57.6328L99.2517 71.593L99.2538 71.5938C99.5456 71.7097 99.8762 71.5675 99.9927 71.2759C100.109 70.9843 99.9676 70.6534 99.6762 70.5363L99.6741 70.5355L64.6416 56.4596L101.343 65.8679L101.345 65.8685C101.65 65.9465 101.96 65.7635 102.038 65.4594C102.117 65.1554 101.934 64.8452 101.63 64.766L101.628 64.7654L65.0053 55.2241L102.642 59.9285L102.644 59.9287C102.956 59.9677 103.24 59.747 103.279 59.4355C103.319 59.124 103.099 58.8393 102.787 58.7991L102.785 58.7988L65.1896 53.9503L103.125 53.8763H103.127C103.441 53.8757 103.696 53.621 103.696 53.307C103.696 52.993 103.441 52.7382 103.127 52.7376H103.125L65.1896 52.6636L102.785 47.8151L102.787 47.8148C103.099 47.7747 103.319 47.49 103.279 47.1784C103.24 46.8669 102.956 46.6462 102.644 46.6852L102.642 46.6855L65.0053 51.3898L101.628 41.8485L101.63 41.848C101.934 41.7688 102.117 41.4585 102.038 41.1545C101.96 40.8505 101.65 40.6675 101.345 40.7455L101.343 40.746L64.6416 50.1544L99.6741 36.0784L99.6762 36.0776C99.9676 35.9605 100.109 35.6297 99.9927 35.3381C99.8762 35.0465 99.5456 34.9042 99.2538 35.0202L99.2517 35.021L64.1073 48.9812L96.9565 30.6034L96.9585 30.6023C97.2325 30.449 97.3307 30.1028 97.178 29.8285C97.0252 29.5541 96.6792 29.4552 96.4045 29.6075L96.4025 29.6086L63.4153 47.8919L93.522 25.5169L93.5238 25.5156C93.7758 25.3283 93.8286 24.9723 93.6418 24.7199C93.455 24.4675 93.0992 24.414 92.8464 24.6003L92.8446 24.6016L62.5814 46.9052L89.4292 20.9057L89.4309 20.9041C89.6564 20.6856 89.6626 20.3258 89.4446 20.0998C89.2266 19.8738 88.8668 19.8669 88.6403 20.0845L88.6387 20.0861L61.6239 46.0366L84.7481 16.8483L84.7495 16.8465C84.9445 16.6004 84.9035 16.2429 84.6577 16.0474C84.412 15.8519 84.0544 15.8923 83.8584 16.1376L83.857 16.1394L60.5618 45.2981L79.5585 13.4142L79.5598 13.4122C79.7205 13.1424 79.6325 12.7935 79.3631 12.6322C79.0936 12.471 78.7445 12.5582 78.5827 12.8273L78.5815 12.8293L59.4151 44.6988L73.9491 10.6619L73.95 10.6597C74.0733 10.371 73.9396 10.0369 73.6511 9.913C73.3626 9.78909 73.0282 9.92214 72.9037 10.2104L72.9028 10.2126L58.2035 44.2449L68.0154 8.63863L68.016 8.63634C68.0995 8.33363 67.9221 8.02054 67.6195 7.93649C67.317 7.85244 67.0035 8.02918 66.9189 8.33153L66.9182 8.33382L56.9462 43.9403L61.8588 7.3791L61.8591 7.37674C61.9009 7.06555 61.6829 6.77925 61.3718 6.73678C61.0607 6.69432 60.774 6.91172 60.7309 7.22273L60.7305 7.22509L55.6618 43.7876L55.5844 6.90512V6.90274Z" stroke="#191838" stroke-width="1.13872" stroke-linejoin="round"/>
</svg>
